<?xml version="1.0" encoding="UTF-8"?>
<!DOCTYPE svg PUBLIC "-//W3C//DTD SVG 1.1//EN" "http://www.w3.org/Graphics/SVG/1.1/DTD/svg11.dtd">
<svg version="1.2" xmlns="http://www.w3.org/2000/svg" xmlns:xlink="http://www.w3.org/1999/xlink" x="0" y="0" width="783" height="346" viewBox="0 0 783 346">
<style type="text/css"><![CDATA[
text { font:12px Dialog; }
]]></style>
<rect x="-1446" y="-1143" width="3524" height="2632" style="fill:rgb(255,255,255);stroke:none" />
<clipPath id="clip1"><path d="M8,15 L770,15 L770,331 L8,331 Z M343,135 C338.5817261,135 335,138.5817261 335,143 L335,203 C335,207.4182739 338.5817261,211 343,211 L580,211 C584.4182739,211 588,207.4182739 588,203 L588,143 C588,138.5817261 584.4182739,135 580,135 Z" /></clipPath>
<path d="M540.2050781,135 C560.6039429,105.453331 591.2022705,90.6800003 632,90.6800003" style="fill:none;stroke:rgb(85,142,213)" clip-path="url(#clip1)" />
<clipPath id="clip2"><path d="M8,15 L770,15 L770,331 L8,331 Z M343,135 C338.5817261,135 335,138.5817261 335,143 L335,203 C335,207.4182739 338.5817261,211 343,211 L580,211 C584.4182739,211 588,207.4182739 588,203 L588,143 C588,138.5817261 584.4182739,135 580,135 Z" /></clipPath>
<path d="M588,172.8605804 C602.444458,172.8128204 624.111084,172.7889404 653,172.7889404" style="fill:none;stroke:rgb(85,142,213)" clip-path="url(#clip2)" />
<clipPath id="clip3"><path d="M8,15 L770,15 L770,331 L8,331 Z M343,135 C338.5817261,135 335,138.5817261 335,143 L335,203 C335,207.4182739 338.5817261,211 343,211 L580,211 C584.4182739,211 588,207.4182739 588,203 L588,143 C588,138.5817261 584.4182739,135 580,135 Z" /></clipPath>
<path d="M540.7112427,211 C560.9976196,240.1959839 591.4272461,254.7939758 632,254.7939758" style="fill:none;stroke:rgb(85,142,213)" clip-path="url(#clip3)" />
<clipPath id="clip4"><path d="M8,15 L770,15 L770,331 L8,331 Z M343,135 C338.5817261,135 335,138.5817261 335,143 L335,203 C335,207.4182739 338.5817261,211 343,211 L580,211 C584.4182739,211 588,207.4182739 588,203 L588,143 C588,138.5817261 584.4182739,135 580,135 Z" /></clipPath>
<path d="M424.1707764,211 C403.466156,274.2299805 372.4092407,305.8450012 331,305.8450012" style="fill:none;stroke:rgb(85,142,213)" clip-path="url(#clip4)" />
<clipPath id="clip5"><path d="M8,15 L770,15 L770,331 L8,331 Z M343,135 C338.5817261,135 335,138.5817261 335,143 L335,203 C335,207.4182739 338.5817261,211 343,211 L580,211 C584.4182739,211 588,207.4182739 588,203 L588,143 C588,138.5817261 584.4182739,135 580,135 Z" /></clipPath>
<path d="M335,209.6676636 C322.555542,220.4892273 303.8888855,225.8999939 279,225.8999939" style="fill:none;stroke:rgb(85,142,213)" clip-path="url(#clip5)" />
<clipPath id="clip6"><path d="M8,15 L770,15 L770,331 L8,331 Z M343,135 C338.5817261,135 335,138.5817261 335,143 L335,203 C335,207.4182739 338.5817261,211 343,211 L580,211 C584.4182739,211 588,207.4182739 588,203 L588,143 C588,138.5817261 584.4182739,135 580,135 Z" /></clipPath>
<path d="M335,154.5446014 C321.666687,148.7088928 301.666687,145.7910461 275,145.7910461" style="fill:none;stroke:rgb(85,142,213)" clip-path="url(#clip6)" />
<clipPath id="clip7"><path d="M8,15 L770,15 L770,331 L8,331 Z M343,135 C338.5817261,135 335,138.5817261 335,143 L335,203 C335,207.4182739 338.5817261,211 343,211 L580,211 C584.4182739,211 588,207.4182739 588,203 L588,143 C588,138.5817261 584.4182739,135 580,135 Z" /></clipPath>
<path d="M424.2730713,135 C403.5457153,71.5266571 372.4547119,39.7899933 331,39.7899933" style="fill:none;stroke:rgb(85,142,213)" clip-path="url(#clip7)" />
<clipPath id="clip8"><path d="M331,131 L593,131 L593,216 L331,216 L331,131 Z" /></clipPath>
<path d="M343,135 C338.5817261,135 335,138.5817261 335,143 L335,203 C335,207.4182739 338.5817261,211 343,211 L580,211 C584.4182739,211 588,207.4182739 588,203 L588,143 C588,138.5817261 584.4182739,135 580,135 Z" style="fill:rgb(220,230,242);stroke:none" clip-path="url(#clip8)" />
<clipPath id="clip9"><path d="M331,131 L593,131 L593,216 L331,216 L331,131 Z" /></clipPath>
<path d="M343,135 C338.5817261,135 335,138.5817261 335,143 L335,203 C335,207.4182739 338.5817261,211 343,211 L580,211 C584.4182739,211 588,207.4182739 588,203 L588,143 C588,138.5817261 584.4182739,135 580,135 Z" style="fill:none;stroke:rgb(85,142,213);stroke-width:5" clip-path="url(#clip9)" />
<clipPath id="clip10"><path d="M367,151 L557,151 L557,196 L367,196 L367,151 Z" /></clipPath>
<path d="M398.5795898,164.9599609 L394.1264648,164.9599609 L396.8510742,166.0439453 L395.0053711,168.5048828 L399.487793,168.5048828 L399.487793,171.7861328 L386.2456055,171.7861328 L389.409668,172.6943359 L388.5893555,174.1591797 L399.1948242,174.1591797 L399.1948242,177.4404297 L396.2504883,177.4404297 C395.6157227,179.2080078 394.6635742,180.7705078 393.394043,182.1279297 L399.0776367,184.4716797 L397.1147461,187.9287109 C394.6831055,186.6787109 392.4321289,185.5654297 390.3618164,184.5888672 C387.7836914,186.2197266 384.4780273,187.3623047 380.4448242,188.0166016 C379.9370117,186.9228516 379.3217773,185.7607422 378.5991211,184.5302734 C381.6069336,184.1787109 384.1362305,183.5683594 386.1870117,182.6992188 C384.1948242,181.8398438 382.4272461,181.1513672 380.8842773,180.6337891 C381.5385742,179.5986328 382.1489258,178.5341797 382.715332,177.4404297 L379.6831055,177.4404297 L379.6831055,176.3417969 C379.0092773,176.4394531 378.3061523,176.5566406 377.5737305,176.6933594 L377.5737305,183.9736328 C377.5737305,185.1064453 377.3271484,185.9804688 376.8339844,186.5957031 C376.3408203,187.2109375 375.6132813,187.5600586 374.6513672,187.6430664 C373.6894531,187.7260742 372.5639648,187.7822266 371.2749023,187.8115234 C371.0991211,186.5419922 370.8061523,185.2529297 370.3959961,183.9443359 C371.1186523,183.9833984 371.7583008,184.0029297 372.3149414,184.0029297 C372.9106445,184.0029297 373.3012695,183.9052734 373.4868164,183.7099609 C373.6723633,183.5146484 373.7651367,183.1533203 373.7651367,182.6259766 L373.7651367,177.4111328 L370.8647461,178.0263672 L370.3959961,173.8369141 C371.3334961,173.7294922 372.456543,173.5830078 373.7651367,173.3974609 L373.7651367,168.2998047 L370.8647461,168.2998047 L370.8647461,164.5498047 L373.7651367,164.5498047 L373.7651367,159.1298828 L377.5737305,159.1298828 L377.5737305,164.5498047 L380.0639648,164.5498047 L380.0639648,168.2998047 L377.5737305,168.2998047 L377.5737305,172.8115234 L379.8881836,172.4306641 C379.8588867,173.0556641 379.8442383,173.6318359 379.8442383,174.1591797 L384.2827148,174.1591797 C384.6147461,173.3876953 384.9321289,172.5966797 385.2348633,171.7861328 L379.7124023,171.7861328 L379.7124023,168.5048828 L383.8725586,168.5048828 C383.2963867,167.4892578 382.7983398,166.6689453 382.378418,166.0439453 L384.8100586,164.9599609 L380.737793,164.9599609 L380.737793,161.6787109 L387.2416992,161.6787109 C386.9584961,160.9560547 386.6655273,160.2724609 386.362793,159.6279297 L390.7573242,158.8955078 C391.0991211,159.7158203 391.4360352,160.6435547 391.7680664,161.6787109 L398.5795898,161.6787109 Z M388.3842773,167.7138672 L386.5532227,168.5048828 L390.5375977,168.5048828 C391.5043945,167.0107422 392.222168,165.8291016 392.690918,164.9599609 L386.4799805,164.9599609 C387.0366211,165.7119141 387.6713867,166.6298828 388.3842773,167.7138672 Z M385.7768555,179.1396484 L389.644043,180.6337891 C390.7182617,179.7158203 391.5141602,178.6513672 392.0317383,177.4404297 L386.7436523,177.4404297 Z M403.3696289,187.1376953 L403.3696289,161.5615234 L428.3598633,161.5615234 L428.3598633,187.1376953 L423.965332,187.1376953 L423.965332,185.0576172 L407.7641602,185.0576172 L407.7641602,187.1376953 Z M423.965332,165.5751953 L407.7641602,165.5751953 L407.7641602,181.0439453 L423.965332,181.0439453 Z M442.3491211,165.8681641 L437.0756836,165.8681641 C436.8120117,166.5908203 436.5336914,167.2841797 436.2407227,167.9482422 L441.9389648,167.9482422 L441.9389648,171.2587891 L439.2143555,171.2587891 L439.2143555,174.2470703 L442.8178711,174.2470703 L442.8178711,177.5576172 L439.2143555,177.5576172 L439.2143555,181.2197266 C440.2104492,180.4384766 441.2260742,179.5986328 442.2612305,178.7001953 C442.3393555,180.2822266 442.5151367,181.7470703 442.7885742,183.0947266 C440.190918,184.8330078 438.1694336,186.4248047 436.7241211,187.8701172 L434.7319336,184.9697266 C435.2592773,184.4423828 435.5229492,183.6025391 435.5229492,182.4501953 L435.5229492,177.5576172 L432.2124023,177.5576172 L432.2124023,174.2470703 L435.5229492,174.2470703 L435.5229492,171.2587891 L434.5561523,171.2587891 C434.1655273,171.9326172 433.7553711,172.5673828 433.3256836,173.1630859 C433.0131836,171.6396484 432.612793,170.0673828 432.1245117,168.4462891 C433.5698242,165.8486328 434.6635742,162.6650391 435.4057617,158.8955078 L438.9213867,159.4814453 C438.6772461,160.5556641 438.4135742,161.5908203 438.1303711,162.5869141 L442.3491211,162.5869141 Z M442.8764648,168.2705078 L446.2749023,168.2705078 L446.2749023,165.7509766 L443.6381836,165.7509766 L443.6381836,162.5869141 L446.2749023,162.5869141 L446.2749023,159.1298828 L450.0249023,159.1298828 L450.0249023,162.5869141 L454.0385742,162.5869141 L454.0385742,159.1591797 L457.7885742,159.1591797 L457.7885742,162.5869141 L460.5131836,162.5869141 L460.5131836,165.7509766 L457.7885742,165.7509766 L457.7885742,168.2705078 L461.1577148,168.2705078 L461.1577148,171.4345703 L442.8764648,171.4345703 Z M450.0249023,168.2705078 L454.0385742,168.2705078 L454.0385742,165.7509766 L450.0249023,165.7509766 Z M444.0483398,187.8408203 L444.0483398,172.9580078 L459.956543,172.9580078 L459.956543,187.7822266 L456.206543,187.7822266 L456.206543,186.3759766 L447.7983398,186.3759766 L447.7983398,187.8408203 Z M456.206543,176.1220703 L447.7983398,176.1220703 L447.7983398,178.1435547 L456.206543,178.1435547 Z M447.7983398,183.2119141 L456.206543,183.2119141 L456.206543,181.1904297 L447.7983398,181.1904297 Z M467.5884094,159.0419922 C468.9946594,160.8974609 470.254425,162.6943359 471.3677063,164.4326172 L467.5884094,166.6884766 C466.6704407,164.9501953 465.4888,163.0849609 464.0434875,161.0927734 Z M473.1548157,160.2431641 L490.4985352,160.2431641 L490.4985352,169.6181641 L473.1548157,169.6181641 Z M486.6020508,163.6416016 L477.0805969,163.6416016 L477.0805969,166.2197266 L486.6020508,166.2197266 Z M471.2212219,178.2607422 C471.2016602,180.0576172 471.3286133,181.5712891 471.6020813,182.8017578 C469.785675,184.1103516 468.2720032,185.3798828 467.0610657,186.6103516 L464.8345032,183.7099609 C465.3032532,183.2412109 465.5376282,182.4599609 465.5376282,181.3662109 L465.5376282,172.6357422 L463.1645813,172.6357422 L463.1645813,168.8271484 L469.4927063,168.8271484 L469.4927063,179.9306641 C470.1567688,179.3056641 470.7329102,178.7490234 471.2212219,178.2607422 Z M491.1137695,174.6865234 L483.5258789,174.6865234 C483.5258789,175.4873047 483.4770508,176.2294922 483.3793945,176.9130859 L492.1098633,176.9130859 L492.1098633,180.2236328 L484.9907227,180.2236328 C486.6606445,182.0986328 489.0825195,183.3486328 492.2563477,183.9736328 C491.4555664,185.2236328 490.684082,186.5517578 489.9418945,187.9580078 C486.465332,186.7958984 483.8041992,184.6425781 481.9584961,181.4980469 C480.2495117,184.6425781 477.1391907,186.8447266 472.6274719,188.1044922 C472.0805664,187.0498047 471.2993164,185.8095703 470.2837219,184.3837891 C474.3266602,183.6025391 477.0268555,182.2158203 478.3842773,180.2236328 L471.6899719,180.2236328 L471.6899719,176.9130859 L479.7172852,176.9130859 C479.8442383,176.2197266 479.9125977,175.4775391 479.9223633,174.6865234 L472.5395813,174.6865234 L472.5395813,171.3759766 L491.1137695,171.3759766 Z M510.4057617,158.8955078 L514.5952148,159.5400391 C514.3706055,160.5556641 514.121582,161.5517578 513.8481445,162.5283203 L522.6518555,162.5283203 L522.6518555,166.2783203 L512.5737305,166.2783203 C511.7143555,168.4658203 510.6791992,170.5556641 509.4682617,172.5478516 C508.550293,171.9423828 507.534668,171.3564453 506.4213867,170.7900391 L506.4213867,174.3056641 L502.3198242,174.3056641 L502.3198242,159.0419922 L506.4213867,159.0419922 L506.4213867,169.4423828 C508.3842773,166.1611328 509.7124023,162.6455078 510.4057617,158.8955078 Z M496.0795898,160.3017578 L500.1225586,160.3017578 L500.1225586,173.1923828 L496.0795898,173.1923828 Z M514.8588867,166.8056641 C517.3198242,168.6416016 519.253418,170.2041016 520.659668,171.4931641 L517.7299805,174.5693359 C516.1870117,173.0458984 514.3510742,171.4345703 512.222168,169.7353516 Z M493.9702454,183.2705078 L496.8999023,183.2705078 L496.8999023,174.7158203 L520.1616211,174.7158203 L520.1616211,183.2705078 L523.0913086,183.2705078 L523.0913086,186.9326172 L493.9702454,186.9326172 Z M516.0307617,178.2900391 L513.5698242,178.2900391 L513.5698242,183.2705078 L516.0307617,183.2705078 Z M501.0307617,183.2705078 L503.4916992,183.2705078 L503.4916992,178.2900391 L501.0307617,178.2900391 Z M507.300293,183.2705078 L509.7612305,183.2705078 L509.7612305,178.2900391 L507.300293,178.2900391 Z M534.5024414,162.4404297 L541.5629883,162.4404297 L540.8012695,159.8916016 L544.9614258,159.1005859 C545.3032227,160.2333984 545.6010742,161.3466797 545.8549805,162.4404297 L553.1938477,162.4404297 L553.1938477,168.3583984 L549.5024414,168.3583984 L549.5024414,166.0146484 L538.1938477,166.0146484 L538.1938477,168.3583984 L534.5024414,168.3583984 Z M525.0688477,164.5205078 L527.7641602,164.5205078 L527.7641602,159.3056641 L531.309082,159.3056641 L531.309082,164.5205078 L533.3012695,164.5205078 L533.3012695,168.2705078 L531.309082,168.2705078 L531.309082,172.6796875 L533.5063477,172.1376953 C533.3500977,173.4658203 533.3110352,174.7939453 533.3891602,176.1220703 L531.309082,176.6933594 L531.309082,184.2958984 C531.309082,185.2724609 531.1430664,186.0268555 530.8110352,186.559082 C530.4790039,187.0913086 530.0078125,187.4111328 529.3974609,187.5185547 C528.7871094,187.6259766 527.559082,187.7041016 525.7133789,187.7529297 C525.5571289,186.6005859 525.293457,185.3212891 524.9223633,183.9150391 C525.4301758,183.9736328 526.1137695,184.0029297 526.9731445,184.0029297 C527.480957,184.0029297 527.7446289,183.5927734 527.7641602,182.7724609 L527.7641602,177.6308594 L524.980957,178.3486328 L524.746582,174.1298828 C525.7133789,173.9443359 526.7192383,173.734375 527.7641602,173.5 L527.7641602,168.2705078 L525.0688477,168.2705078 Z M542.8227539,169.8818359 L536.1430664,174.8037109 L533.7407227,172.0498047 C535.6743164,170.7802734 537.8227539,169.2080078 540.1860352,167.3330078 Z M544.5219727,169.9111328 L547.012207,167.4208984 C548.8481445,168.6904297 551.0258789,170.2724609 553.5454102,172.1669922 L550.996582,174.9208984 C550.1958008,174.2763672 548.0375977,172.6064453 544.5219727,169.9111328 Z M535.2055664,175.0966797 L552.0805664,175.0966797 L552.0805664,178.6708984 L545.5180664,178.6708984 L545.5180664,183.1240234 L553.6040039,183.1240234 L553.6040039,186.6982422 L533.4477539,186.6982422 L533.4477539,183.1240234 L541.7680664,183.1240234 L541.7680664,178.6708984 L535.2055664,178.6708984 Z" style="fill:rgb(55,96,146);stroke:none" clip-path="url(#clip10)" />
<clipPath id="clip11"><path d="M630,65 L707,65 L707,117 L630,117 L630,65 Z" /></clipPath>
<path d="M637,67 C634.2385864,67 632,69.2385712 632,72 L632,109 C632,111.7614288 634.2385864,114 637,114 L699,114 C701.7614136,114 704,111.7614288 704,109 L704,72 C704,69.2385712 701.7614136,67 699,67 Z" style="fill:rgb(220,230,242);stroke:none" clip-path="url(#clip11)" />
<clipPath id="clip12"><path d="M630,65 L707,65 L707,117 L630,117 L630,65 Z" /></clipPath>
<path d="M637,67 C634.2385864,67 632,69.2385712 632,72 L632,109 C632,111.7614288 634.2385864,114 637,114 L699,114 C701.7614136,114 704,111.7614288 704,109 L704,72 C704,69.2385712 701.7614136,67 699,67 Z" style="fill:none;stroke:rgb(85,142,213);stroke-width:2" clip-path="url(#clip12)" />
<clipPath id="clip13"><path d="M644,74 L693,74 L693,108 L644,108 L644,74 Z" /></clipPath>
<path d="M646.8411865,96.4169922 C647.4570923,96.340004 648.0869751,96.2595215 648.730835,96.1755371 L648.730835,83.1894531 L647.1561279,83.1894531 L647.1561279,81.7197266 L657.4442139,81.7197266 L657.4442139,82.4545898 L666.6195068,82.4545898 L666.6195068,83.7773438 C665.8076782,88.9423828 664.6109009,92.74617 663.0291748,95.1887207 C664.3519287,97.057373 665.9406738,98.5095978 667.7952881,99.5454102 C667.4033813,99.9513321 666.9764404,100.4692383 666.5145264,101.0991211 C665.0168457,100.0073242 663.5401001,98.4816055 662.0843506,96.5219727 C660.6706543,98.3766251 658.9909668,99.9863281 657.0452881,101.3510742 C656.6463623,100.8261719 656.2894287,100.3852539 655.9744873,100.0283203 L655.9744873,101.3300781 L654.3997803,101.3300781 L654.3997803,96.7844238 C651.8452759,97.1833496 649.40271,97.5787735 647.0721436,97.9707031 Z M657.2762451,83.8823242 L657.2762451,83.1894531 L655.9744873,83.1894531 L655.9744873,95.1257324 C656.7583618,94.9997559 657.5562134,94.8702774 658.368042,94.7373047 C658.3260498,95.3111954 658.3050537,95.7941055 658.3050537,96.1860352 C657.5142212,96.3050079 656.7373657,96.4239883 655.9744873,96.5429688 L655.9744873,99.9233398 C657.9341431,98.7755508 659.6628418,97.1973419 661.1605225,95.1887207 C659.5438232,92.6131973 658.5045166,88.8443985 658.0426025,83.8823242 Z M665.0447998,83.8823242 L659.5648193,83.8823242 C659.8937988,87.9765625 660.7476196,91.2729492 662.1263428,93.7714844 C663.3441162,91.7208633 664.3169556,88.4244766 665.0447998,83.8823242 Z M654.3997803,95.3671875 L654.3997803,92.3017578 L650.305542,92.3017578 L650.305542,95.9655762 C651.6143188,95.7766113 652.9790649,95.5771484 654.3997803,95.3671875 Z M650.305542,90.9580078 L654.3997803,90.9580078 L654.3997803,87.7456055 L650.305542,87.7456055 Z M650.305542,86.4018555 L654.3997803,86.4018555 L654.3997803,83.1894531 L650.305542,83.1894531 Z M677.1280518,101.2670898 L675.4693604,101.2670898 L675.4693604,86.5908203 L681.22229,86.5908203 L681.22229,80.6489258 L682.9649658,80.6489258 L682.9649658,86.5908203 L688.5919189,86.5908203 L688.5919189,98.7265625 C688.5919189,100.3642502 687.8081055,101.1830978 686.2403564,101.1831055 C685.3305664,101.1830978 684.119751,101.1621017 682.6080322,101.1201172 C682.5240479,100.602211 682.4190674,100.0283127 682.2930908,99.3984375 C683.678833,99.4824219 684.7776489,99.5244141 685.5894775,99.5244141 C686.4853516,99.5244141 686.9332275,99.1394806 686.9332275,98.3696289 L686.9332275,96.375 L677.1280518,96.375 Z M677.1280518,94.8632813 L686.9332275,94.8632813 L686.9332275,92.2597656 L677.1280518,92.2597656 Z M686.9332275,88.1655273 L677.1280518,88.1655273 L677.1280518,90.7480469 L686.9332275,90.7480469 Z M671.5220947,92.4697266 C672.0960083,92.6936798 672.6699219,92.9036407 673.2437744,93.0996094 C672.5579224,95.8850861 671.9140625,98.586586 671.3121338,101.2041016 L669.4644775,100.6582031 C670.2203369,98.1666641 670.90625,95.4371719 671.5220947,92.4697266 Z M684.6446533,84.8061523 C685.7084961,83.7283478 686.7092896,82.5385742 687.6470947,81.2368164 L689.1588135,82.3916016 C688.2769775,83.4274063 687.1851807,84.5961914 685.8834229,85.8979492 Z M670.0313721,86.4018555 C671.0811768,87.1437149 672.3129883,88.0955353 673.7266846,89.2573242 C673.2088013,89.8452148 672.8028564,90.3001251 672.5089111,90.6220703 C670.9272461,89.2083282 669.7514648,88.2075195 668.9815674,87.6196289 Z M670.8292236,80.9638672 C671.8930664,81.8037109 673.0968018,82.8255157 674.4405518,84.0292969 C673.9646606,84.5192032 673.5517578,84.953125 673.2017822,85.3310547 C671.6900635,83.8613281 670.5422974,82.7905273 669.7584229,82.1186523 Z M675.175415,82.2026367 L676.3931885,81.2368164 C677.0371094,81.824707 678.1079102,82.9654922 679.6055908,84.6591797 L678.1778564,85.7509766 C676.8061523,84.0292969 675.8052979,82.8465118 675.175415,82.2026367 Z" style="fill:rgb(23,55,94);stroke:none" clip-path="url(#clip13)" />
<clipPath id="clip14"><path d="M651,147 L771,147 L771,199 L651,199 L651,147 Z" /></clipPath>
<path d="M658,149 C655.2385864,149 653,151.2385712 653,154 L653,191 C653,193.7614288 655.2385864,196 658,196 L763,196 C765.7614136,196 768,193.7614288 768,191 L768,154 C768,151.2385712 765.7614136,149 763,149 Z" style="fill:rgb(220,230,242);stroke:none" clip-path="url(#clip14)" />
<clipPath id="clip15"><path d="M651,147 L771,147 L771,199 L651,199 L651,147 Z" /></clipPath>
<path d="M658,149 C655.2385864,149 653,151.2385712 653,154 L653,191 C653,193.7614288 655.2385864,196 658,196 L763,196 C765.7614136,196 768,193.7614288 768,191 L768,154 C768,151.2385712 765.7614136,149 763,149 Z" style="fill:none;stroke:rgb(85,142,213);stroke-width:2" clip-path="url(#clip15)" />
<clipPath id="clip16"><path d="M665,156 L757,156 L757,190 L665,190 L665,156 Z" /></clipPath>
<path d="M669.8358154,168.3283691 L671.074585,167.6774902 C671.9074707,169.0002441 672.7368164,170.3509979 673.5626221,171.7297363 C674.2415161,170.2670135 674.8259277,168.8112793 675.3157959,167.3625488 L676.7435303,167.8874512 C676.0506592,169.7700958 675.2878418,171.5582733 674.4549561,173.2519531 C675.2598267,174.623703 676.0576782,176.0269318 676.8485107,177.4616699 L675.4207764,178.2175293 C674.8399048,177.1117401 674.2415161,175.9989471 673.6256104,174.8791504 C672.7647705,176.4958496 671.8374634,178.0215607 670.8436279,179.4562988 L669.5838623,178.7319336 L669.5838623,183.1096191 L668.0091553,183.1096191 L668.0091553,163.9191895 L685.8978271,163.9191895 L685.8978271,180.7580566 C685.8978271,182.2557831 685.0930176,183.0046387 683.4832764,183.0046387 C682.5874634,183.0046387 681.5166626,182.9906464 680.270874,182.9626465 C680.2009277,182.5147247 680.1029053,181.9688263 679.9769287,181.3249512 C681.15271,181.4229279 682.1535645,181.4719238 682.9793701,181.4719238 C683.8752441,181.4719238 684.3231201,181.0869904 684.3231201,180.3171387 L684.3231201,165.4309082 L669.5838623,165.4309082 L669.5838623,178.6374512 C670.7876587,176.8667755 671.8479614,175.0996094 672.7647705,173.3359375 C671.8339844,171.6772461 670.857666,170.0080566 669.8358154,168.3283691 Z M676.8275146,169.3361816 L678.0452881,168.6223145 C678.7451782,169.7561035 679.4695435,170.9563751 680.2183838,172.2231445 C681.0232544,170.6204376 681.7056274,169.0422363 682.2655029,167.4885254 L683.6932373,168.0344238 C682.9024048,170.0290527 682.0380859,171.9326935 681.1002197,173.7453613 C681.9820557,175.2570801 682.8953857,176.859787 683.84021,178.5534668 L682.4334717,179.3513184 C681.7336426,178.0215607 681.0057373,176.6778107 680.2498779,175.3200684 C679.3820801,176.8737793 678.458252,178.3505096 677.4783936,179.7502441 L676.1976318,178.9313965 C677.4014282,177.1887207 678.46521,175.4740448 679.3890381,173.7873535 C678.5701904,172.317627 677.7163696,170.8339081 676.8275146,169.3361816 Z M695.9024658,169.6721191 C697.6241455,167.2925568 698.9119263,164.9130096 699.7657471,162.5334473 L701.3404541,163.0583496 C701.0675049,163.7022247 700.7840576,164.325119 700.4901123,164.927002 L707.9962158,164.927002 L707.9962158,166.4177246 C706.9814453,168.1604004 705.6936646,169.7036133 704.1329346,171.0473633 C705.4837036,171.8732147 707.2963867,172.618576 709.5709229,173.2834473 C709.2910156,173.7733612 709.0110474,174.3752441 708.7310791,175.0891113 C706.4145508,174.284256 704.4338989,173.2764435 702.7891846,172.0656738 C700.9065552,173.381424 698.8209229,174.4732208 696.5323486,175.3410645 C696.2384033,174.8651581 695.9024658,174.3752441 695.5245361,173.8713379 C697.6731567,173.1434784 699.6607666,172.1776581 701.4874268,170.973877 C700.4446411,169.9940643 699.6152954,168.919754 698.9993896,167.7509766 C698.3625488,168.8357697 697.6941528,169.8470917 696.9942627,170.7849121 C696.7283325,170.4769745 696.3643799,170.1060333 695.9024658,169.6721191 Z M697.519165,175.236084 L707.8912354,175.236084 L707.8912354,183.4035645 L706.2745361,183.4035645 L706.2745361,182.3537598 L699.1358643,182.3537598 L699.1358643,183.4035645 L697.519165,183.4035645 Z M691.3883057,175.1311035 C692.8440552,174.9911346 694.2227783,174.8301544 695.5245361,174.6481934 C695.4685669,175.2780762 695.4195557,175.7539825 695.3775635,176.0759277 C692.9000244,176.3838654 690.9544067,176.6428223 689.5406494,176.8527832 L689.2047119,175.3200684 C690.0095825,174.7321777 691.1363525,173.1854706 692.585083,170.6799316 C691.2483521,170.7709198 690.1635742,170.8549042 689.3306885,170.9318848 L688.9107666,169.5461426 C690.2545166,167.4885254 691.3953247,165.227951 692.3331299,162.7644043 L693.9708252,163.3522949 C693.03302,165.3539276 691.9412231,167.3765411 690.6954346,169.420166 C691.2483521,169.420166 692.1231689,169.4061737 693.3199463,169.3781738 C693.8308716,168.4543457 694.37677,167.4255371 694.9576416,166.291748 L696.5113525,166.963623 C694.831665,169.9450684 693.1240234,172.6675568 691.3883057,175.1311035 Z M706.2745361,176.7478027 L699.1358643,176.7478027 L699.1358643,180.842041 L706.2745361,180.842041 Z M706.0855713,166.3547363 L699.8497314,166.3547363 C700.6055908,167.796463 701.5749512,169.0317383 702.7576904,170.0605469 C704.1084595,168.9757538 705.2177734,167.7404785 706.0855713,166.3547363 Z M688.9107666,180.0441895 C691.234375,179.5962677 693.6558838,179.0783691 696.175415,178.4904785 C696.1194458,179.1623535 696.0914307,179.6942596 696.0914307,180.0861816 C693.8518677,180.5900879 691.6123047,181.1289825 689.3726807,181.7028809 Z M716.321167,172.0026855 L727.4700928,172.0026855 C728.5478516,172.0026855 729.1848145,171.6317596 729.3807373,170.8898926 C729.5487061,170.302002 729.7026367,169.5251465 729.8426514,168.5593262 C730.3605957,168.7832794 730.9134521,169.0002441 731.5013428,169.2102051 C731.2353516,170.3579865 731.0394287,171.1348419 730.9134521,171.5407715 C730.5495605,172.828537 729.52771,173.4724121 727.8480225,173.4724121 L715.9432373,173.4724121 C714.1516113,173.4724121 713.2557373,172.5625763 713.2557373,170.7429199 L713.2557373,163.7092285 L728.4359131,163.7092285 L728.4359131,170.092041 L726.8192139,170.092041 L726.8192139,169.3781738 L714.8724365,169.3781738 L714.8724365,170.5749512 C714.8724365,171.5267792 715.3553467,172.0026855 716.321167,172.0026855 Z M724.8035889,174.1022949 L726.4622803,174.1022949 L726.4622803,176.6008301 L731.5013428,176.6008301 L731.5013428,178.0705566 L726.4622803,178.0705566 L726.4622803,183.3825684 L724.8035889,183.3825684 L724.8035889,178.0705566 L717.6439209,178.0705566 C717.4759521,180.450119 715.8382568,182.2487793 712.730835,183.4665527 C712.3948975,183.0326385 712.0100098,182.5567169 711.5760498,182.0388184 C714.305542,181.1009979 715.7647705,179.778244 715.9537354,178.0705566 L710.9881592,178.0705566 L710.9881592,176.6008301 L716.1427002,176.6008301 C716.1987305,175.8799591 716.2232056,175.0401154 716.2161865,174.0812988 L717.8748779,174.0812988 C717.8748779,175.0191193 717.8504028,175.858963 717.8013916,176.6008301 L724.8035889,176.6008301 Z M714.8724365,165.157959 L714.8724365,167.9294434 L726.8192139,167.9294434 L726.8192139,165.157959 Z M736.7188721,181.8078613 L735.0811768,181.8078613 L735.0811768,175.8239746 L742.5977783,175.8239746 L742.5977783,173.8503418 L738.4825439,173.8503418 L738.4825439,174.6062012 L736.8868408,174.6062012 L736.8868408,169.2521973 L750.0303955,169.2521973 L750.0303955,174.6062012 L748.4346924,174.6062012 L748.4346924,173.8503418 L744.2774658,173.8503418 L744.2774658,175.8239746 L751.9830322,175.8239746 L751.9830322,179.4143066 C751.9830322,181.0240021 751.1361694,181.8288574 749.4425049,181.8288574 C748.7286377,181.8288574 747.90979,181.8218536 746.9859619,181.8078613 C746.9019775,181.3179474 746.7969971,180.7790527 746.6710205,180.1911621 C747.5248413,180.2751465 748.3156738,180.3171387 749.0435791,180.3171387 C749.911377,180.3171387 750.3453369,179.939209 750.3453369,179.1833496 L750.3453369,177.2097168 L744.2774658,177.2097168 L744.2774658,183.4245605 L742.5977783,183.4245605 L742.5977783,177.2097168 L736.7188721,177.2097168 Z M733.8424072,166.3967285 L738.7869873,166.3967285 C737.8491211,165.598877 736.8728027,164.8290253 735.8580322,164.0871582 L736.8238525,162.9953613 C737.8736572,163.6952362 738.9304199,164.4300995 739.9942627,165.1999512 L738.8709717,166.3967285 L742.5767822,166.3967285 L742.5767822,162.7224121 L744.2564697,162.7224121 L744.2564697,166.3967285 L747.7208252,166.3967285 L746.8809814,165.3469238 C748.0287476,164.5910645 749.1205444,163.7862091 750.1563721,162.932373 L751.3741455,164.1711426 C750.373291,164.9130096 749.3165283,165.6548615 748.2037354,166.3967285 L752.9908447,166.3967285 L752.9908447,170.1130371 L751.3531494,170.1130371 L751.3531494,167.8244629 L735.4801025,167.8244629 L735.4801025,170.1130371 L733.8424072,170.1130371 Z M748.4346924,170.5959473 L738.4825439,170.5959473 L738.4825439,172.5065918 L748.4346924,172.5065918 Z" style="fill:rgb(23,55,94);stroke:none" clip-path="url(#clip16)" />
<clipPath id="clip17"><path d="M630,229 L752,229 L752,281 L630,281 L630,229 Z" /></clipPath>
<path d="M637,231 C634.2385864,231 632,233.2385712 632,236 L632,273 C632,275.7614136 634.2385864,278 637,278 L744,278 C746.7614136,278 749,275.7614136 749,273 L749,236 C749,233.2385712 746.7614136,231 744,231 Z" style="fill:rgb(220,230,242);stroke:none" clip-path="url(#clip17)" />
<clipPath id="clip18"><path d="M630,229 L752,229 L752,281 L630,281 L630,229 Z" /></clipPath>
<path d="M637,231 C634.2385864,231 632,233.2385712 632,236 L632,273 C632,275.7614136 634.2385864,278 637,278 L744,278 C746.7614136,278 749,275.7614136 749,273 L749,236 C749,233.2385712 746.7614136,231 744,231 Z" style="fill:none;stroke:rgb(85,142,213);stroke-width:2" clip-path="url(#clip18)" />
<clipPath id="clip19"><path d="M644,238 L738,238 L738,272 L644,272 L644,238 Z" /></clipPath>
<path d="M655.8511963,265.2145996 L654.213501,265.2145996 L654.213501,254.5695801 L665.8873291,254.5695801 L665.8873291,262.7370605 C665.8873291,264.2487793 665.1104736,265.0116272 663.5567627,265.0256348 C662.730957,265.0396118 661.6741333,265.0466309 660.3863525,265.0466309 C660.3164063,264.5986938 660.2114258,264.0598145 660.0714111,263.4299316 C661.2891846,263.513916 662.28302,263.5559082 663.0528564,263.5559082 C663.850708,263.5559082 664.2496338,263.1919556 664.2496338,262.4641113 L664.2496338,261.4143066 L655.8511963,261.4143066 Z M652.3658447,251.9660645 L659.147583,251.9660645 L659.147583,250.517334 L653.772583,250.517334 L653.772583,249.1945801 L659.147583,249.1945801 L659.147583,247.7878418 L653.0377197,247.7878418 L653.0377197,246.4650879 L659.147583,246.4650879 L659.147583,244.5754395 L660.8482666,244.5754395 L660.8482666,246.4650879 L667.2520752,246.4650879 L667.2520752,247.7878418 L660.8482666,247.7878418 L660.8482666,249.1945801 L666.7061768,249.1945801 L666.7061768,250.517334 L660.8482666,250.517334 L660.8482666,251.9660645 L667.6719971,251.9660645 L667.6719971,253.2888184 L652.3658447,253.2888184 Z M653.3946533,260.0285645 C653.4366455,260.7284241 653.4856567,261.3373108 653.541626,261.8552246 C652.0299072,262.8630371 650.7491455,263.7728577 649.6993408,264.5847168 L648.7335205,263.1989746 C649.2094727,262.7510376 649.4473877,262.1421509 649.4473877,261.3723145 L649.4473877,253.435791 L646.8858643,253.435791 L646.8858643,251.9030762 L651.0430908,251.9030762 L651.0430908,261.6872559 C651.8269653,261.1553345 652.6108398,260.6024475 653.3946533,260.0285645 Z M664.2496338,255.9133301 L655.8511963,255.9133301 L655.8511963,257.3620605 L664.2496338,257.3620605 Z M655.8511963,260.1125488 L664.2496338,260.1125488 L664.2496338,258.6638184 L655.8511963,258.6638184 Z M649.2584229,245.2893066 C650.40625,246.4230957 651.4210205,247.4798889 652.3028564,248.4597168 L650.8331299,249.6774902 C649.8673096,248.4317169 648.9224854,247.3259277 647.9986572,246.3601074 Z M669.3831787,248.5227051 L678.6004639,248.5227051 L678.6004639,244.7224121 L680.3641357,244.7224121 L680.3641357,248.5227051 L689.5394287,248.5227051 L689.5394287,250.0344238 L680.3641357,250.0344238 L680.3641357,251.3361816 C681.0500488,252.9038849 681.8618774,254.3316193 682.7996826,255.6193848 C684.2554321,254.3596191 685.6271973,252.9598694 686.914917,251.420166 L688.4056396,252.6589355 C686.68396,254.3666077 685.1582642,255.7803497 683.8284912,256.9001465 C685.5081787,258.8597717 687.5168457,260.4274902 689.8543701,261.6032715 C689.3364868,262.2051392 688.9165649,262.7510376 688.5946045,263.2409668 C684.9832764,261.1273499 682.2398071,258.2998657 680.3641357,254.7585449 L680.3641357,262.4641113 C680.3641357,264.2697754 679.4193115,265.1726074 677.5296631,265.1726074 C676.5218506,265.1726074 675.5910645,265.1585999 674.7371826,265.1306152 C674.6531982,264.5567017 674.5412598,263.9338379 674.4012451,263.2619629 C675.5070801,263.3879395 676.4099121,263.4509277 677.1097412,263.4509277 C678.1035767,263.4509277 678.6004639,262.9400024 678.6004639,261.9182129 L678.6004639,257.9499512 C675.2971191,259.6436157 672.4206543,261.1833496 669.9710693,262.5690918 L669.0682373,260.8474121 C671.9937134,259.4896545 675.1711426,257.8729553 678.6004639,255.9973145 L678.6004639,250.0344238 L669.3831787,250.0344238 Z M672.4696045,251.2941895 C673.5894165,252.3999786 674.7302246,253.6387482 675.8919678,255.010498 C675.4580688,255.3744202 674.9751587,255.7663574 674.4432373,256.1862793 C673.4634399,254.9125061 672.3856201,253.6247559 671.2098389,252.322998 Z M682.2957764,245.8352051 L683.3035889,244.7224121 C684.6333618,245.5622559 685.6901855,246.3251038 686.473999,247.0109863 L685.34021,248.270752 C684.5144043,247.5428772 683.4995728,246.7310333 682.2957764,245.8352051 Z M691.1246338,263.4509277 C692.1884766,261.5892639 692.7623291,258.7827759 692.8463135,255.0314941 L694.4000244,255.1154785 C694.3510742,256.4802246 694.2495728,257.7399902 694.0955811,258.8947754 C694.5925293,259.9865723 695.2539063,260.8648987 696.0797119,261.5297852 L696.0797119,253.7717285 L691.2296143,253.7717285 L691.2296143,252.2390137 L695.428833,252.2390137 L695.428833,249.2365723 L691.9644775,249.2365723 L691.9644775,247.7038574 L695.428833,247.7038574 L695.428833,244.7224121 L697.0665283,244.7224121 L697.0665283,247.7038574 L700.1949463,247.7038574 L700.1949463,249.2365723 L697.0665283,249.2365723 L697.0665283,252.2390137 L700.4678955,252.2390137 L700.4678955,253.7717285 L697.6544189,253.7717285 L697.6544189,257.026123 L700.6568604,257.026123 L700.6568604,258.5378418 L697.6544189,258.5378418 L697.6544189,262.4641113 C698.6622314,262.8840332 699.8310547,263.1009827 701.1607666,263.1149902 C703.8203125,263.1569824 707.4246216,263.1289673 711.9737549,263.0310059 C711.7218018,263.6608887 711.5258789,264.2137756 711.3858643,264.6896973 C707.1586914,264.7036743 703.5753174,264.6826782 700.6358643,264.626709 C697.2554932,264.5567017 694.9564209,263.3389282 693.7386475,260.9733887 C693.3397217,262.7930298 692.7763672,264.2767639 692.0484619,265.4245605 C691.7685547,264.7666626 691.4605713,264.1087952 691.1246338,263.4509277 Z M701.7696533,254.338623 L710.5460205,254.338623 L710.5460205,261.8552246 L708.9923096,261.8552246 L708.9923096,260.9523926 L703.3233643,260.9523926 L703.3233643,261.9812012 L701.7696533,261.9812012 Z M700.7408447,247.0529785 L700.7408447,245.6252441 L710.7769775,245.6252441 C710.7070313,247.5428772 710.6090088,249.1525879 710.4830322,250.4543457 C710.3291016,252.0640411 709.4962158,252.8898926 707.9844971,252.9318848 C707.2286377,252.9458771 706.3538208,252.924881 705.3599854,252.8688965 C705.276001,252.3509827 705.1710205,251.7910919 705.0450439,251.189209 C706.0808716,251.3571777 706.9556885,251.4341583 707.6695557,251.420166 C708.4674072,251.420166 708.9083252,250.9722443 708.9923096,250.076416 C709.090332,249.2785645 709.1602783,248.270752 709.2022705,247.0529785 L705.2235107,247.0529785 C705.1045532,250.2163849 703.925293,252.4279785 701.6856689,253.6877441 C701.4197388,253.2538147 701.0767822,252.8059082 700.6568604,252.3439941 C702.6025391,251.2801819 703.5963135,249.51651 703.6383057,247.0529785 Z M708.9923096,255.7663574 L703.3233643,255.7663574 L703.3233643,259.5246582 L708.9923096,259.5246582 Z M714.0628662,246.6750488 L721.3065186,246.6750488 L721.3065186,263.7868652 L719.6478271,263.7868652 L719.6478271,262.0441895 L715.7215576,262.0441895 L715.7215576,264.0388184 L714.0628662,264.0388184 Z M721.9993896,249.3205566 L729.4530029,249.3205566 L729.4530029,244.6804199 L731.1326904,244.6804199 L731.1326904,249.3205566 L734.1141357,249.3205566 L734.1141357,250.8742676 L731.1326904,250.8742676 L731.1326904,262.170166 C731.1326904,264.0458069 730.2368164,264.9836426 728.4451904,264.9836426 C727.6333008,264.9836426 726.4436035,264.9626465 724.8758545,264.9206543 C724.8059082,264.416748 724.6938477,263.8288574 724.539917,263.1569824 C726.0096436,263.2689514 727.1574707,263.3249512 727.9832764,263.3249512 C728.9631348,263.3249512 729.4530029,262.8280334 729.4530029,261.8342285 L729.4530029,250.8742676 L721.9993896,250.8742676 Z M715.7215576,260.4904785 L719.6478271,260.4904785 L719.6478271,255.0524902 L715.7215576,255.0524902 Z M719.6478271,248.2287598 L715.7215576,248.2287598 L715.7215576,253.5407715 L719.6478271,253.5407715 Z M724.3509521,252.8898926 C725.4707031,254.9335022 726.317627,256.564209 726.8914795,257.7819824 C726.5275879,257.9499512 725.9676514,258.2298889 725.211792,258.6218262 C724.6658936,257.2920532 723.8820801,255.6333771 722.8602295,253.645752 Z" style="fill:rgb(23,55,94);stroke:none" clip-path="url(#clip19)" />
<clipPath id="clip20"><path d="M191,280 L334,280 L334,332 L191,332 L191,280 Z" /></clipPath>
<path d="M198,282 C195.2385864,282 193,284.2385864 193,287 L193,324 C193,326.7614136 195.2385864,329 198,329 L326,329 C328.7614136,329 331,326.7614136 331,324 L331,287 C331,284.2385864 328.7614136,282 326,282 Z" style="fill:rgb(220,230,242);stroke:none" clip-path="url(#clip20)" />
<clipPath id="clip21"><path d="M191,280 L334,280 L334,332 L191,332 L191,280 Z" /></clipPath>
<path d="M198,282 C195.2385864,282 193,284.2385864 193,287 L193,324 C193,326.7614136 195.2385864,329 198,329 L326,329 C328.7614136,329 331,326.7614136 331,324 L331,287 C331,284.2385864 328.7614136,282 326,282 Z" style="fill:none;stroke:rgb(85,142,213);stroke-width:2" clip-path="url(#clip21)" />
<clipPath id="clip22"><path d="M205,289 L320,289 L320,323 L205,323 L205,289 Z" /></clipPath>
<path d="M216.8164063,296.9506836 L227.1884766,296.9506836 C227.1184845,298.0844727 227.0625,298.9802856 227.0205078,299.6381836 C226.9085236,301.8077698 225.8027344,302.871582 223.703125,302.8295898 C223.1292267,302.8155823 222.2263947,302.7875977 220.9946289,302.7456055 C220.9106445,302.199707 220.8196564,301.6467896 220.7216797,301.0869141 C221.7574768,301.2128906 222.6883087,301.289856 223.5141602,301.3178711 C224.717926,301.3598633 225.3688049,300.7859497 225.4667969,299.5961914 C225.5087891,299.2322388 225.5437775,298.833313 225.5717773,298.3994141 L218.4121094,298.3994141 L218.4121094,304.4462891 L227.2724609,304.4462891 L227.2724609,305.6850586 C226.7125549,308.1416016 225.6872406,310.2796936 224.1965332,312.0993652 C225.4073029,313.2471313 226.9085236,314.1394653 228.7001953,314.7763672 C228.2242737,315.3362427 227.8183594,315.8401489 227.4824219,316.2880859 C225.7607422,315.4832153 224.3015137,314.4824219 223.1047363,313.2856445 C222.0339355,314.3424377 220.7776642,315.2732544 219.3359375,316.078125 C219.0699768,315.6162109 218.7830353,315.1542969 218.4750977,314.6923828 C219.8748322,313.9785156 221.0821075,313.1246643 222.0969238,312.1308594 C220.7321777,310.3811646 219.83284,308.2745667 219.3989258,305.8110352 L218.4121094,305.8110352 L218.4121094,316.2460938 L216.8164063,316.2460938 Z M209.152832,296.8666992 L215.0737305,296.8666992 L215.0737305,313.8945313 C215.0737305,315.2942505 214.4228516,315.9941406 213.1210938,315.9941406 C212.4072266,315.9941406 211.7423401,315.9731445 211.1264648,315.9311523 C211.0704651,315.5112305 210.9864807,315.0143127 210.8745117,314.4404297 C211.5883636,314.5523987 212.2042542,314.6083984 212.722168,314.6083984 C213.296051,314.6083984 213.5830078,314.3214417 213.5830078,313.7475586 L213.5830078,308.918457 L210.6435547,308.918457 C210.6855469,312.1378479 210.1046448,314.5943909 208.9008789,316.2880859 C208.592926,315.8821411 208.2079926,315.4902344 207.7460938,315.1123047 C208.6839142,313.6705627 209.152832,311.6269531 209.152832,308.9814453 Z M225.6137695,305.8110352 L220.8371582,305.8110352 C221.2710724,307.8266602 222.0444336,309.5413208 223.1572266,310.9550781 C224.3119965,309.4923401 225.1308441,307.7776489 225.6137695,305.8110352 Z M210.6435547,307.6166992 L213.5830078,307.6166992 L213.5830078,303.5644531 L210.6435547,303.5644531 Z M213.5830078,298.2314453 L210.6435547,298.2314453 L210.6435547,302.2626953 L213.5830078,302.2626953 Z M235.8703613,295.4389648 L237.4450684,296.1108398 C237.130127,296.6287231 236.801178,297.1326294 236.458252,297.6225586 L247.8171387,297.6225586 L247.8171387,299.0292969 C246.5153656,300.6109924 244.7342072,301.9932251 242.4736328,303.1760254 C244.8251953,304.0298462 247.6281738,304.5582581 250.8825684,304.7612305 C250.4346466,305.3911133 250.0427094,305.9790039 249.7067871,306.5249023 C246.0604553,306.0419922 243.0020294,305.2266235 240.5314941,304.0788574 C237.753006,305.2616272 234.393631,306.1959534 230.4533691,306.8818359 C230.2154083,306.4479065 229.9284515,305.9580078 229.5925293,305.4121094 C233.098877,304.8731995 236.1433105,304.1103516 238.7258301,303.1235352 C237.130127,302.1506958 235.8528595,300.9994202 234.894043,299.6696777 C233.8092346,300.957428 232.608963,302.1506958 231.2932129,303.2495117 C230.873291,302.8015747 230.4883575,302.423645 230.1384277,302.1157227 C232.7139435,300.0720825 234.624588,297.8464966 235.8703613,295.4389648 Z M231.4611816,307.7426758 L237.5710449,307.7426758 C237.6690216,307.0637817 237.753006,306.3079224 237.822998,305.4750977 L239.5236816,305.4750977 C239.4326935,306.3079224 239.3382111,307.0637817 239.2402344,307.7426758 L247.7121582,307.7426758 C247.5721741,310.2481995 247.4391937,312.0048828 247.3132324,313.0126953 C247.0892639,314.9863281 245.9134827,315.9801331 243.7858887,315.9941406 C242.9600372,316.0081177 241.7212677,315.9801331 240.0695801,315.9101563 C239.9855804,315.3922424 239.8806,314.8113403 239.7546387,314.1674805 C241.3643341,314.3074341 242.6940918,314.3844299 243.7438965,314.3984375 C244.93367,314.3704224 245.5915527,313.7685547 245.7175293,312.5927734 C245.8435059,311.5429688 245.9344788,310.4231567 245.9904785,309.2333984 L238.9882813,309.2333984 C238.2464142,312.599762 235.639389,315.0422974 231.1672363,316.5610352 C230.8452911,316.0991211 230.5023499,315.630188 230.1384277,315.1542969 C234.1556702,313.8525391 236.5352325,311.8789063 237.2770996,309.2333984 L231.4611816,309.2333984 Z M245.5705566,299.0083008 L236.1958008,299.0083008 C237.3225861,300.3590393 238.7713165,301.4718323 240.5419922,302.3466797 C242.5646057,301.4018555 244.240799,300.2890625 245.5705566,299.0083008 Z M252.6357422,304.5092773 L261.1181641,304.5092773 C261.3351135,303.984375 261.4750977,303.3754883 261.5380859,302.6826172 L263.0498047,302.8925781 C262.9658203,303.4804688 262.8433228,304.0193481 262.682373,304.5092773 L267.2595215,304.5092773 C266.6996155,304.1033325 266.1082153,303.7044067 265.4853516,303.3125 L266.3461914,302.3676758 C267.2700195,302.9135742 268.1028442,303.4594727 268.8447266,304.0053711 L268.3723145,304.5092773 L272.2880859,304.5092773 L272.2880859,305.8950195 L264.1835938,305.8950195 C265.800293,307.4767151 268.6697388,308.2255859 272.7919922,308.1416016 C272.4560547,308.7154846 272.1690979,309.2543945 271.9311523,309.7583008 C271.5602112,309.7302856 271.2032776,309.6987915 270.8603516,309.6638184 L270.8603516,316.078125 L269.390625,316.078125 L269.390625,314.9233398 L264.8974609,314.9233398 L264.8974609,316.0571289 L263.4277344,316.0571289 L263.4277344,309.5693359 L270.1149902,309.5693359 C266.1117249,309.030426 263.5537109,307.8056641 262.440918,305.8950195 L262.0629883,305.8950195 C261.2791138,307.5606995 258.7385864,308.7854614 254.4414063,309.5693359 L261.1601563,309.5693359 L261.1601563,316.0571289 L259.6904297,316.0571289 L259.6904297,314.9233398 L255.2602539,314.9233398 L255.2602539,316.078125 L253.7905273,316.078125 L253.7905273,309.6953125 C253.4195862,309.7652893 253.034668,309.8352661 252.6357422,309.9052734 C252.4257813,309.4853516 252.1528168,308.9884338 251.8168945,308.4145508 C256.4920044,307.8126526 259.2984924,306.9728088 260.2363281,305.8950195 L252.6357422,305.8950195 Z M263.4067383,296.8666992 L270.8393555,296.8666992 L270.8393555,303.0605469 L269.3696289,303.0605469 L269.3696289,302.3256836 L264.8764648,302.3256836 L264.8764648,302.9765625 L263.4067383,302.9765625 Z M253.7695313,296.8666992 L261.1391602,296.8666992 L261.1391602,302.9765625 L259.6694336,302.9765625 L259.6694336,302.3256836 L255.2392578,302.3256836 L255.2392578,303.1865234 L253.7695313,303.1865234 Z M269.3696289,298.168457 L264.8764648,298.168457 L264.8764648,301.0239258 L269.3696289,301.0239258 Z M259.6694336,298.168457 L255.2392578,298.168457 L255.2392578,301.0239258 L259.6694336,301.0239258 Z M269.390625,310.8710938 L264.8974609,310.8710938 L264.8974609,313.621582 L269.390625,313.621582 Z M259.6904297,310.8710938 L255.2602539,310.8710938 L255.2602539,313.621582 L259.6904297,313.621582 Z M279.5842285,304.9921875 L290.7331543,304.9921875 C291.8109436,304.9921875 292.4478149,304.6212463 292.6437988,303.8793945 C292.8117676,303.2915039 292.9657288,302.5146484 293.1057129,301.5488281 C293.6235962,301.7727661 294.1765137,301.9897461 294.7644043,302.199707 C294.4984436,303.3474731 294.3024902,304.1243286 294.1765137,304.5302734 C293.812561,305.8180237 292.7907715,306.4619141 291.111084,306.4619141 L279.2062988,306.4619141 C277.4146118,306.4619141 276.5187988,305.552063 276.5187988,303.7324219 L276.5187988,296.6987305 L291.6989746,296.6987305 L291.6989746,303.081543 L290.0822754,303.081543 L290.0822754,302.3676758 L278.135498,302.3676758 L278.135498,303.5644531 C278.135498,304.5162659 278.6184082,304.9921875 279.5842285,304.9921875 Z M288.0666504,307.0917969 L289.7253418,307.0917969 L289.7253418,309.590332 L294.7644043,309.590332 L294.7644043,311.0600586 L289.7253418,311.0600586 L289.7253418,316.3720703 L288.0666504,316.3720703 L288.0666504,311.0600586 L280.9069824,311.0600586 C280.7390137,313.4396057 279.1013184,315.2382813 275.9938965,316.4560547 C275.657959,316.0221252 275.2730103,315.5462036 274.8391113,315.0283203 C277.5686035,314.0904846 279.027832,312.7677307 279.2167969,311.0600586 L274.2512207,311.0600586 L274.2512207,309.590332 L279.4057617,309.590332 C279.461731,308.8694458 279.4862366,308.0296021 279.479248,307.0708008 L281.1379395,307.0708008 C281.1379395,308.008606 281.1134338,308.8484497 281.0644531,309.590332 L288.0666504,309.590332 Z M278.135498,298.1474609 L278.135498,300.9189453 L290.0822754,300.9189453 L290.0822754,298.1474609 Z M299.9819336,314.7973633 L298.3442383,314.7973633 L298.3442383,308.8134766 L305.8608398,308.8134766 L305.8608398,306.8398438 L301.7456055,306.8398438 L301.7456055,307.5957031 L300.1499023,307.5957031 L300.1499023,302.2416992 L313.293457,302.2416992 L313.293457,307.5957031 L311.6977539,307.5957031 L311.6977539,306.8398438 L307.5405273,306.8398438 L307.5405273,308.8134766 L315.2460938,308.8134766 L315.2460938,312.4038086 C315.2460938,314.0134888 314.399231,314.8183594 312.7055664,314.8183594 C311.9916992,314.8183594 311.1728516,314.8113403 310.2490234,314.7973633 C310.1650391,314.3074341 310.0600586,313.7685547 309.934082,313.1806641 C310.7879028,313.2646484 311.5787659,313.3066406 312.3066406,313.3066406 C313.174469,313.3066406 313.6083984,312.9287109 313.6083984,312.1728516 L313.6083984,310.1992188 L307.5405273,310.1992188 L307.5405273,316.4140625 L305.8608398,316.4140625 L305.8608398,310.1992188 L299.9819336,310.1992188 Z M297.1054688,299.3862305 L302.0500488,299.3862305 C301.1122131,298.5883789 300.1358948,297.818512 299.1210938,297.0766602 L300.0869141,295.9848633 C301.1367188,296.6847229 302.193512,297.4195862 303.2573242,298.1894531 L302.1340332,299.3862305 L305.8398438,299.3862305 L305.8398438,295.7119141 L307.5195313,295.7119141 L307.5195313,299.3862305 L310.9838867,299.3862305 L310.144043,298.3364258 C311.2918091,297.5805664 312.383606,296.7756958 313.4194336,295.921875 L314.637207,297.1606445 C313.6363831,297.9024963 312.5795898,298.6443481 311.4667969,299.3862305 L316.2539063,299.3862305 L316.2539063,303.1025391 L314.6162109,303.1025391 L314.6162109,300.8139648 L298.7431641,300.8139648 L298.7431641,303.1025391 L297.1054688,303.1025391 Z M311.6977539,303.5854492 L301.7456055,303.5854492 L301.7456055,305.4960938 L311.6977539,305.4960938 Z" style="fill:rgb(255,3,3);stroke:none" clip-path="url(#clip22)" />
<clipPath id="clip23"><path d="M117,200 L282,200 L282,252 L117,252 L117,200 Z" /></clipPath>
<path d="M124,202 C121.2385864,202 119,204.2385712 119,207 L119,244 C119,246.7614288 121.2385864,249 124,249 L274,249 C276.7614136,249 279,246.7614288 279,244 L279,207 C279,204.2385712 276.7614136,202 274,202 Z" style="fill:rgb(220,230,242);stroke:none" clip-path="url(#clip23)" />
<clipPath id="clip24"><path d="M117,200 L282,200 L282,252 L117,252 L117,200 Z" /></clipPath>
<path d="M124,202 C121.2385864,202 119,204.2385712 119,207 L119,244 C119,246.7614288 121.2385864,249 124,249 L274,249 C276.7614136,249 279,246.7614288 279,244 L279,207 C279,204.2385712 276.7614136,202 274,202 Z" style="fill:none;stroke:rgb(85,142,213);stroke-width:2" clip-path="url(#clip24)" />
<clipPath id="clip25"><path d="M131,209 L268,209 L268,243 L131,243 L131,209 Z" /></clipPath>
<path d="M140.4576416,218.6408691 L144.1529541,218.6408691 C144.5448608,217.647049 144.8948059,216.6672363 145.2027588,215.701416 L146.9034424,216.1003418 C146.5394897,216.9821777 146.1755676,217.82901 145.8116455,218.6408691 L152.0474854,218.6408691 L152.0474854,233.7580566 C152.0474854,235.3397522 151.3196106,236.1376038 149.8638916,236.1516113 C149.1360168,236.1656036 148.2611694,236.1656036 147.2393799,236.1516113 C147.1693726,235.6477051 147.0714111,235.1018066 146.9454346,234.513916 C147.8972473,234.5979004 148.7301025,234.6398926 149.4439697,234.6398926 C150.1997986,234.6398926 150.5777283,234.1989746 150.5777588,233.3171387 L150.5777588,220.0686035 L141.9273682,220.0686035 L141.9273682,236.4455566 L140.4576416,236.4455566 Z M133.6968994,218.4938965 L138.7779541,218.4938965 L138.7779541,233.0021973 L137.3082275,233.0021973 L137.3082275,231.4064941 L135.166626,231.4064941 L135.166626,233.3171387 L133.6968994,233.3171387 Z M143.4810791,222.8400879 L149.0240479,222.8400879 L149.0240479,231.0705566 L144.9088135,231.0705566 L144.9088135,231.9943848 L143.4810791,231.9943848 Z M137.3082275,219.942627 L135.166626,219.942627 L135.166626,229.9577637 L137.3082275,229.9577637 Z M147.5963135,224.1418457 L144.9088135,224.1418457 L144.9088135,229.7687988 L147.5963135,229.7687988 Z M164.4246826,216.3103027 L165.9573975,215.4914551 C166.5592651,216.2613068 167.1331787,217.0941467 167.6790771,217.9899902 L166.6607666,218.5778809 L175.1746826,218.5778809 L175.1746826,220.173584 L158.8187256,220.173584 L158.8187256,225.317627 C158.8187256,230.2727051 157.7969055,233.9750061 155.7532959,236.4245605 C155.4173584,235.9626465 155.0114136,235.4797363 154.5355225,234.9758301 C156.21521,233.100174 157.0550537,229.8947754 157.0550537,225.3596191 L157.0550537,218.5778809 L165.9364014,218.5778809 C165.4814758,217.8080139 164.9775696,217.0521545 164.4246826,216.3103027 Z M158.692749,233.5900879 L168.4034424,233.5900879 C169.4952393,230.7976074 170.6535034,226.9763184 171.8782959,222.1262207 L173.7049561,222.630127 C172.3961792,227.2492676 171.2344055,230.9025879 170.2196045,233.5900879 L175.4056396,233.5900879 L175.4056396,235.185791 L158.692749,235.185791 Z M159.8265381,223.2810059 L161.4222412,222.7351074 C162.2900696,225.2826233 163.1299133,228.138092 163.9417725,231.3015137 L162.1571045,231.8474121 C161.5132141,229.0759277 160.7363586,226.220459 159.8265381,223.2810059 Z M164.8865967,222.2312012 L166.5032959,221.7692871 C167.2311401,224.2888184 167.8750305,227.1092834 168.4349365,230.2307129 L166.5872803,230.713623 C166.1813354,227.9421387 165.6144409,225.1146545 164.8865967,222.2312012 Z M176.8438721,221.6013184 C178.3695679,219.9076233 179.6153564,217.9339905 180.5811768,215.6804199 L182.0509033,216.0793457 C181.7639465,216.6672363 181.4735107,217.2341309 181.1795654,217.7800293 L185.1373291,217.7800293 L185.1373291,219.0817871 L183.5941162,221.3283691 L186.2711182,221.3283691 L186.2711182,233.9890137 C186.2711182,235.3887482 185.5782471,236.0956116 184.1925049,236.1096191 C183.5906067,236.1236115 182.9677124,236.1096191 182.3238525,236.067627 C182.2818604,235.7176819 182.2048645,235.2487793 182.0928955,234.6608887 C182.7647705,234.7308655 183.3666382,234.7658691 183.8985596,234.7658691 C184.5704041,234.7658691 184.9063416,234.4369202 184.9063721,233.7790527 L184.9063721,230.3566895 L183.0167236,230.3566895 L183.0167236,234.2409668 L181.6519775,234.2409668 L181.6519775,230.3566895 L179.7833252,230.3566895 C179.6643372,232.9951935 179.0904541,235.0108185 178.0616455,236.4035645 C177.7396851,236.0396271 177.3477783,235.6826935 176.8858643,235.3327637 C177.9216614,233.8070374 178.4395752,231.756424 178.4395752,229.1809082 L178.4395752,222.0422363 C178.2435913,222.2871857 178.0476379,222.5251465 177.8516846,222.7561035 C177.6137085,222.4341583 177.277771,222.0492249 176.8438721,221.6013184 Z M186.9219971,230.5456543 L191.8770752,230.5456543 L191.8770752,227.5222168 L189.3365479,227.5222168 C189.0355835,228.3270569 188.7206421,229.0829163 188.3917236,229.7897949 C187.9857788,229.5518341 187.5308838,229.3418732 187.0269775,229.1599121 C187.8108215,227.4802246 188.4337158,225.779541 188.8956299,224.0578613 L190.3443604,224.4567871 C190.1763916,225.0236816 190.0049133,225.5695801 189.8299561,226.0944824 L191.8770752,226.0944824 L191.8770752,223.8269043 L193.4307861,223.8269043 L193.4307861,226.0944824 L197.1890869,226.0944824 L197.1890869,227.5222168 L193.4307861,227.5222168 L193.4307861,230.5456543 L197.6929932,230.5456543 L197.6929932,231.9733887 L193.4307861,231.9733887 L193.4307861,236.3825684 L191.8770752,236.3825684 L191.8770752,231.9733887 L186.9219971,231.9733887 Z M187.131958,216.7722168 L196.5802002,216.7722168 C196.538208,218.1439514 196.4682007,219.4317169 196.3702393,220.635498 C196.2722473,222.3431702 195.3694153,223.1970215 193.6617432,223.1970215 C193.073822,223.1970215 192.3529663,223.1760254 191.4991455,223.1340332 C191.4151611,222.5461426 191.3171692,221.9862366 191.2052002,221.4543457 C192.2130127,221.5803223 193.0038452,221.6433105 193.5777588,221.6433105 C194.3336182,221.6433105 194.746521,221.237381 194.8165283,220.4255371 C194.8865051,219.7956543 194.9354858,219.0537872 194.963501,218.1999512 L190.9847412,218.1999512 C190.93573,219.5926819 190.6872864,220.6984863 190.2393799,221.517334 C189.7494507,222.4691467 188.8046265,223.3929749 187.4049072,224.2888184 C187.1809387,223.9388733 186.8450012,223.4909668 186.3970947,222.9450684 C187.5588684,222.3151855 188.3637085,221.6223145 188.8116455,220.8664551 C189.1895752,220.2575684 189.4030151,219.3687286 189.4520264,218.1999512 L187.131958,218.1999512 Z M178.9749756,221.3283691 L181.9039307,221.3283691 L183.4366455,219.060791 L180.4552002,219.060791 C179.97229,219.8796387 179.4788818,220.635498 178.9749756,221.3283691 Z M183.0167236,229.1179199 L184.9063721,229.1179199 L184.9063721,226.451416 L183.0167236,226.451416 Z M184.9063721,222.5671387 L183.0167236,222.5671387 L183.0167236,225.2126465 L184.9063721,225.2126465 Z M179.8043213,229.1179199 L181.6519775,229.1179199 L181.6519775,226.451416 L179.8043213,226.451416 Z M179.8043213,225.2126465 L181.6519775,225.2126465 L181.6519775,222.5671387 L179.8043213,222.5671387 Z M208.0545654,217.4440918 C211.5119171,217.388092 214.9692688,217.0871582 218.4266357,216.5412598 L218.9935303,218.0529785 C216.0400696,218.4868927 212.9326477,218.7738342 209.6712646,218.9138184 L209.6712646,223.5959473 L219.9173584,223.5959473 L219.9173584,225.1286621 L215.9700928,225.1286621 L215.9700928,236.298584 L214.3533936,236.298584 L214.3533936,225.1286621 L209.6712646,225.1286621 L209.6712646,225.9265137 C209.6712646,230.4756622 208.5164795,233.9750061 206.2069092,236.4245605 C205.8569641,235.9206543 205.493042,235.4587402 205.1151123,235.0388184 C207.0747375,232.939209 208.0545502,229.8947754 208.0545654,225.9055176 Z M199.0262451,228.8869629 C200.4819641,226.7593536 201.5807495,224.3028107 202.3226318,221.517334 L199.3201904,221.517334 L199.3201904,220.0686035 L202.364624,220.0686035 L202.364624,215.8903809 L203.8973389,215.8903809 L203.8973389,220.0686035 L206.7947998,220.0686035 L206.7947998,221.517334 L203.8973389,221.517334 L203.8973389,223.9108887 L204.6741943,223.302002 C205.947937,224.7997131 206.8717804,225.9964905 207.4456787,226.892334 L206.1439209,227.8581543 C205.4860229,226.8223419 204.7371826,225.7445374 203.8973389,224.6247559 L203.8973389,236.298584 L202.364624,236.298584 L202.364624,225.5065918 C201.6507568,227.6062012 200.7828979,229.3558655 199.7611084,230.7556152 C199.5931396,230.2657013 199.348175,229.6428223 199.0262451,228.8869629 Z M221.2086182,234.8708496 C226.4016418,233.1141663 229.5055695,230.5806427 230.5203857,227.2702637 L221.5025635,227.2702637 L221.5025635,225.6745605 L230.8353271,225.6745605 C230.9193115,224.7087402 230.9822998,223.2949982 231.024292,221.4333496 L225.4918213,221.4333496 C224.8619385,222.5881348 224.1480713,223.6799316 223.3502197,224.7087402 C223.0282745,224.4147949 222.5873566,224.0788574 222.0274658,223.7009277 C223.6931458,221.6433105 224.9249268,219.2637482 225.7227783,216.5622559 L227.3604736,217.0661621 C227.0455322,218.0249786 226.6885986,218.9488068 226.2896729,219.8376465 L231.0662842,219.8376465 C231.0802765,218.619873 231.0907745,217.2481232 231.0977783,215.7224121 L232.8824463,215.7224121 C232.8544464,217.2271271 232.8264465,218.598877 232.7984619,219.8376465 L240.651001,219.8376465 L240.651001,221.4333496 L232.7564697,221.4333496 C232.7144775,223.1340332 232.6689758,224.54776 232.6199951,225.6745605 L241.8057861,225.6745605 L241.8057861,227.2702637 L232.7774658,227.2702637 C234.1072083,230.7906036 237.2146301,233.1911621 242.0997314,234.4719238 C241.6518097,235.0598145 241.2318878,235.626709 240.8399658,236.1726074 C236.1368408,234.4929199 233.1203918,231.938385 231.7906494,228.5090332 C230.684845,231.7144318 227.5914154,234.3669434 222.510376,236.4665527 C222.2164154,236.088623 221.7825012,235.5567169 221.2086182,234.8708496 Z M252.524292,223.7849121 C253.9240265,221.1394043 254.9738312,218.4378967 255.6737061,215.6804199 L257.2484131,216.1633301 C256.8844604,217.2971191 256.5065308,218.3819122 256.114624,219.4177246 L263.8831787,219.4177246 L263.8831787,220.9294434 L261.8465576,220.9294434 C261.6225891,225.6325684 260.6847534,229.0969238 259.0330811,231.3225098 C260.1948547,232.7502441 261.9515381,233.842041 264.3031006,234.5979004 C263.9671631,235.0178223 263.5682373,235.5847168 263.1063232,236.298584 C260.9087219,235.2907715 259.2080383,234.0659943 258.0042725,232.6242676 C256.7724915,233.9260254 254.9738312,235.2207794 252.6082764,236.5085449 C252.3003235,236.018631 251.9363861,235.5497131 251.5164795,235.1018066 C253.8960266,233.9260254 255.7296906,232.6382599 257.0174561,231.2385254 C255.785675,229.2229004 255.0158234,226.4304199 254.7078857,222.861084 C254.3159485,223.71492 253.9170227,224.5267639 253.5111084,225.2966309 C253.147171,224.666748 252.818222,224.1628418 252.524292,223.7849121 Z M244.3568115,216.7722168 L252.4193115,216.7722168 L252.4193115,229.9367676 L250.9075928,229.9367676 L250.9075928,218.2839355 L245.8685303,218.2839355 L245.8685303,230.0627441 L244.3568115,230.0627441 Z M247.6322021,220.0476074 L249.1439209,220.0476074 L249.1439209,224.5197754 C249.1439209,226.8153381 249.0039368,228.677002 248.723999,230.1047363 L249.395874,229.5588379 C250.739624,230.9305725 251.8664093,232.169342 252.7762451,233.2751465 L251.4324951,234.282959 C250.4526672,232.9951935 249.4938507,231.8474121 248.5560303,230.8395996 C248.0381165,232.8552246 246.6873779,234.6678772 244.5037842,236.2775879 C244.1678467,235.8296661 243.7759094,235.3677521 243.3280029,234.8918457 C245.0496674,233.7860413 246.197464,232.5612793 246.7713623,231.2175293 C247.3452454,229.9437561 247.6322021,227.9141388 247.6322021,225.1286621 Z M258.0462646,229.8947754 C259.3200073,227.8791504 260.0408936,224.8907013 260.2088623,220.9294434 L255.9046631,220.9294434 C256.1846008,224.9046936 256.898468,227.8931427 258.0462646,229.8947754 Z" style="fill:rgb(255,3,3);stroke:none" clip-path="url(#clip25)" />
<clipPath id="clip26"><path d="M8,95 L277,95 L277,171 L8,171 Z M163,122 C160.2385864,122 158,124.2385712 158,127 L158,164 C158,166.7614288 160.2385864,169 163,169 L270,169 C272.7614136,169 275,166.7614288 275,164 L275,127 C275,124.2385712 272.7614136,122 270,122 Z" /></clipPath>
<path d="M145.0001526,145.8592987 C142.7778931,133.9530945 139.444519,128 135,128" style="fill:none;stroke:rgb(85,142,213)" clip-path="url(#clip26)" />
<clipPath id="clip27"><path d="M8,95 L277,95 L277,171 L8,171 Z M163,122 C160.2385864,122 158,124.2385712 158,127 L158,164 C158,166.7614288 160.2385864,169 163,169 L270,169 C272.7614136,169 275,166.7614288 275,164 L275,127 C275,124.2385712 272.7614136,122 270,122 Z" /></clipPath>
<path d="M145.0001526,145.8592987 C142.7778931,157.9530945 139.444519,164 135,164" style="fill:none;stroke:rgb(85,142,213)" clip-path="url(#clip27)" />
<clipPath id="clip28"><path d="M7,94 L278,94 L278,172 L7,172 L7,94 Z" /></clipPath>
<path d="M158,145.7939758 L145.0001526,145.8592987" style="fill:none;stroke:rgb(85,142,213)" clip-path="url(#clip28)" />
<clipPath id="clip29"><path d="M156,120 L278,120 L278,172 L156,172 L156,120 Z" /></clipPath>
<path d="M163,122 C160.2385864,122 158,124.2385712 158,127 L158,164 C158,166.7614288 160.2385864,169 163,169 L270,169 C272.7614136,169 275,166.7614288 275,164 L275,127 C275,124.2385712 272.7614136,122 270,122 Z" style="fill:rgb(220,230,242);stroke:none" clip-path="url(#clip29)" />
<clipPath id="clip30"><path d="M156,120 L278,120 L278,172 L156,172 L156,120 Z" /></clipPath>
<path d="M163,122 C160.2385864,122 158,124.2385712 158,127 L158,164 C158,166.7614288 160.2385864,169 163,169 L270,169 C272.7614136,169 275,166.7614288 275,164 L275,127 C275,124.2385712 272.7614136,122 270,122 Z" style="fill:none;stroke:rgb(85,142,213);stroke-width:2" clip-path="url(#clip30)" />
<clipPath id="clip31"><path d="M170,129 L264,129 L264,163 L170,163 L170,129 Z" /></clipPath>
<path d="M181.8092041,156.1726074 L180.1715088,156.1726074 L180.1715088,145.5275879 L191.8453369,145.5275879 L191.8453369,153.6950684 C191.8453064,155.2067871 191.0684509,155.9696503 189.5147705,155.9836426 C188.6889038,155.9976349 187.6321106,156.0046387 186.3443604,156.0046387 C186.274353,155.5567169 186.1693726,155.0178223 186.0294189,154.3879395 C187.2471924,154.4719238 188.2409973,154.513916 189.0108643,154.513916 C189.8086853,154.513916 190.2076111,154.1499786 190.2076416,153.4221191 L190.2076416,152.3723145 L181.8092041,152.3723145 Z M178.3238525,142.9240723 L185.1055908,142.9240723 L185.1055908,141.4753418 L179.7305908,141.4753418 L179.7305908,140.1525879 L185.1055908,140.1525879 L185.1055908,138.7458496 L178.9957275,138.7458496 L178.9957275,137.4230957 L185.1055908,137.4230957 L185.1055908,135.5334473 L186.8062744,135.5334473 L186.8062744,137.4230957 L193.210083,137.4230957 L193.210083,138.7458496 L186.8062744,138.7458496 L186.8062744,140.1525879 L192.6641846,140.1525879 L192.6641846,141.4753418 L186.8062744,141.4753418 L186.8062744,142.9240723 L193.6300049,142.9240723 L193.6300049,144.2468262 L178.3238525,144.2468262 Z M179.3526611,150.9865723 C179.3946533,151.6864471 179.443634,152.2953339 179.4996338,152.8132324 C177.987915,153.8210449 176.7071228,154.7308807 175.6573486,155.5427246 L174.6915283,154.1569824 C175.1674194,153.7090607 175.4053955,153.100174 175.4053955,152.3303223 L175.4053955,144.3937988 L172.8438721,144.3937988 L172.8438721,142.861084 L177.0010986,142.861084 L177.0010986,152.6452637 C177.7849426,152.1133575 178.5687866,151.5604706 179.3526611,150.9865723 Z M190.2076416,146.8713379 L181.8092041,146.8713379 L181.8092041,148.3200684 L190.2076416,148.3200684 Z M181.8092041,151.0705566 L190.2076416,151.0705566 L190.2076416,149.6218262 L181.8092041,149.6218262 Z M175.2164307,136.2473145 C176.3641968,137.3811035 177.3790283,138.4378967 178.2608643,139.4177246 L176.7911377,140.635498 C175.8253174,139.3897247 174.8804626,138.2839355 173.956665,137.3181152 Z M195.3411865,139.4807129 L204.5584717,139.4807129 L204.5584717,135.6804199 L206.3221436,135.6804199 L206.3221436,139.4807129 L215.4974365,139.4807129 L215.4974365,140.9924316 L206.3221436,140.9924316 L206.3221436,142.2941895 C207.0080109,143.8618927 207.8198547,145.2896271 208.7576904,146.5773926 C210.2134094,145.317627 211.5851593,143.9178925 212.8729248,142.3781738 L214.3636475,143.6169434 C212.6419525,145.3246307 211.1162415,146.7383575 209.786499,147.8581543 C211.4661865,149.8177948 213.4748077,151.385498 215.8123779,152.5612793 C215.2944641,153.1631622 214.8745422,153.7090607 214.5526123,154.1989746 C210.9412842,152.0853729 208.1977844,149.2578888 206.3221436,145.7165527 L206.3221436,153.4221191 C206.3221436,155.2277832 205.3773193,156.1306152 203.4876709,156.1306152 C202.4798584,156.1306152 201.5490112,156.1166229 200.6951904,156.088623 C200.6112061,155.5147247 200.4992065,154.8918457 200.3592529,154.2199707 C201.4650269,154.3459473 202.3678589,154.4089355 203.067749,154.4089355 C204.061554,154.4089355 204.5584717,153.8980255 204.5584717,152.8762207 L204.5584717,148.907959 C201.2550659,150.6016388 198.3786011,152.1413574 195.9290771,153.5270996 L195.0262451,151.8054199 C197.9516907,150.4476776 201.1290894,148.8309784 204.5584717,146.9553223 L204.5584717,140.9924316 L195.3411865,140.9924316 Z M198.4276123,142.2521973 C199.5473938,143.3579865 200.6881714,144.596756 201.8499756,145.9685059 C201.4160461,146.3324432 200.933136,146.7243652 200.4012451,147.1442871 C199.4214172,145.8705292 198.3435974,144.5827637 197.1678467,143.2810059 Z M208.2537842,136.7932129 L209.2615967,135.6804199 C210.5913391,136.5202637 211.6481476,137.2831116 212.4320068,137.9689941 L211.2982178,139.2287598 C210.4723663,138.500885 209.45755,137.6890411 208.2537842,136.7932129 Z M217.0616455,154.8288574 C222.2546692,153.0721893 225.3585968,150.5386505 226.3734131,147.2282715 L217.3555908,147.2282715 L217.3555908,145.6325684 L226.6883545,145.6325684 C226.7723389,144.666748 226.8353271,143.253006 226.8773193,141.3913574 L221.3448486,141.3913574 C220.7149658,142.5461426 220.0010986,143.6379395 219.2032471,144.666748 C218.8813019,144.3728027 218.4403839,144.0368652 217.8804932,143.6589355 C219.5461731,141.6013184 220.7779541,139.221756 221.5758057,136.5202637 L223.213501,137.0241699 C222.8985596,137.9829865 222.541626,138.9068146 222.1427002,139.7956543 L226.9193115,139.7956543 C226.9333038,138.5778809 226.9438019,137.206131 226.9508057,135.6804199 L228.7354736,135.6804199 C228.7074738,137.1851349 228.6794739,138.5568848 228.6514893,139.7956543 L236.5040283,139.7956543 L236.5040283,141.3913574 L228.6094971,141.3913574 C228.5675049,143.092041 228.5220032,144.5057831 228.4730225,145.6325684 L237.6588135,145.6325684 L237.6588135,147.2282715 L228.6304932,147.2282715 C229.9602356,150.7486115 233.0676575,153.1491699 237.9527588,154.4299316 C237.504837,155.0178223 237.0849152,155.5847168 236.6929932,156.1306152 C231.9898682,154.4509277 228.9734192,151.8964081 227.6436768,148.467041 C226.5378723,151.6724396 223.4444427,154.3249512 218.3634033,156.4245605 C218.0694427,156.0466309 217.6355286,155.5147247 217.0616455,154.8288574 Z M248.3773193,143.7429199 C249.7770538,141.0974121 250.8268585,138.3959045 251.5267334,135.6384277 L253.1014404,136.1213379 C252.7375031,137.255127 252.3595734,138.33992 251.9676514,139.3757324 L259.7362061,139.3757324 L259.7362061,140.8874512 L257.699585,140.8874512 C257.4756165,145.5905762 256.5377808,149.0549316 254.8861084,151.2805176 C256.0478821,152.708252 257.8045654,153.8000488 260.1561279,154.5559082 C259.8201904,154.9758301 259.4212646,155.5427246 258.9593506,156.2565918 C256.7617493,155.2487793 255.0610657,154.0240021 253.8572998,152.5822754 C252.6255188,153.8840332 250.8268585,155.1787872 248.4613037,156.4665527 C248.1533508,155.9766388 247.7894135,155.5077362 247.3695068,155.0598145 C249.749054,153.8840332 251.5827179,152.5962677 252.8704834,151.1965332 C251.6387024,149.1809082 250.8688507,146.3884277 250.5609131,142.8190918 C250.1689758,143.6729279 249.77005,144.484787 249.3641357,145.2546387 C249.0001984,144.6247559 248.6712494,144.1208496 248.3773193,143.7429199 Z M240.2098389,136.7302246 L248.2723389,136.7302246 L248.2723389,149.8947754 L246.7606201,149.8947754 L246.7606201,138.2419434 L241.7215576,138.2419434 L241.7215576,150.020752 L240.2098389,150.020752 Z M243.4852295,140.0056152 L244.9969482,140.0056152 L244.9969482,144.4777832 C244.9969482,146.7733612 244.8569641,148.6350098 244.5770264,150.0627441 L245.2489014,149.5168457 C246.5926514,150.8885956 247.7194366,152.1273651 248.6292725,153.2331543 L247.2855225,154.2409668 C246.3056946,152.9532013 245.3468781,151.8054199 244.4090576,150.7976074 C243.8911438,152.8132324 242.5404053,154.6259003 240.3568115,156.2355957 C240.020874,155.787674 239.6289368,155.3257599 239.1810303,154.8498535 C240.9026947,153.7440643 242.0504913,152.5192871 242.6243896,151.1755371 C243.1982727,149.9017792 243.4852295,147.8721466 243.4852295,145.0866699 Z M253.899292,149.8527832 C255.1730499,147.8371582 255.8939056,144.8487091 256.0618896,140.8874512 L251.7576904,140.8874512 C252.0376282,144.8627167 252.7514954,147.8511505 253.899292,149.8527832 Z" style="fill:rgb(23,55,94);stroke:none" clip-path="url(#clip31)" />
<clipPath id="clip32"><path d="M145,140 L158,140 L158,153 L145,153 L145,140 Z" /></clipPath>
<path d="M155.4999695,146 C155.4999695,143.5147095 153.48526,141.5 150.9999695,141.5 C148.5147095,141.5 146.4999695,143.5147247 146.5,146 C146.5,148.4852905 148.5147095,150.5 151,150.5 C153.48526,150.5 155.5,148.4852753 155.4999695,146 Z" style="fill:rgb(250,250,250);stroke:none" clip-path="url(#clip32)" />
<clipPath id="clip33"><path d="M145,140 L158,140 L158,153 L145,153 L145,140 Z" /></clipPath>
<path d="M155.4999695,146 C155.4999695,143.5147095 153.48526,141.5 150.9999695,141.5 C148.5147095,141.5 146.4999695,143.5147247 146.5,146 C146.5,148.4852905 148.5147095,150.5 151,150.5 C153.48526,150.5 155.5,148.4852753 155.4999695,146 Z" style="fill:none;stroke:rgb(85,142,213)" clip-path="url(#clip33)" />
<clipPath id="clip34"><path d="M145,140 L158,140 L158,153 L145,153 L145,140 Z" /></clipPath>
<path d="M149,146 L153,146" style="fill:none;stroke:rgb(150,160,200)" clip-path="url(#clip34)" />
<clipPath id="clip35"><path d="M7,94 L139,94 L139,131 L7,131 L7,94 Z" /></clipPath>
<path d="M10,128 L135,128 Z" style="fill:none;stroke:rgb(85,142,213);stroke-width:3" clip-path="url(#clip35)" />
<clipPath id="clip36"><path d="M19,99 L127,99 L127,126 L19,126 L19,99 Z" /></clipPath>
<path d="M21.9647217,118.1235352 L24.5911865,118.1235352 L24.5911865,109.4868164 L25.9769287,109.4868164 L25.9769287,118.1235352 L30.0697021,118.1235352 L30.0697021,107.1826172 L22.7059326,107.1826172 L22.7059326,105.9257813 L37.3690186,105.9257813 L37.3690186,107.1826172 L31.4554443,107.1826172 L31.4554443,111.4042969 L36.821167,111.4042969 L36.821167,112.6450195 L31.4554443,112.6450195 L31.4554443,118.1235352 L38.0135498,118.1235352 L38.0135498,119.3803711 L21.9647217,119.3803711 Z M41.8565674,119.2514648 L40.5997314,119.2514648 L40.5997314,114.6591797 L46.3682861,114.6591797 L46.3682861,113.1445313 L43.210083,113.1445313 L43.210083,113.7246094 L41.9854736,113.7246094 L41.9854736,109.6157227 L52.0723877,109.6157227 L52.0723877,113.7246094 L50.8477783,113.7246094 L50.8477783,113.1445313 L47.6573486,113.1445313 L47.6573486,114.6591797 L53.5709229,114.6591797 L53.5709229,117.4145508 C53.5708923,118.6499023 52.92099,119.2675781 51.6212158,119.2675781 C51.0733643,119.2675781 50.4449463,119.262207 49.7359619,119.2514648 C49.6715088,118.8754883 49.5909424,118.4619141 49.4942627,118.0107422 C50.1495056,118.0751953 50.7564392,118.1074219 51.3150635,118.1074219 C51.9810486,118.1074219 52.3140564,117.8173828 52.3140869,117.2373047 L52.3140869,115.7226563 L47.6573486,115.7226563 L47.6573486,120.4921875 L46.3682861,120.4921875 L46.3682861,115.7226563 L41.8565674,115.7226563 Z M39.6490479,107.4243164 L43.4437256,107.4243164 C42.7239685,106.8120117 41.9747009,106.2211914 41.1959229,105.6518555 L41.9371338,104.8139648 C42.7427979,105.3510742 43.5538025,105.9150391 44.3702393,106.5058594 L43.5081787,107.4243164 L46.3521729,107.4243164 L46.3521729,104.6044922 L47.6412354,104.6044922 L47.6412354,107.4243164 L50.2999268,107.4243164 L49.6553955,106.6186523 C50.5362244,106.0385742 51.374115,105.4208984 52.1690674,104.765625 L53.1036377,105.7163086 C52.3355408,106.2856445 51.5245056,106.8549805 50.6705322,107.4243164 L54.3443604,107.4243164 L54.3443604,110.2763672 L53.0875244,110.2763672 L53.0875244,108.5200195 L40.9058838,108.5200195 L40.9058838,110.2763672 L39.6490479,110.2763672 Z M50.8477783,110.6469727 L43.210083,110.6469727 L43.210083,112.1132813 L50.8477783,112.1132813 Z M56.0281982,118.171875 L61.2005615,118.171875 L61.2005615,104.8623047 L62.5540771,104.8623047 L62.5540771,118.171875 L65.3739014,118.171875 L65.3739014,104.8623047 L66.727417,104.8623047 L66.727417,118.171875 L71.9481201,118.171875 L71.9481201,119.3642578 L56.0281982,119.3642578 Z M57.8973389,108.0205078 C58.7781677,110.09375 59.6321716,112.2958984 60.4593506,114.6269531 L59.1380615,115.2231445 C58.418335,112.956543 57.6126404,110.7275391 56.7210693,108.5361328 Z M67.3074951,114.7719727 C68.3816833,112.4946289 69.2840271,110.2924805 70.0145264,108.1655273 L71.3197021,108.6811523 C70.3206787,111.2485352 69.3699951,113.4560547 68.4676514,115.3037109 Z M77.6119385,104.3950195 L78.8204346,104.9106445 C78.5787354,105.3081055 78.3262634,105.6948242 78.0631104,106.0708008 L86.7803955,106.0708008 L86.7803955,107.1503906 C85.7813416,108.3642578 84.4143982,109.4250488 82.6795654,110.3327637 C84.4842529,110.9880371 86.635376,111.3935547 89.1329346,111.5493164 C88.7891541,112.0327148 88.4883728,112.4838867 88.2305908,112.902832 C85.4322205,112.5322266 83.0850525,111.9064941 81.1890869,111.0256348 C79.0567322,111.9333496 76.4786072,112.6503906 73.4547119,113.1767578 C73.2720642,112.84375 73.0518494,112.4677734 72.7940674,112.0488281 C75.4849854,111.6352539 77.8214111,111.0498047 79.8033447,110.2924805 C78.5787354,109.5458984 77.5984802,108.6623535 76.8626709,107.6418457 C76.0301208,108.630127 75.1089783,109.5458984 74.0992432,110.3891602 C73.7769775,110.0454102 73.4815369,109.7553711 73.2130127,109.519043 C75.1895447,107.9506836 76.6558533,106.2426758 77.6119385,104.3950195 Z M74.2281494,113.8374023 L78.9171143,113.8374023 C78.9922791,113.3164063 79.0567322,112.7363281 79.1104736,112.097168 L80.4156494,112.097168 C80.3457947,112.7363281 80.2732849,113.3164063 80.1981201,113.8374023 L86.6998291,113.8374023 C86.5923767,115.7602539 86.4903259,117.1083984 86.3936768,117.8818359 C86.2217712,119.3964844 85.3194275,120.1591797 83.6866455,120.1699219 C83.0528259,120.1806641 82.1021423,120.1591797 80.8345947,120.1054688 C80.7701111,119.7080078 80.6895447,119.262207 80.5928955,118.7680664 C81.8282166,118.8754883 82.8487549,118.9345703 83.6544189,118.9453125 C84.5674744,118.9238281 85.0723877,118.4619141 85.1690674,117.5595703 C85.2657471,116.7539063 85.3355408,115.8945313 85.37854,114.9814453 L80.0047607,114.9814453 C79.4353943,117.5649414 77.4346619,119.4394531 74.0025635,120.6049805 C73.7554626,120.2504883 73.4922791,119.890625 73.2130127,119.5253906 C76.29599,118.5263672 78.1221619,117.0117188 78.6915283,114.9814453 L74.2281494,114.9814453 Z M85.0562744,107.1342773 L77.8616943,107.1342773 C78.7264099,108.1708984 79.8382263,109.0249023 81.1971436,109.6962891 C82.7493591,108.9711914 84.0357361,108.1171875 85.0562744,107.1342773 Z M89.9627686,119.2998047 C93.9480896,117.9516602 96.3301697,116.0073242 97.1090088,113.4667969 L90.1883545,113.4667969 L90.1883545,112.2421875 L97.350708,112.2421875 C97.4151611,111.5009766 97.463501,110.4160156 97.4957275,108.9873047 L93.2498779,108.9873047 C92.7664795,109.8735352 92.2186279,110.7114258 91.6063232,111.5009766 C91.3592224,111.2753906 91.0208435,111.0175781 90.5911865,110.7275391 C91.8694763,109.1484375 92.8148193,107.3222656 93.427124,105.2490234 L94.68396,105.6357422 C94.4422607,106.371582 94.168335,107.0805664 93.8621826,107.7626953 L97.5279541,107.7626953 C97.5386658,106.828125 97.5467224,105.7753906 97.552124,104.6044922 L98.9217529,104.6044922 C98.900238,105.7592773 98.8787537,106.8120117 98.8572998,107.7626953 L104.883667,107.7626953 L104.883667,108.9873047 L98.8250732,108.9873047 C98.7928467,110.2924805 98.7579041,111.3774414 98.7203369,112.2421875 L105.7698975,112.2421875 L105.7698975,113.4667969 L98.8411865,113.4667969 C99.8616638,116.168457 102.2464294,118.0107422 105.9954834,118.9936523 C105.6517029,119.4448242 105.3294373,119.8798828 105.0286865,120.2988281 C101.4193115,119.0097656 99.1043396,117.0493164 98.0838623,114.4174805 C97.235199,116.8774414 94.8611755,118.9130859 90.961792,120.5244141 C90.7361755,120.234375 90.4031677,119.8261719 89.9627686,119.2998047 Z M113.9957275,110.7919922 C115.0699158,108.7617188 115.8755798,106.6884766 116.4127197,104.5722656 L117.6212158,104.9428711 C117.3418884,105.8129883 117.0518494,106.6455078 116.7510986,107.4404297 L122.7130127,107.4404297 L122.7130127,108.6005859 L121.1500244,108.6005859 C120.9781189,112.2099609 120.2583923,114.8686523 118.9908447,116.5766602 C119.8824158,117.6723633 121.2305603,118.5102539 123.0352783,119.090332 C122.7774353,119.4125977 122.471283,119.8476563 122.1168213,120.3955078 C120.4302673,119.6220703 119.1250916,118.6821289 118.2012939,117.5756836 C117.2559509,118.574707 115.8755798,119.5683594 114.0601807,120.5566406 C113.823822,120.1806641 113.5445251,119.8208008 113.22229,119.4770508 C115.0484314,118.574707 116.455658,117.5864258 117.4439697,116.512207 C116.4986267,114.965332 115.9078064,112.8222656 115.6715088,110.0830078 C115.370697,110.7382813 115.0645447,111.3613281 114.7530518,111.9521484 C114.4737244,111.46875 114.221283,111.0820313 113.9957275,110.7919922 Z M107.7276611,105.4101563 L113.9151611,105.4101563 L113.9151611,115.5131836 L112.7550049,115.5131836 L112.7550049,106.5703125 L108.8878174,106.5703125 L108.8878174,115.6098633 L107.7276611,115.6098633 Z M110.241333,107.9238281 L111.4014893,107.9238281 L111.4014893,111.355957 C111.4014893,113.1176758 111.2940369,114.5463867 111.0792236,115.6420898 L111.5948486,115.2231445 C112.6260986,116.2758789 113.4908142,117.2265625 114.1890869,118.0751953 L113.1578369,118.8486328 C112.4058533,117.8603516 111.6700134,116.9794922 110.9503174,116.2060547 C110.5528259,117.7529297 109.5162354,119.144043 107.8404541,120.3793945 C107.5826416,120.0356445 107.2818298,119.6811523 106.9381104,119.315918 C108.2593689,118.4672852 109.1402283,117.5273438 109.5806885,116.4960938 C110.0210876,115.5185547 110.241333,113.9609375 110.241333,111.8232422 Z M118.2335205,115.480957 C119.2110291,113.934082 119.7642517,111.640625 119.8931885,108.6005859 L116.5899658,108.6005859 C116.8047791,111.6513672 117.3526306,113.9448242 118.2335205,115.480957 Z" style="fill:rgb(0,0,0);stroke:none" clip-path="url(#clip36)" />
<clipPath id="clip37"><path d="M8,130 L139,130 L139,167 L8,167 L8,130 Z" /></clipPath>
<path d="M11,164 L135,164 Z" style="fill:none;stroke:rgb(85,142,213);stroke-width:3" clip-path="url(#clip37)" />
<clipPath id="clip38"><path d="M20,135 L127,135 L127,162 L20,162 L20,135 Z" /></clipPath>
<path d="M26.6300049,147.7265625 L35.1861572,147.7265625 C36.0132751,147.7265625 36.5020447,147.4418945 36.6524658,146.8725586 C36.7813721,146.4213867 36.8995056,145.8251953 37.006958,145.0839844 C37.4043884,145.2558594 37.8287354,145.4223633 38.2799072,145.5834961 C38.0757751,146.4643555 37.9253845,147.0605469 37.8287354,147.3720703 C37.549408,148.3603516 36.7652588,148.8544922 35.4761963,148.8544922 L26.3399658,148.8544922 C24.9649353,148.8544922 24.2774658,148.15625 24.2774658,146.7597656 L24.2774658,141.3618164 L35.9273682,141.3618164 L35.9273682,146.2602539 L34.6866455,146.2602539 L34.6866455,145.7124023 L25.5181885,145.7124023 L25.5181885,146.6308594 C25.5181885,147.3613281 25.8887939,147.7265625 26.6300049,147.7265625 Z M33.1397705,149.3378906 L34.4127197,149.3378906 L34.4127197,151.2553711 L38.2799072,151.2553711 L38.2799072,152.3833008 L34.4127197,152.3833008 L34.4127197,156.4599609 L33.1397705,156.4599609 L33.1397705,152.3833008 L27.6451416,152.3833008 C27.5162354,154.2094727 26.2593994,155.5898438 23.8746338,156.5244141 C23.6168213,156.1914063 23.3213806,155.8261719 22.9884033,155.4287109 C25.0830994,154.7089844 26.2029724,153.6938477 26.3480225,152.3833008 L22.5372314,152.3833008 L22.5372314,151.2553711 L26.493042,151.2553711 C26.5359802,150.7021484 26.5547791,150.0576172 26.5494385,149.3217773 L27.8223877,149.3217773 C27.8223877,150.0415039 27.8035583,150.6860352 27.7659912,151.2553711 L33.1397705,151.2553711 Z M25.5181885,142.4736328 L25.5181885,144.6005859 L34.6866455,144.6005859 L34.6866455,142.4736328 Z M42.2840576,155.2514648 L41.0272217,155.2514648 L41.0272217,150.6591797 L46.7957764,150.6591797 L46.7957764,149.1445313 L43.6375732,149.1445313 L43.6375732,149.7246094 L42.4129639,149.7246094 L42.4129639,145.6157227 L52.4998779,145.6157227 L52.4998779,149.7246094 L51.2752686,149.7246094 L51.2752686,149.1445313 L48.0848389,149.1445313 L48.0848389,150.6591797 L53.9984131,150.6591797 L53.9984131,153.4145508 C53.9983826,154.6499023 53.3484802,155.2675781 52.0487061,155.2675781 C51.5008545,155.2675781 50.8724365,155.262207 50.1634521,155.2514648 C50.098999,154.8754883 50.0184326,154.4619141 49.9217529,154.0107422 C50.5769958,154.0751953 51.1839294,154.1074219 51.7425537,154.1074219 C52.4085388,154.1074219 52.7415466,153.8173828 52.7415771,153.2373047 L52.7415771,151.7226563 L48.0848389,151.7226563 L48.0848389,156.4921875 L46.7957764,156.4921875 L46.7957764,151.7226563 L42.2840576,151.7226563 Z M40.0765381,143.4243164 L43.8712158,143.4243164 C43.1514587,142.8120117 42.4021912,142.2211914 41.6234131,141.6518555 L42.364624,140.8139648 C43.1702881,141.3510742 43.9812927,141.9150391 44.7977295,142.5058594 L43.9356689,143.4243164 L46.7796631,143.4243164 L46.7796631,140.6044922 L48.0687256,140.6044922 L48.0687256,143.4243164 L50.727417,143.4243164 L50.0828857,142.6186523 C50.9637146,142.0385742 51.8016052,141.4208984 52.5965576,140.765625 L53.5311279,141.7163086 C52.763031,142.2856445 51.9519958,142.8549805 51.0980225,143.4243164 L54.7718506,143.4243164 L54.7718506,146.2763672 L53.5150146,146.2763672 L53.5150146,144.5200195 L41.333374,144.5200195 L41.333374,146.2763672 L40.0765381,146.2763672 Z M51.2752686,146.6469727 L43.6375732,146.6469727 L43.6375732,148.1132813 L51.2752686,148.1132813 Z M56.4556885,154.171875 L61.6280518,154.171875 L61.6280518,140.8623047 L62.9815674,140.8623047 L62.9815674,154.171875 L65.8013916,154.171875 L65.8013916,140.8623047 L67.1549072,140.8623047 L67.1549072,154.171875 L72.3756104,154.171875 L72.3756104,155.3642578 L56.4556885,155.3642578 Z M58.3248291,144.0205078 C59.205658,146.09375 60.0596619,148.2958984 60.8868408,150.6269531 L59.5655518,151.2231445 C58.8458252,148.956543 58.0401306,146.7275391 57.1485596,144.5361328 Z M67.7349854,150.7719727 C68.8091736,148.4946289 69.7115173,146.2924805 70.4420166,144.1655273 L71.7471924,144.6811523 C70.7481689,147.2485352 69.7974854,149.4560547 68.8951416,151.3037109 Z M78.0394287,140.3950195 L79.2479248,140.9106445 C79.0062256,141.3081055 78.7537537,141.6948242 78.4906006,142.0708008 L87.2078857,142.0708008 L87.2078857,143.1503906 C86.2088318,144.3642578 84.8418884,145.4250488 83.1070557,146.3327637 C84.9117432,146.9880371 87.0628662,147.3935547 89.5604248,147.5493164 C89.2166443,148.0327148 88.915863,148.4838867 88.6580811,148.902832 C85.8597107,148.5322266 83.5125427,147.9064941 81.6165771,147.0256348 C79.4842224,147.9333496 76.9060974,148.6503906 73.8822021,149.1767578 C73.6995544,148.84375 73.4793396,148.4677734 73.2215576,148.0488281 C75.9124756,147.6352539 78.2489014,147.0498047 80.230835,146.2924805 C79.0062256,145.5458984 78.0259705,144.6623535 77.2901611,143.6418457 C76.4576111,144.630127 75.5364685,145.5458984 74.5267334,146.3891602 C74.2044678,146.0454102 73.9090271,145.7553711 73.6405029,145.519043 C75.6170349,143.9506836 77.0833435,142.2426758 78.0394287,140.3950195 Z M74.6556396,149.8374023 L79.3446045,149.8374023 C79.4197693,149.3164063 79.4842224,148.7363281 79.5379639,148.097168 L80.8431396,148.097168 C80.7732849,148.7363281 80.7007751,149.3164063 80.6256104,149.8374023 L87.1273193,149.8374023 C87.0198669,151.7602539 86.9178162,153.1083984 86.821167,153.8818359 C86.6492615,155.3964844 85.7469177,156.1591797 84.1141357,156.1699219 C83.4803162,156.1806641 82.5296326,156.1591797 81.262085,156.1054688 C81.1976013,155.7080078 81.1170349,155.262207 81.0203857,154.7680664 C82.2557068,154.8754883 83.2762451,154.9345703 84.0819092,154.9453125 C84.9949646,154.9238281 85.4998779,154.4619141 85.5965576,153.5595703 C85.6932373,152.7539063 85.763031,151.8945313 85.8060303,150.9814453 L80.432251,150.9814453 C79.8628845,153.5649414 77.8621521,155.4394531 74.4300537,156.6049805 C74.1829529,156.2504883 73.9197693,155.890625 73.6405029,155.5253906 C76.7234802,154.5263672 78.5496521,153.0117188 79.1190186,150.9814453 L74.6556396,150.9814453 Z M85.4837646,143.1342773 L78.2891846,143.1342773 C79.1539001,144.1708984 80.2657166,145.0249023 81.6246338,145.6962891 C83.1768494,144.9711914 84.4632263,144.1171875 85.4837646,143.1342773 Z M90.3902588,155.2998047 C94.3755798,153.9516602 96.7576599,152.0073242 97.536499,149.4667969 L90.6158447,149.4667969 L90.6158447,148.2421875 L97.7781982,148.2421875 C97.8426514,147.5009766 97.8909912,146.4160156 97.9232178,144.9873047 L93.6773682,144.9873047 C93.1939697,145.8735352 92.6461182,146.7114258 92.0338135,147.5009766 C91.7867126,147.2753906 91.4483337,147.0175781 91.0186768,146.7275391 C92.2969666,145.1484375 93.2423096,143.3222656 93.8546143,141.2490234 L95.1114502,141.6357422 C94.869751,142.371582 94.5958252,143.0805664 94.2896729,143.7626953 L97.9554443,143.7626953 C97.966156,142.828125 97.9742126,141.7753906 97.9796143,140.6044922 L99.3492432,140.6044922 C99.3277283,141.7592773 99.3062439,142.8120117 99.28479,143.7626953 L105.3111572,143.7626953 L105.3111572,144.9873047 L99.2525635,144.9873047 C99.2203369,146.2924805 99.1853943,147.3774414 99.1478271,148.2421875 L106.1973877,148.2421875 L106.1973877,149.4667969 L99.2686768,149.4667969 C100.2891541,152.168457 102.6739197,154.0107422 106.4229736,154.9936523 C106.0791931,155.4448242 105.7569275,155.8798828 105.4561768,156.2988281 C101.8468018,155.0097656 99.5318298,153.0493164 98.5113525,150.4174805 C97.6626892,152.8774414 95.2886658,154.9130859 91.3892822,156.5244141 C91.1636658,156.234375 90.830658,155.8261719 90.3902588,155.2998047 Z M114.4232178,146.7919922 C115.497406,144.7617188 116.3030701,142.6884766 116.84021,140.5722656 L118.0487061,140.9428711 C117.7693787,141.8129883 117.4793396,142.6455078 117.1785889,143.4404297 L123.1405029,143.4404297 L123.1405029,144.6005859 L121.5775146,144.6005859 C121.4056091,148.2099609 120.6858826,150.8686523 119.418335,152.5766602 C120.309906,153.6723633 121.6580505,154.5102539 123.4627686,155.090332 C123.2049255,155.4125977 122.8987732,155.8476563 122.5443115,156.3955078 C120.8577576,155.6220703 119.5525818,154.6821289 118.6287842,153.5756836 C117.6834412,154.574707 116.3030701,155.5683594 114.4876709,156.5566406 C114.2513123,156.1806641 113.9720154,155.8208008 113.6497803,155.4770508 C115.4759216,154.574707 116.8831482,153.5864258 117.87146,152.512207 C116.9261169,150.965332 116.3352966,148.8222656 116.098999,146.0830078 C115.7981873,146.7382813 115.4920349,147.3613281 115.180542,147.9521484 C114.9012146,147.46875 114.6487732,147.0820313 114.4232178,146.7919922 Z M108.1551514,141.4101563 L114.3426514,141.4101563 L114.3426514,151.5131836 L113.1824951,151.5131836 L113.1824951,142.5703125 L109.3153076,142.5703125 L109.3153076,151.6098633 L108.1551514,151.6098633 Z M110.6688232,143.9238281 L111.8289795,143.9238281 L111.8289795,147.355957 C111.8289795,149.1176758 111.7215271,150.5463867 111.5067139,151.6420898 L112.0223389,151.2231445 C113.0535889,152.2758789 113.9183044,153.2265625 114.6165771,154.0751953 L113.5853271,154.8486328 C112.8333435,153.8603516 112.0975037,152.9794922 111.3778076,152.2060547 C110.9803162,153.7529297 109.9437256,155.144043 108.2679443,156.3793945 C108.0101318,156.0356445 107.7093201,155.6811523 107.3656006,155.315918 C108.6868591,154.4672852 109.5677185,153.5273438 110.0081787,152.4960938 C110.4485779,151.5185547 110.6688232,149.9609375 110.6688232,147.8232422 Z M118.6610107,151.480957 C119.6385193,149.934082 120.1917419,147.640625 120.3206787,144.6005859 L117.0174561,144.6005859 C117.2322693,147.6513672 117.7801208,149.9448242 118.6610107,151.480957 Z" style="fill:rgb(255,3,3);stroke:none" clip-path="url(#clip38)" />
<clipPath id="clip39"><path d="M213,14 L334,14 L334,66 L213,66 L213,14 Z" /></clipPath>
<path d="M220,16 C217.2385712,16 215,18.2385712 215,21 L215,58 C215,60.7614288 217.2385712,63 220,63 L326,63 C328.7614136,63 331,60.7614288 331,58 L331,21 C331,18.2385712 328.7614136,16 326,16 Z" style="fill:rgb(220,230,242);stroke:none" clip-path="url(#clip39)" />
<clipPath id="clip40"><path d="M213,14 L334,14 L334,66 L213,66 L213,14 Z" /></clipPath>
<path d="M220,16 C217.2385712,16 215,18.2385712 215,21 L215,58 C215,60.7614288 217.2385712,63 220,63 L326,63 C328.7614136,63 331,60.7614288 331,58 L331,21 C331,18.2385712 328.7614136,16 326,16 Z" style="fill:none;stroke:rgb(85,142,213);stroke-width:2" clip-path="url(#clip40)" />
<clipPath id="clip41"><path d="M227,23 L320,23 L320,57 L227,57 L227,23 Z" /></clipPath>
<path d="M238.9286041,50.1936035 L237.2909088,50.1936035 L237.2909088,39.548584 L248.9647369,39.548584 L248.9647369,47.7160645 C248.9647217,49.2277832 248.1878662,49.9906387 246.6341705,50.0046387 C245.8083191,50.018631 244.7515106,50.0256271 243.4637604,50.0256348 C243.3937683,49.577713 243.2887878,49.0388184 243.148819,48.4089355 C244.3665924,48.4929199 245.3603973,48.5349121 246.1302643,48.5349121 C246.9281006,48.5349121 247.3270264,48.1709747 247.3270416,47.4431152 L247.3270416,46.3933105 L238.9286041,46.3933105 Z M235.4432526,36.9450684 L242.2249908,36.9450684 L242.2249908,35.4963379 L236.8499908,35.4963379 L236.8499908,34.173584 L242.2249908,34.173584 L242.2249908,32.7668457 L236.1151276,32.7668457 L236.1151276,31.4440918 L242.2249908,31.4440918 L242.2249908,29.5544434 L243.9256744,29.5544434 L243.9256744,31.4440918 L250.329483,31.4440918 L250.329483,32.7668457 L243.9256744,32.7668457 L243.9256744,34.173584 L249.7835846,34.173584 L249.7835846,35.4963379 L243.9256744,35.4963379 L243.9256744,36.9450684 L250.7494049,36.9450684 L250.7494049,38.2678223 L235.4432526,38.2678223 Z M236.4720612,45.0075684 C236.5140533,45.7074356 236.5630341,46.3163223 236.6190338,46.8342285 C235.1073151,47.8420334 233.8265381,48.7518692 232.7767487,49.5637207 L231.8109283,48.1779785 C232.2868347,47.7300568 232.5247955,47.12117 232.5247955,46.3513184 L232.5247955,38.4147949 L229.9632721,38.4147949 L229.9632721,36.8820801 L234.1204987,36.8820801 L234.1204987,46.6662598 C234.9043427,46.1343536 235.6882019,45.581459 236.4720612,45.0075684 Z M247.3270416,40.892334 L238.9286041,40.892334 L238.9286041,42.3410645 L247.3270416,42.3410645 Z M238.9286041,45.0915527 L247.3270416,45.0915527 L247.3270416,43.6428223 L238.9286041,43.6428223 Z M232.3358307,30.2683105 C233.4836121,31.4020996 234.4984283,32.4588928 235.3802643,33.4387207 L233.9105377,34.6564941 C232.9447174,33.4107208 231.9998779,32.3049316 231.0760651,31.3391113 Z M252.4605865,33.501709 L261.6778564,33.501709 L261.6778564,29.701416 L263.4415283,29.701416 L263.4415283,33.501709 L272.6168213,33.501709 L272.6168213,35.0134277 L263.4415283,35.0134277 L263.4415283,36.3151855 C264.1274109,37.8828888 264.93927,39.3106232 265.8770752,40.5983887 C267.3328247,39.338623 268.7045593,37.9388733 269.9923096,36.3991699 L271.4830322,37.6379395 C269.7613525,39.3456116 268.2356567,40.7593536 266.9058838,41.8791504 C268.5855713,43.8387756 270.5942078,45.4064941 272.9317627,46.5822754 C272.4138794,47.1841583 271.9939575,47.7300568 271.6719971,48.2199707 C268.0606689,46.1063614 265.3171997,43.2788849 263.4415283,39.7375488 L263.4415283,47.4431152 C263.4415283,49.2487717 262.4967041,50.1516037 260.6070557,50.1516113 C259.5992432,50.1516037 258.6684265,50.1376114 257.8145752,50.1096191 C257.7305908,49.5357208 257.6186218,48.9128342 257.4786377,48.2409668 C258.5844421,48.3669434 259.4872742,48.4299316 260.1871338,48.4299316 C261.1809692,48.4299316 261.6778564,47.9190216 261.6778564,46.8972168 L261.6778564,42.9289551 C258.3744812,44.6226349 255.4980164,46.1623535 253.0484772,47.5480957 L252.1456451,45.826416 C255.0710907,44.4686584 258.2485046,42.8519592 261.6778564,40.9763184 L261.6778564,35.0134277 L252.4605865,35.0134277 Z M255.5470123,36.2731934 C256.6668091,37.3789825 257.8075867,38.6177521 258.9693604,39.989502 C258.5354614,40.3534241 258.0525513,40.7453613 257.5206299,41.1652832 C256.5408325,39.89151 255.4630127,38.6037598 254.2872467,37.302002 Z M265.3731689,30.814209 L266.3809814,29.701416 C267.7107544,30.5412598 268.7675476,31.3041077 269.5513916,31.9899902 L268.4176025,33.2497559 C267.5917664,32.5218811 266.5769653,31.7100372 265.3731689,30.814209 Z M283.083374,48.7028809 C284.7000732,47.6180801 286.1418152,46.3548126 287.4085693,44.9130859 C286.5967407,42.848465 286.1173096,39.5135803 285.9703369,34.9084473 L278.0443115,34.9084473 L278.0443115,38.0998535 L284.0911865,38.0998535 C284.0072021,40.7733459 283.8952332,43.019928 283.755249,44.8395996 C283.5872803,46.7712326 282.6494751,47.7370605 280.9417725,47.7370605 C280.3678894,47.7370605 279.6050415,47.7090607 278.6531982,47.6530762 C278.5692139,47.13517 278.4572449,46.5542755 278.3172607,45.9104004 C279.2970886,46.0503693 280.1159363,46.1203613 280.7738037,46.1203613 C281.5856628,46.1203613 282.0405884,45.560463 282.1385498,44.4406738 C282.2505493,43.1529083 282.3345337,41.5572052 282.3905029,39.6535645 L278.0338135,39.6535645 C277.9218445,44.5176544 276.9385376,48.1149902 275.0838623,50.4455566 C274.7339478,49.9696426 274.3699951,49.4867325 273.9920654,48.9968262 C275.5737915,46.8972168 276.364624,43.579834 276.364624,39.0446777 L276.364624,33.3547363 L285.9073486,33.3547363 C285.8583679,32.2489319 285.8128662,31.0521545 285.770874,29.7644043 L287.5135498,29.7644043 C287.5065613,30.7512207 287.5240479,31.947998 287.56604,33.3547363 L294.7991943,33.3547363 L294.7991943,34.9084473 L287.6185303,34.9084473 C287.7585144,38.6737366 288.10495,41.4872131 288.6578369,43.348877 C290.0155945,41.5082092 291.131897,39.4226074 292.0067139,37.092041 L293.6654053,37.7849121 C292.4616394,40.6333771 291.0164185,43.1109161 289.3297119,45.2175293 C290.3585205,47.3101349 291.362854,48.3564453 292.3426514,48.3564453 C292.699585,48.3564453 292.9725342,48.0309982 293.161499,47.380127 C293.3574829,46.3583145 293.5114441,45.3085098 293.6234131,44.2307129 C294.2253113,44.4686584 294.7572021,44.6646271 295.2191162,44.8186035 C295.0091553,46.3163223 294.7781982,47.5410919 294.5262451,48.4929199 C294.2603149,49.5147247 293.6724243,50.0676193 292.7625732,50.1516113 C291.9087524,50.2075958 291.0899048,49.9206543 290.3060303,49.2907715 C289.459198,48.6398926 288.7383423,47.7440567 288.1434326,46.6032715 C286.9606628,47.8770294 285.6729126,48.9968262 284.2801514,49.9626465 C283.9162292,49.5427246 283.5173035,49.1228027 283.083374,48.7028809 Z M289.1092529,30.7932129 L289.9910889,29.701416 C291.1668701,30.373291 292.265686,31.0731506 293.2874756,31.8010254 L292.2796631,33.060791 C291.2718506,32.2629395 290.2150574,31.5070801 289.1092529,30.7932129 Z M304.3839111,34.173584 L307.6593018,34.173584 C307.6873169,32.9208069 307.708313,31.4650879 307.72229,29.8063965 L309.4229736,29.8063965 C309.4019775,31.4790802 309.3739929,32.9348145 309.3389893,34.173584 L316.0367432,34.173584 C315.9107666,39.0726624 315.770813,43.2019043 315.6168213,46.5612793 C315.4628601,48.7588654 314.4690552,49.8786621 312.635376,49.9206543 C311.4176025,49.9346466 310.0738525,49.9066544 308.604126,49.8366699 C308.5061646,49.1927872 308.394165,48.5629044 308.2681885,47.9470215 C309.723938,48.1149826 311.0536804,48.1919708 312.2574463,48.1779785 C313.307251,48.1499786 313.867157,47.5130997 313.9371338,46.267334 C314.1191101,42.9779358 314.2380981,39.4855957 314.2940674,35.7902832 L309.2969971,35.7902832 C309.2690125,36.8960724 309.2340088,37.7499084 309.1920166,38.3518066 C308.9260864,43.8807678 306.6934814,47.8910294 302.4942627,50.3825684 C302.1863403,49.9486465 301.7803955,49.4727325 301.2764893,48.954834 C305.1957703,46.7712402 307.2743835,43.1949005 307.5123291,38.2258301 C307.5543213,37.5749512 307.589325,36.763092 307.6173096,35.7902832 L304.3839111,35.7902832 Z M296.2584229,44.7766113 C297.4622192,44.5106506 298.6239929,44.2481995 299.7437744,43.9892578 L299.7437744,33.6486816 L296.5523682,33.6486816 L296.5523682,32.0109863 L304.9718018,32.0109863 L304.9718018,33.6486816 L301.444458,33.6486816 L301.444458,43.579834 C302.6552429,43.2788849 303.8100281,42.9779358 304.9088135,42.677002 C304.9368286,43.4048615 304.9858093,43.9647522 305.0557861,44.3566895 C302.5782471,44.9725647 299.8067627,45.7074356 296.741333,46.5612793 Z" style="fill:rgb(23,55,94);stroke:none" clip-path="url(#clip41)" />
</svg>
