<?xml version="1.0" encoding="UTF-8"?>
<!DOCTYPE svg PUBLIC "-//W3C//DTD SVG 1.1//EN" "http://www.w3.org/Graphics/SVG/1.1/DTD/svg11.dtd">
<svg version="1.2" xmlns="http://www.w3.org/2000/svg" xmlns:xlink="http://www.w3.org/1999/xlink" x="0" y="0" width="474" height="260" viewBox="0 0 474 260">
<style type="text/css"><![CDATA[
text { font:12px Dialog; }
]]></style>
<rect x="-1217" y="-1100" width="2888" height="2460" style="fill:rgb(255,255,255);stroke:none" />
<clipPath id="clip1"><path d="M15,15 L459,15 L459,245 L15,245 Z M192,101 C187.5817261,101 184,104.5817184 184,109 L184,150 C184,154.4182739 187.5817261,158 192,158 L302,158 C306.4182739,158 310,154.4182739 310,150 L310,109 C310,104.5817184 306.4182739,101 302,101 Z M192,101" /></clipPath>
<path d="M277.4233093,101 C289.9959106,65.6666641 308.8547974,48 334,48" style="fill:none;stroke:rgb(85,142,213)" clip-path="url(#clip1)" />
<clipPath id="clip2"><path d="M15,15 L459,15 L459,245 L15,245 Z M192,101 C187.5817261,101 184,104.5817184 184,109 L184,150 C184,154.4182739 187.5817261,158 192,158 L302,158 C306.4182739,158 310,154.4182739 310,150 L310,109 C310,104.5817184 306.4182739,101 302,101 Z M192,101" /></clipPath>
<path d="M310,129.7480316 C324.222229,129.9160156 345.555542,130 374,130" style="fill:none;stroke:rgb(85,142,213)" clip-path="url(#clip2)" />
<clipPath id="clip3"><path d="M15,15 L459,15 L459,245 L15,245 Z M192,101 C187.5817261,101 184,104.5817184 184,109 L184,150 C184,154.4182739 187.5817261,158 192,158 L302,158 C306.4182739,158 310,154.4182739 310,150 L310,109 C310,104.5817184 306.4182739,101 302,101 Z M192,101" /></clipPath>
<path d="M277.0545349,158 C289.7091064,194 308.690918,212 334,212" style="fill:none;stroke:rgb(85,142,213)" clip-path="url(#clip3)" />
<clipPath id="clip4"><path d="M15,15 L459,15 L459,245 L15,245 Z M192,101 C187.5817261,101 184,104.5817184 184,109 L184,150 C184,154.4182739 187.5817261,158 192,158 L302,158 C306.4182739,158 310,154.4182739 310,150 L310,109 C310,104.5817184 306.4182739,101 302,101 Z M192,101" /></clipPath>
<path d="M227.7076874,158 C217.3282013,204 201.7589722,227 181,227" style="fill:none;stroke:rgb(85,142,213)" clip-path="url(#clip4)" />
<clipPath id="clip5"><path d="M15,15 L459,15 L459,245 L15,245 Z M192,101 C187.5817261,101 184,104.5817184 184,109 L184,150 C184,154.4182739 187.5817261,158 192,158 L302,158 C306.4182739,158 310,154.4182739 310,150 L310,109 C310,104.5817184 306.4182739,101 302,101 Z M192,101" /></clipPath>
<path d="M184,146.2827911 C170.8888855,156.7609253 151.222229,162 125,162" style="fill:none;stroke:rgb(85,142,213)" clip-path="url(#clip5)" />
<clipPath id="clip6"><path d="M15,15 L459,15 L459,245 L15,245 Z M192,101 C187.5817261,101 184,104.5817184 184,109 L184,150 C184,154.4182739 187.5817261,158 192,158 L302,158 C306.4182739,158 310,154.4182739 310,150 L310,109 C310,104.5817184 306.4182739,101 302,101 Z M192,101" /></clipPath>
<path d="M184,112.7172089 C170.8888855,102.2390747 151.222229,97 125,97" style="fill:none;stroke:rgb(85,142,213)" clip-path="url(#clip6)" />
<clipPath id="clip7"><path d="M15,15 L459,15 L459,245 L15,245 Z M192,101 C187.5817261,101 184,104.5817184 184,109 L184,150 C184,154.4182739 187.5817261,158 192,158 L302,158 C306.4182739,158 310,154.4182739 310,150 L310,109 C310,104.5817184 306.4182739,101 302,101 Z M192,101" /></clipPath>
<path d="M228.2923126,101 C218.227356,55 203.1299133,32 183,32" style="fill:none;stroke:rgb(85,142,213)" clip-path="url(#clip7)" />
<clipPath id="clip8"><path d="M180,97 L315,97 L315,163 L180,163 L180,97 Z" /></clipPath>
<path d="M192,101 C187.5817261,101 184,104.5817184 184,109 L184,150 C184,154.4182739 187.5817261,158 192,158 L302,158 C306.4182739,158 310,154.4182739 310,150 L310,109 C310,104.5817184 306.4182739,101 302,101 Z M192,101" style="fill:rgb(220,230,242);stroke:none" clip-path="url(#clip8)" />
<clipPath id="clip9"><path d="M180,97 L315,97 L315,163 L180,163 L180,97 Z" /></clipPath>
<path d="M192,101 C187.5817261,101 184,104.5817184 184,109 L184,150 C184,154.4182739 187.5817261,158 192,158 L302,158 C306.4182739,158 310,154.4182739 310,150 L310,109 C310,104.5817184 306.4182739,101 302,101 Z M192,101" style="fill:none;stroke:rgb(85,142,213);stroke-width:5" clip-path="url(#clip9)" />
<clipPath id="clip10"><path d="M216,117 L279,117 L279,143 L216,143 L216,117 Z" /></clipPath>
<path d="M228.7705078,134.715332 L223.0224609,134.715332 L223.0224609,131.5073242 L228.4453125,131.5073242 L228.4453125,129.4682617 L223.0224609,129.4682617 L223.0224609,126.409668 L228.7705078,126.409668 L228.7705078,124.2211914 L220.3681641,124.2211914 L220.3681641,136.9038086 L228.7705078,136.9038086 Z M234.3779297,135.1811523 C233.9326172,135.1811523 233.5693359,135.0742188 233.2880859,134.8603516 C233.0068359,134.6464844 232.8662109,134.3549805 232.8662109,133.9858398 C232.8662109,133.628418 233.0009766,133.3486328 233.2705078,133.1464844 C233.5400391,132.9443359 233.9501953,132.8256836 234.5009766,132.7905273 L236.4609375,132.6586914 L236.4609375,133.3793945 C236.4609375,133.7192383 236.3701172,134.0253906 236.1884766,134.2978516 C236.0068359,134.5703125 235.7592773,134.7856445 235.4458008,134.9438477 C235.1323242,135.1020508 234.7763672,135.1811523 234.3779297,135.1811523 Z M233.5341797,137.0620117 C233.9560547,137.0620117 234.3486328,137.003418 234.7119141,136.8862305 C235.0751953,136.769043 235.3974609,136.6035156 235.6787109,136.3896484 C235.9599609,136.1757813 236.1826172,135.9194336 236.3466797,135.6206055 L236.5048828,135.6206055 L236.5048828,136.9038086 L238.9833984,136.9038086 L238.9833984,130.2944336 C238.9833984,129.6088867 238.8266602,129.0214844 238.5131836,128.5322266 C238.199707,128.0429688 237.7441406,127.6679688 237.1464844,127.4072266 C236.5488281,127.1464844 235.8222656,127.0161133 234.9667969,127.0161133 C233.7539063,127.0161133 232.7636719,127.2753906 231.9960938,127.7939453 C231.2285156,128.3125 230.8037109,129.0170898 230.7216797,129.9077148 L233.0771484,129.9077148 C233.1826172,129.6030273 233.3847656,129.371582 233.6835938,129.2133789 C233.9824219,129.0551758 234.3632813,128.9760742 234.8261719,128.9760742 C235.3535156,128.9760742 235.7578125,129.090332 236.0390625,129.3188477 C236.3203125,129.5473633 236.4609375,129.8725586 236.4609375,130.2944336 L236.4609375,131.0942383 L234.1142578,131.2348633 C232.9130859,131.3051758 231.9873047,131.5878906 231.3369141,132.0830078 C230.6865234,132.578125 230.3613281,133.2651367 230.3613281,134.144043 C230.3613281,134.7299805 230.4960938,135.2426758 230.765625,135.6821289 C231.0351563,136.121582 231.4101563,136.4614258 231.890625,136.7016602 C232.3710938,136.9418945 232.9189453,137.0620117 233.5341797,137.0620117 Z M245.0302734,133.7133789 L246.8408203,136.9213867 L249.6796875,136.9213867 L246.6123047,132.0258789 L249.6621094,127.2358398 L246.8671875,127.2358398 L245.1533203,130.4526367 L244.9951172,130.4526367 L243.28125,127.2358398 L240.3369141,127.2358398 L243.3955078,132.1313477 L240.3632813,136.9213867 L243.0703125,136.9213867 L244.8720703,133.7133789 Z M251.1035156,136.9038086 L253.6611328,136.9038086 L253.6611328,127.2270508 L251.1035156,127.2270508 Z M252.3867188,125.7416992 C252.7851563,125.7416992 253.1264648,125.6025391 253.4106445,125.3242188 C253.6948242,125.0458984 253.8369141,124.7104492 253.8369141,124.3178711 C253.8369141,123.9194336 253.6948242,123.5810547 253.4106445,123.3027344 C253.1264648,123.0244141 252.7851563,122.8852539 252.3867188,122.8852539 C251.9941406,122.8852539 251.6542969,123.0244141 251.3671875,123.3027344 C251.0800781,123.5810547 250.9365234,123.9194336 250.9365234,124.3178711 C250.9365234,124.7104492 251.0800781,125.0458984 251.3671875,125.3242188 C251.6542969,125.6025391 251.9941406,125.7416992 252.3867188,125.7416992 Z M260.1123047,137.1147461 C261.1083984,137.1147461 261.9624023,136.9125977 262.6743164,136.5083008 C263.3862305,136.1040039 263.9326172,135.5253906 264.3134766,134.7724609 C264.6943359,134.0195313 264.8847656,133.1157227 264.8847656,132.0610352 C264.8847656,131.012207 264.6914063,130.1113281 264.3046875,129.3583984 C263.9179688,128.6054688 263.3686523,128.0268555 262.6567383,127.6225586 C261.9448242,127.2182617 261.0966797,127.0161133 260.1123047,127.0161133 C259.1279297,127.0161133 258.2797852,127.2197266 257.5678711,127.6269531 C256.855957,128.0341797 256.3066406,128.6142578 255.9199219,129.3671875 C255.5332031,130.1201172 255.3398438,131.0180664 255.3398438,132.0610352 C255.3398438,133.1098633 255.5302734,134.012207 255.9111328,134.7680664 C256.2919922,135.5239258 256.8398438,136.1040039 257.5546875,136.5083008 C258.2695313,136.9125977 259.1220703,137.1147461 260.1123047,137.1147461 Z M260.1123047,135.0844727 C259.6552734,135.0844727 259.2670898,134.9658203 258.9477539,134.7285156 C258.628418,134.4912109 258.3852539,134.1469727 258.2182617,133.6958008 C258.0512695,133.2446289 257.9677734,132.699707 257.9677734,132.0610352 C257.9677734,131.4282227 258.0527344,130.8876953 258.2226563,130.4394531 C258.3925781,129.9912109 258.637207,129.6469727 258.956543,129.4067383 C259.2758789,129.1665039 259.6611328,129.0463867 260.1123047,129.0463867 C260.5634766,129.0463867 260.9487305,129.1665039 261.2680664,129.4067383 C261.5874023,129.6469727 261.8320313,129.9912109 262.0019531,130.4394531 C262.171875,130.8876953 262.2568359,131.4282227 262.2568359,132.0610352 C262.2568359,132.699707 262.171875,133.2446289 262.0019531,133.6958008 C261.8320313,134.1469727 261.5888672,134.4912109 261.2724609,134.7285156 C260.9560547,134.9658203 260.5693359,135.0844727 260.1123047,135.0844727 Z M266.3173828,130.0483398 C266.3173828,130.7924805 266.5488281,131.3901367 267.0117188,131.8413086 C267.4746094,132.2924805 268.1748047,132.6235352 269.1123047,132.8344727 L270.8701172,133.2299805 C271.2978516,133.3237305 271.6083984,133.4482422 271.8017578,133.6035156 C271.9951172,133.7587891 272.0917969,133.9624023 272.0917969,134.2143555 C272.0917969,134.425293 272.0214844,134.612793 271.8808594,134.7768555 C271.7402344,134.940918 271.5439453,135.0683594 271.2919922,135.1591797 C271.0400391,135.25 270.7470703,135.2954102 270.4130859,135.2954102 C270.0732422,135.2954102 269.7773438,135.2529297 269.5253906,135.1679688 C269.2734375,135.0830078 269.0683594,134.9614258 268.9101563,134.8032227 C268.7519531,134.6450195 268.640625,134.4545898 268.5761719,134.2319336 L266.0800781,134.2319336 C266.1386719,134.8413086 266.34375,135.3613281 266.6953125,135.7919922 C267.046875,136.2226563 267.5317383,136.5507813 268.1499023,136.7763672 C268.7680664,137.0019531 269.5048828,137.1147461 270.3603516,137.1147461 C271.2099609,137.1147461 271.9541016,136.9829102 272.5927734,136.7192383 C273.2314453,136.4555664 273.730957,136.0849609 274.0913086,135.6074219 C274.4516602,135.1298828 274.6318359,134.574707 274.6318359,133.9418945 C274.6318359,133.2211914 274.4121094,132.6513672 273.9726563,132.2324219 C273.5332031,131.8134766 272.8447266,131.5014648 271.9072266,131.2963867 L270.0878906,130.9008789 C269.6425781,130.8012695 269.3129883,130.6708984 269.0991211,130.5097656 C268.8852539,130.3486328 268.7783203,130.1450195 268.7783203,129.8989258 C268.7783203,129.6879883 268.847168,129.5019531 268.9848633,129.3408203 C269.1225586,129.1796875 269.3115234,129.0551758 269.5517578,128.9672852 C269.7919922,128.8793945 270.0644531,128.8354492 270.3691406,128.8354492 C270.84375,128.8354492 271.2246094,128.9277344 271.5117188,129.1123047 C271.7988281,129.296875 271.9746094,129.550293 272.0390625,129.8725586 L274.4033203,129.8725586 C274.3330078,128.9584961 273.9492188,128.2539063 273.2519531,127.7587891 C272.5546875,127.2636719 271.5878906,127.0161133 270.3515625,127.0161133 C269.5488281,127.0161133 268.8442383,127.1420898 268.237793,127.394043 C267.6313477,127.6459961 267.159668,128.0004883 266.8227539,128.4575195 C266.4858398,128.9145508 266.3173828,129.4448242 266.3173828,130.0483398 Z M275.4492188,136.9038086" style="fill:rgb(55,96,146);stroke:none" clip-path="url(#clip10)" />
<clipPath id="clip11"><path d="M332,30 L433,30 L433,67 L332,67 L332,30 Z" /></clipPath>
<path d="M339,32 C336.2385864,32 334,34.2385712 334,37 L334,59 C334,61.7614288 336.2385864,64 339,64 L425,64 C427.7614136,64 430,61.7614288 430,59 L430,37 C430,34.2385712 427.7614136,32 425,32 Z M339,32" style="fill:rgb(220,230,242);stroke:none" clip-path="url(#clip11)" />
<clipPath id="clip12"><path d="M332,30 L433,30 L433,67 L332,67 L332,30 Z" /></clipPath>
<path d="M339,32 C336.2385864,32 334,34.2385712 334,37 L334,59 C334,61.7614288 336.2385864,64 339,64 L425,64 C427.7614136,64 430,61.7614288 430,59 L430,37 C430,34.2385712 427.7614136,32 425,32 Z M339,32" style="fill:none;stroke:rgb(85,142,213);stroke-width:2" clip-path="url(#clip12)" />
<clipPath id="clip13"><path d="M346,39 L419,39 L419,58 L346,58 L346,39 Z" /></clipPath>
<path d="M357.1505127,42.5524979 L357.1505127,43.3974991 L354.0045166,43.3974991 L354.0045166,44.1644974 L357.1505127,44.1644974 L357.1505127,45.0354996 L354.5245056,45.0354996 L354.5245056,45.7894974 L357.1505127,45.7894974 L357.1505127,46.6735001 L353.6405029,46.6735001 L353.6405029,47.4534988 L361.5964966,47.4534988 L361.5964966,46.6735001 L358.0474854,46.6735001 L358.0474854,45.7894974 L360.8034973,45.7894974 L360.8034973,45.0354996 L358.0474854,45.0354996 L358.0474854,44.1644974 L361.2714844,44.1644974 L361.2714844,43.3974991 L358.0474854,43.3974991 L358.0474854,42.5524979 L357.1505127,42.5524979 Z M355.5255127,50.7294998 L359.7244873,50.7294998 L359.7244873,51.6784973 L355.5255127,51.6784973 L355.5255127,50.7294998 Z M359.7244873,50.001503 L355.5255127,50.001503 L355.5255127,49.0394974 L359.7244873,49.0394974 L359.7244873,50.001503 Z M355.5255127,52.4065018 L359.7244873,52.4065018 L359.7244873,53.1474991 C359.7244873,53.4465027 359.5555115,53.6025009 359.2434998,53.6025009 L358.2034912,53.5634995 L358.4244995,54.3955002 L359.51651,54.3955002 C360.2445068,54.3955002 360.621521,54.0445023 360.621521,53.3424988 L360.621521,48.2724991 L354.6285095,48.2724991 L354.6285095,54.4735031 L355.5255127,54.4735031 L355.5255127,52.4065018 Z M351.2875061,42.6955032 L350.6245117,43.3324966 C351.5604858,44.0345001 352.3015137,44.6975021 352.8475037,45.3215027 L353.4844971,44.6715012 C352.8865051,44.0084991 352.1585083,43.3454971 351.2875061,42.6955032 Z M349.7145081,46.5305023 L349.7145081,47.4274979 L351.5734863,47.4274979 L351.5734863,52.588501 C351.5734863,52.8095016 351.4695129,53.0045013 351.2745056,53.1865005 L351.6384888,54.0185013 C352.444519,53.4335022 353.2244873,52.7574997 353.9525146,52.0035019 L353.7055054,51.0155029 C353.2634888,51.4704971 352.8605042,51.873497 352.47052,52.2375031 L352.47052,46.5305023 L349.7145081,46.5305023 Z M363.364502,44.9445038 L363.364502,45.8414993 L368.5385132,45.8414993 L368.5385132,48.2724991 C367.0045166,50.1705017 365.2365112,51.6524963 363.2344971,52.7444992 L363.7415161,53.5895004 C365.5744934,52.4714966 367.1734924,51.0674973 368.5385132,49.4035034 L368.5385132,52.9524994 C368.5385132,53.3554993 368.3565063,53.5634995 368.0054932,53.5634995 C367.4855042,53.5634995 366.9525146,53.5374985 366.3804932,53.498497 L366.5755005,54.3955002 L368.3305054,54.3955002 C369.1105042,54.3955002 369.5004883,53.9925003 369.5004883,53.1865005 L369.5004883,48.1295013 C370.5664978,50.2225037 372.1394958,51.9905014 374.2455139,53.4465027 L374.8955078,52.6794968 C373.4655151,51.7695007 372.2565002,50.7034988 371.2814941,49.4944992 C372.2825012,48.8055038 373.1405029,47.9994965 373.8554993,47.0764999 L373.1665039,46.4654999 C372.5035095,47.3495026 371.7105103,48.1425018 370.7875061,48.8444977 C370.2805176,48.1425018 369.8515015,47.3884964 369.5004883,46.5954971 L369.5004883,45.8414993 L374.4664917,45.8414993 L374.4664917,44.9445038 L372.490509,44.9445038 L373.1015015,44.3335037 C372.5815125,43.7614975 371.9315186,43.1764984 371.1514893,42.6044998 L370.5404968,43.1764984 C371.3204956,43.800499 371.9575195,44.385498 372.4385071,44.9445038 L369.5004883,44.9445038 L369.5004883,42.5134964 L368.5385132,42.5134964 L368.5385132,44.9445038 L363.364502,44.9445038 Z M364.6254883,46.7385025 L363.9754944,47.3495026 C364.9244995,48.1945038 365.6654968,48.9875031 366.1984863,49.7285004 L366.8485107,49.0914993 C366.2504883,48.3115005 365.5095215,47.5185013 364.6254883,46.7385025 Z M377.8074951,49.3775024 L377.8074951,54.4865036 L378.7174988,54.4865036 L378.7174988,49.1695023 C379.1594849,49.6634979 379.588501,50.2614975 380.0175171,50.9505005 L380.5245056,50.1835022 C380.2644958,49.8324966 379.9915161,49.4944992 379.6925049,49.1695023 C380.0305176,48.8964996 380.3424988,48.5195007 380.6285095,48.0514984 L380.09552,47.5185013 C379.8225098,48.0124969 379.5234985,48.4024963 379.2114868,48.6624985 C379.055481,48.5065002 378.8865051,48.3635025 378.7174988,48.2074966 L378.7174988,48.1295013 C379.3154907,47.2194977 379.7445068,46.2965012 380.0175171,45.3604965 L380.0175171,44.5934982 L378.4185181,44.5934982 L378.9125061,44.3984985 C378.7565002,43.8395004 378.5355225,43.2154999 378.2495117,42.5394974 L377.3525085,42.786499 C377.6124878,43.3584976 377.8464966,43.9694977 378.0545044,44.5934982 L376.4815063,44.5934982 L376.4815063,45.4514999 L379.1334839,45.4514999 C378.6524963,46.8815002 377.6904907,48.350502 376.2344971,49.8714981 L376.5075073,50.8075027 C376.9755249,50.3395004 377.4174805,49.8584976 377.8074951,49.3775024 Z M383.930481,42.5524979 L383.930481,44.1255035 L381.0184937,44.1255035 L381.0184937,48.6884995 C380.9794922,50.7425003 380.5115051,52.4325027 379.6275024,53.7584991 L380.3945007,54.4215012 C381.3955078,52.8355026 381.9024963,50.911499 381.9154968,48.6624985 L381.9154968,48.5195007 L382.3834839,48.5195007 C382.6954956,49.7935028 383.3065186,50.9244995 384.2164917,51.925499 C383.4495239,52.6275024 382.5004883,53.199501 381.3695068,53.6415024 L381.8375244,54.4735031 C383.0335083,53.9925003 384.0474854,53.3554993 384.8795166,52.5755005 C385.6334839,53.2774963 386.5825195,53.9014969 387.7005005,54.4475021 L388.2075195,53.6285019 C387.115509,53.1474991 386.2055054,52.588501 385.4645081,51.9384995 C386.2705078,50.989502 386.8164978,49.8324966 387.1285095,48.4674988 L387.1285095,47.661499 L384.8665161,47.661499 L384.8665161,44.9964981 L386.8034973,44.9964981 C386.6735229,45.5684967 386.5175171,46.1015015 386.3485107,46.5695038 L387.1934814,46.8034973 C387.4404907,46.0755005 387.6224976,45.3345032 387.739502,44.5804977 L387.739502,44.1255035 L384.8665161,44.1255035 L384.8665161,42.5524979 L383.930481,42.5524979 Z M383.930481,44.9964981 L383.930481,47.661499 L381.9154968,47.661499 L381.9154968,44.9964981 L383.930481,44.9964981 Z M384.8015137,51.3014984 C384.0474854,50.4824982 383.5144958,49.5595016 383.2285156,48.5195007 L386.2445068,48.5195007 C385.9454956,49.5725021 385.4645081,50.4954987 384.8015137,51.3014984 Z M396.0595093,50.911499 C395.6694946,51.0155029 395.27948,51.1064987 394.8764954,51.1975021 L394.8764954,43.9434967 L395.8775024,43.9434967 L395.8775024,44.6715012 L396.397522,44.6715012 C396.5794983,46.8554993 397.1514893,48.8704987 398.1135254,50.7164993 C397.411499,51.8864975 396.5404968,52.8744965 395.4874878,53.7064972 L396.1245117,54.4345016 C397.0994873,53.6675034 397.9315186,52.7314987 398.6334839,51.6395035 C399.2315063,52.614502 399.9595032,53.550499 400.8305054,54.4475021 L401.4544983,53.7324982 C400.5314941,52.8355026 399.7514954,51.8475037 399.1275024,50.7815018 C400.0245056,49.0784988 400.6224976,47.024498 400.9085083,44.6194992 L400.9085083,43.7614975 L395.8775024,43.7614975 L395.8775024,43.0595016 L389.6895142,43.0595016 L389.6895142,43.9434967 L390.7164917,43.9434967 L390.7164917,51.9905014 C390.3265076,52.0425034 389.9365234,52.1074982 389.5465088,52.1595001 L389.7675171,53.0695038 C391.2235107,52.8615036 392.614502,52.614502 393.9664917,52.3284988 L393.9664917,54.4735031 L394.8764954,54.4735031 L394.8764954,52.1204987 C395.26651,52.0295029 395.6564941,51.9384995 396.0595093,51.8345032 L396.0595093,50.911499 Z M397.2554932,44.6715012 L400.0245056,44.6715012 C399.7904968,46.6084976 399.3095093,48.3115005 398.6074829,49.7935028 C397.8665161,48.2464981 397.411499,46.5435028 397.2554932,44.6715012 Z M393.9664917,51.4055023 C393.1995239,51.5615005 392.4194946,51.7174988 391.6264954,51.8475037 L391.6264954,49.6374969 L393.9664917,49.6374969 L393.9664917,51.4055023 Z M391.6264954,48.7925034 L391.6264954,46.8164978 L393.9664917,46.8164978 L393.9664917,48.7925034 L391.6264954,48.7925034 Z M391.6264954,45.9585037 L391.6264954,43.9434967 L393.9664917,43.9434967 L393.9664917,45.9585037 L391.6264954,45.9585037 Z M409.9564819,42.5914993 L409.9564819,46.1405029 L407.1744995,46.1405029 L407.1744995,54.4085007 L408.1105042,54.4085007 L408.1105042,51.626503 L412.8034973,51.626503 L412.8034973,52.9004974 C412.8034973,53.3034973 412.59552,53.5114975 412.1925049,53.5114975 L410.7365112,53.4854965 L410.9835205,54.3955002 L412.5045166,54.3955002 C413.3104858,54.3955002 413.7265015,53.9664993 413.7265015,53.1084976 L413.7265015,46.1405029 L410.9185181,46.1405029 L410.9185181,42.5914993 L409.9564819,42.5914993 Z M408.1105042,49.338501 L412.8034973,49.338501 L412.8034973,50.8205032 L408.1105042,50.8205032 L408.1105042,49.338501 Z M412.8034973,48.5325012 L408.1105042,48.5325012 L408.1105042,47.0374985 L412.8034973,47.0374985 L412.8034973,48.5325012 Z M407.3695068,42.9294968 L406.5895081,43.3065033 C407.1094971,43.9564972 407.5905151,44.6975021 408.0325012,45.5165024 L408.786499,45.1524963 C408.3314819,44.3464966 407.8635254,43.6054993 407.3695068,42.9294968 Z M413.5184937,42.864502 C413.15448,43.6445007 412.647522,44.4375 412.0234985,45.2434998 L412.7644958,45.6204987 C413.3884888,44.8535004 413.8955078,44.0605011 414.2855225,43.2285004 L413.5184937,42.864502 Z M405.2374878,49.2994995 C404.6135254,50.885498 403.8984985,52.4325027 403.0664978,53.9534988 L403.9244995,54.3304977 C404.7044983,52.8615036 405.4064941,51.2884979 406.0565186,49.6244965 L405.2374878,49.2994995 Z M403.963501,42.7474976 L403.3005066,43.3844986 C404.2625122,44.0865021 405.01651,44.7365036 405.5625,45.3604965 L406.2255249,44.6975021 C405.614502,44.0475006 404.8605042,43.3974991 403.963501,42.7474976 Z M403.5864868,45.8024979 L402.9235229,46.4394989 C403.8334961,47.1415024 404.5355225,47.8044968 405.055481,48.4154968 L405.7185059,47.7525024 C405.1464844,47.1025009 404.444519,46.4524994 403.5864868,45.8024979 Z M415.2084961,53.1735001" style="fill:rgb(255,3,3);stroke:none" clip-path="url(#clip13)" />
<clipPath id="clip14"><path d="M372,112 L460,112 L460,149 L372,149 L372,112 Z" /></clipPath>
<path d="M379,114 C376.2385864,114 374,116.2385712 374,119 L374,141 C374,143.7614288 376.2385864,146 379,146 L452,146 C454.7614136,146 457,143.7614288 457,141 L457,119 C457,116.2385712 454.7614136,114 452,114 Z M379,114" style="fill:rgb(220,230,242);stroke:none" clip-path="url(#clip14)" />
<clipPath id="clip15"><path d="M372,112 L460,112 L460,149 L372,149 L372,112 Z" /></clipPath>
<path d="M379,114 C376.2385864,114 374,116.2385712 374,119 L374,141 C374,143.7614288 376.2385864,146 379,146 L452,146 C454.7614136,146 457,143.7614288 457,141 L457,119 C457,116.2385712 454.7614136,114 452,114 Z M379,114" style="fill:none;stroke:rgb(85,142,213);stroke-width:2" clip-path="url(#clip15)" />
<clipPath id="clip16"><path d="M386,121 L446,121 L446,140 L386,140 L386,121 Z" /></clipPath>
<path d="M395.1224976,133.529007 L395.7464905,132.9049988 C395.2265015,132.098999 394.7064819,131.3580017 394.2124939,130.6820068 C394.5504761,129.5769958 394.8234863,128.3549957 395.0314941,127.0159988 L394.1734924,126.8600006 C394.0175171,127.9000015 393.8095093,128.8880005 393.5625,129.7980042 C393.0164795,129.0700073 392.4964905,128.4589996 392.0155029,127.9520035 L391.430481,128.5110016 C392.0285034,129.1999969 392.6394958,129.9539948 393.2634888,130.7859955 C392.8215027,132.098999 392.2625122,133.2429962 391.5864868,134.2050018 L392.1845093,134.9329987 C392.8475037,134.022995 393.4194946,132.9309998 393.8875122,131.6569977 C394.2904968,132.2420044 394.7064819,132.8659973 395.1224976,133.529007 Z M398.9315186,134.1269989 L399.5684814,133.503006 C399.009491,132.5670013 398.4765015,131.7220001 397.9824829,130.9680023 C398.3724976,129.7980042 398.6845093,128.4980011 398.9185181,127.0550003 L398.0344849,126.8990021 C397.852478,128.0169983 397.6315002,129.0700073 397.3454895,130.0449982 C396.7994995,129.2649994 396.27948,128.6150055 395.8114929,128.0820007 L395.2265015,128.6410065 C395.8244934,129.3690033 396.4094849,130.1750031 397.0075073,131.0590057 C396.5264893,132.3849945 395.9154968,133.5419922 395.1875,134.5299988 L395.7854919,135.2449951 C396.4874878,134.3350067 397.0985107,133.2429962 397.6184998,131.9689941 C398.0474854,132.6450043 398.489502,133.3600006 398.9315186,134.1269989 Z M399.52948,136.4019928 C400.2965088,136.4019928 400.6864929,135.9989929 400.6864929,135.2059937 L400.6864929,125.0920029 L390.3125,125.0920029 L390.3125,136.4539948 L391.2354736,136.4539948 L391.2354736,125.9889984 L399.7634888,125.9889984 L399.7634888,134.9980011 C399.7634888,135.348999 399.5814819,135.5310059 399.2174988,135.5310059 L397.9694824,135.4920044 L398.2164917,136.4019928 L399.52948,136.4019928 Z M407.4984741,133.8930054 C406.2244873,134.3739929 404.7294922,134.7640076 403.0264893,135.0500031 L403.1434937,135.9730072 C404.7814941,135.6609955 406.2244873,135.2709961 407.4984741,134.7769928 L407.4984741,133.8930054 Z M405.1715088,124.5329971 C404.6514893,126.0670013 404.0534973,127.4189987 403.364502,128.602005 C403.2474976,128.7709961 403.1174927,128.8880005 402.9744873,128.9530029 L403.2084961,129.8110046 C403.9234924,129.7070007 404.6254883,129.5899963 405.3275146,129.4600067 C404.6384888,130.7079926 404.0534973,131.5789948 403.5855103,132.098999 C403.4815063,132.2030029 403.338501,132.2940063 403.1694946,132.371994 L403.4165039,133.2169952 C404.6384888,133.0480042 405.9124756,132.7230072 407.2514954,132.2550049 L407.2514954,131.4100037 C406.3284912,131.7480011 405.4185181,132.0079956 404.5084839,132.2030029 C405.2365112,131.2669983 406.1594849,129.7070007 407.2774963,127.5100021 L406.4714966,127.2109985 C406.2374878,127.6920013 406.003479,128.1600037 405.7825012,128.602005 C405.2105103,128.7059937 404.6514893,128.7969971 404.0924988,128.875 C404.7424927,127.887001 405.3925171,126.5479965 406.0424805,124.8710022 L405.1715088,124.5329971 Z M413.6214905,131.6049957 L408.2785034,131.6049957 L408.2785034,136.4019928 L409.1754761,136.4019928 L409.1754761,135.8430023 L412.7244873,135.8430023 L412.7244873,136.4019928 L413.6214905,136.4019928 L413.6214905,131.6049957 Z M409.1754761,134.9850006 L409.1754761,132.4629974 L412.7244873,132.4629974 L412.7244873,134.9850006 L409.1754761,134.9850006 Z M409.5654907,124.5329971 C409.1494751,125.9110031 408.3695068,127.0810013 407.2124939,128.0299988 L407.7584839,128.7579956 C408.1875,128.4069977 408.5775146,128.0169983 408.9284973,127.6009979 C409.27948,128.1730042 409.6954956,128.7189941 410.1895142,129.2129974 C409.2924805,129.8630066 408.213501,130.4089966 406.9655151,130.8769989 L407.5374756,131.6309967 C408.8114929,131.1369934 409.9295044,130.526001 410.8654785,129.8240051 C411.8015137,130.5780029 412.9454956,131.1499939 414.3104858,131.5659943 L414.8435059,130.798996 C413.569519,130.4349976 412.4644775,129.9149933 411.5545044,129.2519989 C412.4514771,128.4329987 413.1405029,127.4840012 413.6214905,126.4049988 L413.6214905,125.7289963 L410.0985107,125.7289963 C410.2285156,125.4039993 410.35849,125.0660019 410.4624939,124.7019958 L409.5654907,124.5329971 Z M409.4354858,126.9380035 C409.5134888,126.8209991 409.5914917,126.6910019 409.6694946,126.560997 L412.6074829,126.560997 C412.1784973,127.3410034 411.5935059,128.0429993 410.852478,128.6799927 C410.2935181,128.1730042 409.8255005,127.5879974 409.4354858,126.9380035 Z M425.9064941,125.0660019 L417.5344849,125.0660019 L417.5344849,129.3170013 C417.5344849,130.0970001 417.9505005,130.5 418.7825012,130.5 L426.2445068,130.5 C426.7904968,130.4869995 427.1674805,130.2919922 427.3494873,129.9019928 C427.4664917,129.6419983 427.5574951,129.2259979 427.6094971,128.628006 L426.7644958,128.3549957 C426.7124939,128.901001 426.6474915,129.2519989 426.5565186,129.3950043 C426.4525146,129.5509949 426.2575073,129.6419983 425.9844971,129.6549988 L419.1204834,129.6549988 C418.6784973,129.6549988 418.457489,129.4340057 418.457489,128.9920044 L418.457489,128.1210022 L425.9064941,128.1210022 L425.9064941,125.0660019 Z M418.457489,127.276001 L418.457489,125.9110031 L424.9964905,125.9110031 L424.9964905,127.276001 L418.457489,127.276001 Z M416.0914917,132.4369965 L416.0914917,133.2819977 L419.3414917,133.2819977 C419.0814819,134.4649963 418.2625122,135.2579956 416.884491,135.647995 L417.378479,136.4539948 C418.9644775,135.9080048 419.9265137,134.8419952 420.2514954,133.2819977 L423.7874756,133.2819977 L423.7874756,136.4019928 L424.7235107,136.4019928 L424.7235107,133.2819977 L427.9735107,133.2819977 L427.9735107,132.4369965 L424.7235107,132.4369965 L424.7235107,131.0070038 L423.7874756,131.0070038 L423.7874756,132.4369965 L420.3684998,132.4369965 C420.3815002,132.1380005 420.3945007,131.6569977 420.3945007,130.9940033 L419.4584961,130.9940033 C419.4584961,131.6049957 419.4454956,132.0859985 419.4324951,132.4369965 L416.0914917,132.4369965 Z M434.7984924,131.2279968 L434.7984924,132.2680054 L430.7294922,132.2680054 L430.7294922,135.8820038 L431.6524963,135.8820038 L431.6524963,133.1260071 L434.7984924,133.1260071 L434.7984924,136.5059967 L435.760498,136.5059967 L435.760498,133.1260071 L438.9714966,133.1260071 L438.9714966,134.4259949 C438.9714966,134.7640076 438.7764893,134.9459991 438.4124756,134.9459991 L437.4244995,134.9069977 L437.6715088,135.8040009 L438.7114868,135.8040009 C439.4915161,135.8040009 439.8945007,135.4140015 439.8945007,134.6340027 L439.8945007,132.2680054 L435.760498,132.2680054 L435.760498,131.2279968 L438.6464844,131.2279968 L438.6464844,128.3679962 L431.9384766,128.3679962 L431.9384766,131.2279968 L434.7984924,131.2279968 Z M434.7984924,124.4940033 L434.7984924,126.4830017 L432.9135132,126.4830017 C432.6405029,125.8199997 432.3284912,125.2480011 431.9904785,124.7669983 L431.1065063,125.0920029 C431.444519,125.5209961 431.7434998,125.9889984 431.9904785,126.4830017 L429.8714905,126.4830017 L429.8714905,129.121994 L430.8334961,129.121994 L430.8334961,127.3669968 L439.7254944,127.3669968 L439.7254944,129.1089935 L440.6875,129.1089935 L440.6875,126.4830017 L438.3994751,126.4830017 C438.7114868,126.0670013 439.0234985,125.572998 439.3225098,125.0009995 L438.4514771,124.6760025 C438.1654968,125.3130035 437.8145142,125.9110031 437.411499,126.4830017 L435.760498,126.4830017 L435.760498,124.4940033 L434.7984924,124.4940033 Z M437.7495117,130.4349976 L432.8485107,130.4349976 L432.8485107,129.1609955 L437.7495117,129.1609955 L437.7495117,130.4349976 Z M441.77948,135.1799927" style="fill:rgb(255,3,3);stroke:none" clip-path="url(#clip16)" />
<clipPath id="clip17"><path d="M332,194 L420,194 L420,231 L332,231 L332,194 Z" /></clipPath>
<path d="M339,196 C336.2385864,196 334,198.2385712 334,201 L334,223 C334,225.7614288 336.2385864,228 339,228 L412,228 C414.7614136,228 417,225.7614288 417,223 L417,201 C417,198.2385712 414.7614136,196 412,196 Z M339,196" style="fill:rgb(220,230,242);stroke:none" clip-path="url(#clip17)" />
<clipPath id="clip18"><path d="M332,194 L420,194 L420,231 L332,231 L332,194 Z" /></clipPath>
<path d="M339,196 C336.2385864,196 334,198.2385712 334,201 L334,223 C334,225.7614288 336.2385864,228 339,228 L412,228 C414.7614136,228 417,225.7614288 417,223 L417,201 C417,198.2385712 414.7614136,196 412,196 Z M339,196" style="fill:none;stroke:rgb(85,142,213);stroke-width:2" clip-path="url(#clip18)" />
<clipPath id="clip19"><path d="M346,203 L406,203 L406,222 L346,222 L346,203 Z" /></clipPath>
<path d="M357.0920105,206.5589905 L357.0920105,207.4039917 L353.9459839,207.4039917 L353.9459839,208.17099 L357.0920105,208.17099 L357.0920105,209.0419922 L354.4660034,209.0419922 L354.4660034,209.79599 L357.0920105,209.79599 L357.0920105,210.6799927 L353.5820007,210.6799927 L353.5820007,211.4599915 L361.5379944,211.4599915 L361.5379944,210.6799927 L357.9890137,210.6799927 L357.9890137,209.79599 L360.7449951,209.79599 L360.7449951,209.0419922 L357.9890137,209.0419922 L357.9890137,208.17099 L361.2130127,208.17099 L361.2130127,207.4039917 L357.9890137,207.4039917 L357.9890137,206.5589905 L357.0920105,206.5589905 Z M355.4670105,214.7359924 L359.6660156,214.7359924 L359.6660156,215.6849976 L355.4670105,215.6849976 L355.4670105,214.7359924 Z M359.6660156,214.0079956 L355.4670105,214.0079956 L355.4670105,213.04599 L359.6660156,213.04599 L359.6660156,214.0079956 Z M355.4670105,216.4129944 L359.6660156,216.4129944 L359.6660156,217.1539917 C359.6660156,217.4530029 359.4970093,217.6090088 359.1849976,217.6090088 L358.1450195,217.5700073 L358.3659973,218.4020081 L359.4580078,218.4020081 C360.1860046,218.4020081 360.5629883,218.0509949 360.5629883,217.348999 L360.5629883,212.2789917 L354.5700073,212.2789917 L354.5700073,218.480011 L355.4670105,218.480011 L355.4670105,216.4129944 Z M351.2290039,206.7019958 L350.5660095,207.3389893 C351.5020142,208.0410004 352.2430115,208.70401 352.7890015,209.3280029 L353.4259949,208.678009 C352.8280029,208.0149994 352.1000061,207.3519897 351.2290039,206.7019958 Z M349.6560059,210.5370026 L349.6560059,211.4339905 L351.5150146,211.4339905 L351.5150146,216.5950012 C351.5150146,216.8160095 351.4110107,217.0110016 351.2160034,217.1929932 L351.5800171,218.0249939 C352.3859863,217.4400024 353.1660156,216.7640076 353.8939819,216.0100098 L353.6470032,215.0220032 C353.2050171,215.4769897 352.802002,215.8800049 352.4119873,216.2440033 L352.4119873,210.5370026 L349.6560059,210.5370026 Z M363.3059998,208.951004 L363.3059998,209.8479919 L368.480011,209.8479919 L368.480011,212.2789917 C366.9459839,214.177002 365.178009,215.6589966 363.1759949,216.7510071 L363.6829834,217.5960083 C365.5159912,216.4779968 367.1149902,215.0740051 368.480011,213.4100037 L368.480011,216.9589996 C368.480011,217.3619995 368.2980042,217.5700073 367.946991,217.5700073 C367.427002,217.5700073 366.8939819,217.5440063 366.321991,217.5050049 L366.5169983,218.4020081 L368.2720032,218.4020081 C369.052002,218.4020081 369.4420166,217.9989929 369.4420166,217.1929932 L369.4420166,212.1360016 C370.5079956,214.2290039 372.0809937,215.9970093 374.1870117,217.4530029 L374.8370056,216.6860046 C373.4069824,215.776001 372.197998,214.7099915 371.2229919,213.5010071 C372.223999,212.8120117 373.0820007,212.0059967 373.7969971,211.0830078 L373.1080017,210.4720001 C372.4450073,211.3560028 371.6520081,212.1490021 370.7290039,212.8509979 C370.2219849,212.1490021 369.7929993,211.394989 369.4420166,210.6019897 L369.4420166,209.8479919 L374.4079895,209.8479919 L374.4079895,208.951004 L372.4320068,208.951004 L373.0429993,208.3399963 C372.5230103,207.7680054 371.8729858,207.1829987 371.0930176,206.6109924 L370.4819946,207.1829987 C371.2619934,207.8070068 371.8989868,208.3919983 372.3800049,208.951004 L369.4420166,208.951004 L369.4420166,206.519989 L368.480011,206.519989 L368.480011,208.951004 L363.3059998,208.951004 Z M364.5670166,210.7449951 L363.9169922,211.3560028 C364.8659973,212.201004 365.6069946,212.9940033 366.1400146,213.7350006 L366.7900085,213.0979919 C366.1920166,212.3179932 365.4509888,211.5249939 364.5670166,210.7449951 Z M382.3250122,212.526001 L382.3250122,216.5690002 L387.3170166,216.5690002 L387.3170166,212.526001 L382.3250122,212.526001 Z M386.4589844,215.75 L383.1569824,215.75 L383.1569824,213.3580017 L386.4589844,213.3580017 L386.4589844,215.75 Z M376.7219849,208.3139954 L376.7219849,209.1459961 L378.697998,209.1459961 L378.697998,211.0700073 L376.565979,211.0700073 L376.565979,211.928009 L378.9710083,211.928009 L378.9710083,216.321991 C378.5289917,215.9450073 378.1390076,215.4380035 377.8009949,214.8009949 C377.8789978,214.177002 377.9309998,213.5270081 377.9570007,212.8509979 L377.151001,212.7600098 C377.098999,214.6320038 376.7739868,216.3349915 376.2019958,217.8430023 L376.8779907,218.45401 C377.1900024,217.6870117 377.4240112,216.8680115 377.6060181,215.9840088 C378.1520081,216.803009 378.7890015,217.375 379.4909973,217.6999969 C380.2969971,218.0639954 382.3250122,218.2590027 385.5620117,218.2590027 L387.8760071,218.2590027 L388.0319824,217.322998 C387.4470215,217.348999 386.5499878,217.3619995 385.3540039,217.375 C382.5980225,217.375 380.8300171,217.2319946 380.0629883,216.9720001 C379.9979858,216.9459991 379.9329834,216.9199982 379.8549805,216.8809967 L379.8549805,214.6190033 L381.5319824,214.6190033 L381.5319824,213.7610016 L379.8549805,213.7610016 L379.8549805,211.928009 L381.5189819,211.928009 L381.5189819,211.0700073 L379.5950012,211.0700073 L379.5950012,209.1459961 L381.5449829,209.1459961 L381.5449829,208.3139954 L379.5950012,208.3139954 L379.5950012,206.54599 L378.697998,206.54599 L378.697998,208.3139954 L376.7219849,208.3139954 Z M383.7810059,208.0540009 C383.651001,208.7819977 383.4429932,209.3670044 383.1699829,209.821991 C382.8580017,210.3160095 382.3900146,210.7709961 381.7659912,211.1870117 L382.3770142,211.95401 C383.0789795,211.4599915 383.6119995,210.8880005 383.9760132,210.2510071 C384.2619934,209.7050018 384.4830017,208.9769897 384.6520081,208.0540009 L386.6019897,208.0540009 C386.5889893,209.3930054 386.5239868,210.2120056 386.4199829,210.5240021 C386.315979,210.848999 386.0690002,211.0180054 385.6660156,211.0310059 L384.71698,210.9660034 L384.9509888,211.7850037 C385.3150024,211.8110046 385.6140137,211.8370056 385.8740234,211.8370056 C386.4719849,211.8370056 386.8880005,211.6159973 387.1220093,211.1740112 C387.3690186,210.7319946 387.4990234,209.4060059 387.4990234,207.1959991 L381.9869995,207.1959991 L381.9869995,208.0540009 L383.7810059,208.0540009 Z M393.7000122,207.5339966 L389.9559937,207.5339966 L389.9559937,217.427002 L390.8659973,217.427002 L390.8659973,216.2440033 L392.789978,216.2440033 L392.789978,217.1149902 L393.7000122,217.1149902 L393.7000122,207.5339966 Z M390.8659973,215.3730011 L390.8659973,212.2399902 L392.789978,212.2399902 L392.789978,215.3730011 L390.8659973,215.3730011 Z M390.8659973,211.3690033 L390.8659973,208.3919983 L392.789978,208.3919983 L392.789978,211.3690033 L390.8659973,211.3690033 Z M395.5720215,211.4079895 L394.8049927,211.8890076 C395.585022,213.0849915 396.1959839,214.177002 396.651001,215.1520081 L397.4309998,214.6060028 C397.0020142,213.6959991 396.3779907,212.6300049 395.5720215,211.4079895 Z M398.5360107,218.3500061 C399.34198,218.3500061 399.7449951,217.9339905 399.7449951,217.1149902 L399.7449951,209.8479919 L401.3439941,209.8479919 L401.3439941,208.951004 L399.7449951,208.951004 L399.7449951,206.6629944 L398.7960205,206.6629944 L398.7960205,208.951004 L394.2980042,208.951004 L394.2980042,209.8479919 L398.7960205,209.8479919 L398.7960205,216.8809967 C398.7960205,217.2839966 398.6010132,217.4920044 398.223999,217.4920044 C397.5350037,217.4920044 396.8200073,217.4660034 396.065979,217.4400024 L396.2609863,218.3500061 L398.5360107,218.3500061 Z M401.8900146,217.1799927" style="fill:rgb(255,3,3);stroke:none" clip-path="url(#clip19)" />
<clipPath id="clip20"><path d="M83,209 L184,209 L184,246 L83,246 L83,209 Z" /></clipPath>
<path d="M90,211 C87.2385712,211 85,213.2385712 85,216 L85,238 C85,240.7614288 87.2385712,243 90,243 L176,243 C178.7614288,243 181,240.7614288 181,238 L181,216 C181,213.2385712 178.7614288,211 176,211 Z M90,211" style="fill:rgb(220,230,242);stroke:none" clip-path="url(#clip20)" />
<clipPath id="clip21"><path d="M83,209 L184,209 L184,246 L83,246 L83,209 Z" /></clipPath>
<path d="M90,211 C87.2385712,211 85,213.2385712 85,216 L85,238 C85,240.7614288 87.2385712,243 90,243 L176,243 C178.7614288,243 181,240.7614288 181,238 L181,216 C181,213.2385712 178.7614288,211 176,211 Z M90,211" style="fill:none;stroke:rgb(85,142,213);stroke-width:2" clip-path="url(#clip21)" />
<clipPath id="clip22"><path d="M97,218 L170,218 L170,237 L97,237 L97,218 Z" /></clipPath>
<path d="M102.5279999,226.0050049 L104.6210022,226.0050049 L104.6210022,228.1759949 L102.5279999,228.1759949 L102.5279999,226.0050049 Z M104.6210022,225.1600037 L102.5279999,225.1600037 L102.5279999,222.9629974 L104.6210022,222.9629974 L104.6210022,225.1600037 Z M102.5149994,229.0209961 L104.6210022,229.0209961 L104.6210022,231.9589996 C104.6210022,232.427002 104.4519958,232.6610107 104.1269989,232.6610107 C103.8150024,232.6610107 103.4900055,232.6350098 103.1260071,232.6090088 L103.3470001,233.4410095 L104.3870087,233.4410095 C105.1150055,233.4410095 105.4790039,233.0379944 105.4790039,232.2579956 L105.4790039,222.1180115 L101.6829987,222.1180115 L101.6829987,228.3580017 C101.6699982,230.178009 101.4100037,231.6860046 100.8899994,232.8560028 L101.5919952,233.5059967 C102.125,232.3359985 102.4369965,230.8410034 102.5149994,229.0209961 Z M107.4550018,227.7340088 L107.7669983,227.7340088 C108.053009,229.0079956 108.6119995,230.1520081 109.4440002,231.1660004 C108.923996,231.7900085 108.3000031,232.2969971 107.5590057,232.6999969 L108.053009,233.45401 C108.8330078,233.0379944 109.4960022,232.5050049 110.0680084,231.8420105 C110.6660004,232.427002 111.3679962,232.9599915 112.1999969,233.4410095 L112.6679993,232.6480103 C111.875,232.1929932 111.1860046,231.6860046 110.6009979,231.1139984 C111.1990051,230.178009 111.628006,229.0339966 111.875,227.6950073 L111.875,226.9020081 L107.4550018,226.9020081 L107.4550018,222.9629974 L110.9260101,222.9629974 C110.9000092,223.951004 110.8480072,224.5879974 110.7570038,224.8739929 C110.6790009,225.0690002 110.5619965,225.1990051 110.4060059,225.2510071 C110.25,225.2900085 110.029007,225.3160095 109.7169952,225.3160095 C109.3529968,225.3160095 109.0670013,225.303009 108.8460083,225.303009 L109.0930023,226.1090088 L110.1459961,226.1090088 C110.9649963,226.1090088 111.4459991,225.8359985 111.602005,225.303009 C111.7579956,224.7829895 111.8359985,223.7170105 111.8359985,222.105011 L106.5709991,222.105011 L106.5709991,233.4930115 L107.4550018,233.4930115 L107.4550018,227.7340088 Z M108.572998,227.7340088 L111.0429993,227.7340088 C110.8090057,228.7610016 110.4580078,229.6579895 109.977005,230.4380035 C109.3139954,229.6320038 108.8460083,228.7350006 108.572998,227.7340088 Z M117.8939972,221.519989 C117.3480072,222.8200073 116.2819977,223.9120026 114.7220001,224.8089905 L115.2940063,225.5630035 C115.8919983,225.1990051 116.4250031,224.79599 116.9190063,224.3540039 C117.5429993,224.8999939 118.2190094,225.3939972 118.9470062,225.822998 C117.5169983,226.394989 115.8659973,226.8110046 113.9810028,227.0709991 L114.4100037,227.9550018 C116.5160065,227.6300049 118.375,227.0970001 119.9610062,226.3690033 C121.5730057,227.1750031 123.4060059,227.6950073 125.4599991,227.9290009 L125.8889999,227.0579987 C124.0820007,226.8760071 122.4440002,226.4729919 120.9750061,225.848999 C122.1710052,225.1730042 123.1850052,224.3540039 124.0170059,223.3919983 L124.0170059,222.6380005 L118.348999,222.6380005 C118.5310059,222.326004 118.6999969,222.0010071 118.8430023,221.6499939 L117.8939972,221.519989 Z M119.9480057,225.3680115 C119.0770035,224.9129944 118.2709961,224.3670044 117.5429993,223.730011 L117.7120056,223.5220032 L122.6780014,223.5220032 C121.9110031,224.223999 121.0009995,224.8479919 119.9480057,225.3680115 Z M119.1549988,227.3049927 C119.1549988,227.8249969 119.1030045,228.3190002 118.9990082,228.7870026 L114.8650055,228.7870026 L114.8650055,229.6320038 L118.7389984,229.6320038 C118.6350098,229.8919983 118.4920044,230.1390076 118.3359985,230.3730011 C117.6600037,231.321991 116.2429962,232.1149902 114.1110077,232.7389984 L114.7350006,233.5059967 C117.1269989,232.7519989 118.647995,231.7770081 119.3110046,230.6069946 C119.4800034,230.2949982 119.6230011,229.9700012 119.727005,229.6320038 L123.5750046,229.6320038 C123.5360031,230.9320068 123.4190063,231.7380066 123.223999,232.0500031 C123.0159988,232.3619995 122.5350037,232.5310059 121.7550049,232.5440063 L120.2210007,232.4790039 L120.4550018,233.3240051 C121.0530014,233.3500061 121.5600052,233.3760071 121.9760056,233.3760071 C122.8990021,233.3760071 123.5490036,233.1549988 123.9260025,232.7259979 C124.3030014,232.2969971 124.4980011,230.9840088 124.5240021,228.7870026 L119.9480057,228.7870026 C120.026001,228.3190002 120.0780029,227.8249969 120.0780029,227.3049927 L119.1549988,227.3049927 Z M128.5019989,222.053009 L128.5019989,225.2120056 L132.4670105,225.2120056 L132.4670105,222.053009 L128.5019989,222.053009 Z M131.6090088,224.4190063 L129.3470001,224.4190063 L129.3470001,222.8590088 L131.6090088,222.8590088 L131.6090088,224.4190063 Z M133.9100037,222.053009 L133.9100037,225.2120056 L137.9530029,225.2120056 L137.9530029,222.053009 L133.9100037,222.053009 Z M137.1080017,224.4190063 L134.7680054,224.4190063 L134.7680054,222.8590088 L137.1080017,222.8590088 L137.1080017,224.4190063 Z M127.4490051,226.5119934 L127.4490051,227.3439941 L131.0370026,227.3439941 C130.1269989,228.1239929 128.8529968,228.7610016 127.189003,229.2550049 L127.6180038,230.0220032 C127.9820023,229.9049988 128.3330078,229.7879944 128.6840057,229.6579895 L128.6840057,233.4930115 L129.503006,233.4930115 L129.503006,232.9339905 L131.7260132,232.9339905 L131.7260132,233.4930115 L132.5580139,233.4930115 L132.5580139,229.3980103 L129.2950134,229.3980103 C130.5169983,228.8519897 131.4920044,228.1759949 132.2200012,227.3439941 L134.4169922,227.3439941 C135.0670013,228.1369934 136.0289917,228.826004 137.2770081,229.3980103 L133.8059998,229.3980103 L133.8059998,233.4930115 L134.6380005,233.4930115 L134.6380005,232.9339905 L137.0690002,232.9339905 L137.0690002,233.4930115 L137.901001,233.4930115 L137.901001,229.67099 C138.1870117,229.7749939 138.4859924,229.8919983 138.8110046,229.9960022 L139.1880035,229.2030029 C137.5110016,228.7480011 136.25,228.1239929 135.4049988,227.3439941 L138.9150085,227.3439941 L138.9150085,226.5119934 L137.1210022,226.5119934 C136.9129944,226.1090088 136.6790009,225.7319946 136.4060059,225.3680115 L135.6130066,225.6279907 C135.8209991,225.8880005 136.0159912,226.1870117 136.197998,226.5119934 L132.8439941,226.5119934 C133.026001,226.1999969 133.1950073,225.8880005 133.3250122,225.5500031 L132.428009,225.4589996 C132.2720032,225.822998 132.0769958,226.1740112 131.8300018,226.5119934 L127.4490051,226.5119934 Z M129.503006,232.1279907 L129.503006,230.178009 L131.7260132,230.178009 L131.7260132,232.1279907 L129.503006,232.1279907 Z M134.6380005,232.1279907 L134.6380005,230.178009 L137.0690002,230.178009 L137.0690002,232.1279907 L134.6380005,232.1279907 Z M150.32901,222.0660095 L141.9570007,222.0660095 L141.9570007,226.3170013 C141.9570007,227.0970001 142.3730011,227.5 143.2050018,227.5 L150.6669922,227.5 C151.2130127,227.4869995 151.5899963,227.2919922 151.7720032,226.9020081 C151.8890076,226.6419983 151.980011,226.2259979 152.0320129,225.6279907 L151.1870117,225.355011 C151.1350098,225.901001 151.0700073,226.2519989 150.9790039,226.394989 C150.875,226.5509949 150.6799927,226.6419983 150.4070129,226.6549988 L143.5429993,226.6549988 C143.1010132,226.6549988 142.8800049,226.4339905 142.8800049,225.9920044 L142.8800049,225.1210022 L150.32901,225.1210022 L150.32901,222.0660095 Z M142.8800049,224.276001 L142.8800049,222.9110107 L149.4190063,222.9110107 L149.4190063,224.276001 L142.8800049,224.276001 Z M140.5140076,229.4370117 L140.5140076,230.2819977 L143.7640076,230.2819977 C143.5039978,231.4649963 142.6849976,232.2579956 141.3070068,232.6480103 L141.8009949,233.45401 C143.3869934,232.9079895 144.348999,231.8420105 144.6740112,230.2819977 L148.2099915,230.2819977 L148.2099915,233.4020081 L149.1459961,233.4020081 L149.1459961,230.2819977 L152.3959961,230.2819977 L152.3959961,229.4370117 L149.1459961,229.4370117 L149.1459961,228.0070038 L148.2099915,228.0070038 L148.2099915,229.4370117 L144.7910004,229.4370117 C144.8040009,229.1380005 144.8170013,228.6569977 144.8170013,227.9940033 L143.881012,227.9940033 C143.881012,228.605011 143.8680115,229.0859985 143.855011,229.4370117 L140.5140076,229.4370117 Z M159.2210083,228.2279968 L159.2210083,229.2680054 L155.1520081,229.2680054 L155.1520081,232.8820038 L156.0750122,232.8820038 L156.0750122,230.1260071 L159.2210083,230.1260071 L159.2210083,233.5059967 L160.1830139,233.5059967 L160.1830139,230.1260071 L163.3940125,230.1260071 L163.3940125,231.4259949 C163.3940125,231.7640076 163.1990051,231.9459991 162.8349915,231.9459991 L161.8470001,231.9069977 L162.0939941,232.8040009 L163.1340027,232.8040009 C163.9140015,232.8040009 164.3170013,232.4140015 164.3170013,231.6340027 L164.3170013,229.2680054 L160.1830139,229.2680054 L160.1830139,228.2279968 L163.0690002,228.2279968 L163.0690002,225.3680115 L156.3609924,225.3680115 L156.3609924,228.2279968 L159.2210083,228.2279968 Z M159.2210083,221.4940033 L159.2210083,223.4830017 L157.3359985,223.4830017 C157.0630035,222.8200073 156.7510071,222.2480011 156.4129944,221.7669983 L155.5289917,222.0920105 C155.8670044,222.5209961 156.1660004,222.9889984 156.4129944,223.4830017 L154.2940063,223.4830017 L154.2940063,226.1220093 L155.256012,226.1220093 L155.256012,224.3670044 L164.1480103,224.3670044 L164.1480103,226.1090088 L165.1100006,226.1090088 L165.1100006,223.4830017 L162.8220062,223.4830017 C163.1340027,223.0670013 163.4459991,222.572998 163.7449951,222.0010071 L162.8739929,221.6759949 C162.5880127,222.3130035 162.2369995,222.9110107 161.8339996,223.4830017 L160.1830139,223.4830017 L160.1830139,221.4940033 L159.2210083,221.4940033 Z M162.1719971,227.4349976 L157.2709961,227.4349976 L157.2709961,226.1610107 L162.1719971,226.1610107 L162.1719971,227.4349976 Z M166.2019958,232.1799927" style="fill:rgb(255,3,3);stroke:none" clip-path="url(#clip22)" />
<clipPath id="clip23"><path d="M14,144 L128,144 L128,181 L14,181 L14,144 Z" /></clipPath>
<path d="M21,146 C18.2385712,146 16,148.2385712 16,151 L16,173 C16,175.7614288 18.2385712,178 21,178 L120,178 C122.7614288,178 125,175.7614288 125,173 L125,151 C125,148.2385712 122.7614288,146 120,146 Z M21,146" style="fill:rgb(220,230,242);stroke:none" clip-path="url(#clip23)" />
<clipPath id="clip24"><path d="M14,144 L128,144 L128,181 L14,181 L14,144 Z" /></clipPath>
<path d="M21,146 C18.2385712,146 16,148.2385712 16,151 L16,173 C16,175.7614288 18.2385712,178 21,178 L120,178 C122.7614288,178 125,175.7614288 125,173 L125,151 C125,148.2385712 122.7614288,146 120,146 Z M21,146" style="fill:none;stroke:rgb(85,142,213);stroke-width:2" clip-path="url(#clip24)" />
<clipPath id="clip25"><path d="M28,153 L114,153 L114,172 L28,172 L28,153 Z" /></clipPath>
<path d="M37.6620026,160.5695038 L37.6620026,165.6654968 L40.6389923,165.6654968 L40.6389923,160.5695038 L37.6620026,160.5695038 Z M39.8329926,164.885498 L38.4680023,164.885498 L38.4680023,161.3495026 L39.8329926,161.3495026 L39.8329926,164.885498 Z M38.5070038,156.4615021 C38.4290009,157.0724945 38.298996,157.6705017 38.1299896,158.2424927 L35.7119904,158.2424927 L35.7119904,168.4085083 L36.621994,168.4085083 L36.621994,159.1264954 L41.7050018,159.1264954 L41.7050018,166.6665039 C41.7050018,167.1994934 41.496994,167.4725037 41.0939941,167.4725037 L39.625,167.4465027 L39.871994,168.3565063 L41.4059906,168.3565063 C42.2119904,168.3565063 42.6279907,167.8495026 42.6279907,166.861496 L42.6279907,158.2424927 L39.1049957,158.2424927 C39.2740021,157.7355042 39.4039917,157.1894989 39.5079956,156.6044922 L38.5070038,156.4615021 Z M34.8669891,157.6575012 L31.6169891,157.6575012 L31.6169891,167.4985046 L32.5269928,167.4985046 L32.5269928,166.3934937 L33.9570007,166.3934937 L33.9570007,167.1864929 L34.8669891,167.1864929 L34.8669891,157.6575012 Z M32.5269928,165.5224915 L32.5269928,158.5415039 L33.9570007,158.5415039 L33.9570007,165.5224915 L32.5269928,165.5224915 Z M46.7489929,166.9915009 L46.7489929,167.9015045 L55.927002,167.9015045 L55.927002,166.9915009 L53.1839905,166.9915009 C53.9899902,165.0675049 54.6529999,162.8574982 55.1989899,160.3874969 L54.276001,160.1405029 C53.6779938,162.8704987 52.9759979,165.1455078 52.1699982,166.9915009 L46.7489929,166.9915009 Z M48.1660004,160.7774963 L47.3470001,161.0375061 C47.8929901,162.5455017 48.3349915,164.1315002 48.6859894,165.7695007 L49.5699921,165.5484924 C49.1539917,163.7545013 48.6859894,162.1555023 48.1660004,160.7774963 Z M50.6750031,159.8544922 L49.8560028,160.114502 C50.3239899,161.6744995 50.7009888,163.2994995 50.9869995,164.989502 L51.8840027,164.7814941 C51.519989,162.9355011 51.1169891,161.2845001 50.6750031,159.8544922 Z M50.6880035,156.4355011 L49.6609955,156.6174927 C49.92099,156.9815063 50.1549988,157.3715057 50.3629913,157.7875061 L45.5399933,157.7875061 L45.5399933,161.5964966 C45.5139923,164.2355042 45.1239929,166.289505 44.3959961,167.7714996 L45.1629944,168.460495 C46.0079956,166.7445068 46.4499969,164.4564972 46.5019989,161.5964966 L46.5019989,158.6974945 L56.1349945,158.6974945 L56.1349945,157.7875061 L51.3769989,157.7875061 C51.1689911,157.2935028 50.9349976,156.838501 50.6880035,156.4355011 Z M64.8320007,163.5205078 L66.3659973,163.5205078 L66.3659973,165.1065063 L63.5319977,165.1065063 L63.5319977,165.9515076 L66.3659973,165.9515076 L66.3659973,168.4994965 L67.276001,168.4994965 L67.276001,165.9515076 L69.4859924,165.9515076 L69.4859924,165.1065063 L67.276001,165.1065063 L67.276001,163.5205078 L69.2129974,163.5205078 L69.2129974,162.6755066 L67.276001,162.6755066 L67.276001,161.4664917 L66.3659973,161.4664917 L66.3659973,162.6755066 L65.1699982,162.6755066 C65.2480011,162.3764954 65.3259888,162.0514984 65.4039917,161.7005005 L64.6239929,161.5574951 C64.4290009,162.5975037 64.052002,163.4165039 63.4799957,164.0404968 L64.026001,164.7034912 C64.3379974,164.365509 64.5979919,163.9754944 64.8320007,163.5205078 Z M65.3649902,158.1515045 C65.2740021,158.5805054 65.1309967,158.9575043 64.9359894,159.2955017 C64.6499939,159.763504 64.2079926,160.1795044 63.6230011,160.5175018 L64.1689911,161.2324982 C64.8320007,160.7904968 65.3389893,160.283493 65.677002,159.7375031 C65.923996,159.2825012 66.1190033,158.7494965 66.2489929,158.1515045 L68.1600037,158.1515045 C68.1340027,159.0874939 68.0820007,159.6725006 68.0039978,159.8934937 C67.9129944,160.114502 67.6920013,160.2315063 67.3280029,160.2445068 C67.0289917,160.2315063 66.6519928,160.2055054 66.2099915,160.1795044 L66.4309998,160.9595032 C66.8470001,160.9855042 67.2109985,161.0115051 67.522995,161.0115051 C68.0820007,161.0115051 68.4720001,160.8294983 68.7059937,160.4915009 C68.9400024,160.1405029 69.0569916,159.0874939 69.0569916,157.3195038 L63.6360016,157.3195038 L63.6360016,158.1515045 L65.3649902,158.1515045 Z M59.2290039,162.8444977 L60.4120026,162.8444977 L60.4120026,164.5475006 L59.2160034,164.5475006 C59.2160034,164.4434967 59.2290039,164.3525085 59.2290039,164.2485046 L59.2290039,162.8444977 Z M59.177002,165.3404999 L60.4120026,165.3404999 L60.4120026,168.2785034 L61.1660004,168.2785034 L61.1660004,165.3404999 L62.375,165.3404999 L62.375,167.1474915 C62.375,167.4595032 62.2319946,167.6284943 61.9459991,167.6284943 C61.7379913,167.6284943 61.5039978,167.6025085 61.2570038,167.5765076 L61.4779968,168.3565063 L62.2189941,168.3565063 C62.8430023,168.3565063 63.1679993,168.0444946 63.1679993,167.4335022 L63.1679993,159.6334991 L61.6080017,159.6334991 C61.8939972,159.2304993 62.1929932,158.736496 62.4790039,158.164505 L62.4790039,157.5144958 L60.1649933,157.5144958 C60.2689972,157.2545013 60.3860016,156.9685059 60.4899902,156.6824951 L59.644989,156.4875031 C59.1380005,157.8395081 58.5009918,158.9315033 57.720993,159.763504 L58.2929993,160.4524994 C58.3320007,160.4004974 58.3710022,160.361496 58.4229889,160.309494 L58.4229889,164.3005066 C58.4100037,165.7825012 58.1499939,167.0175018 57.6559906,167.9794922 L58.2929993,168.5644989 C58.7610016,167.7064972 59.0599976,166.6275024 59.177002,165.3404999 Z M60.6589966,159.6334991 L58.9689941,159.6334991 C59.2549896,159.2174988 59.5410004,158.7754974 59.8009949,158.2814941 L61.4909973,158.2814941 C61.2050018,158.7884979 60.9319916,159.2434998 60.6589966,159.6334991 Z M62.375,164.5475006 L61.1660004,164.5475006 L61.1660004,162.8444977 L62.375,162.8444977 L62.375,164.5475006 Z M62.375,162.0644989 L61.1660004,162.0644989 L61.1660004,160.4394989 L62.375,160.4394989 L62.375,162.0644989 Z M60.4120026,160.4394989 L60.4120026,162.0644989 L59.2290039,162.0644989 L59.2290039,160.4394989 L60.4120026,160.4394989 Z M73.9579926,161.661499 C74.3479919,162.1425018 74.8029938,162.7794952 75.322998,163.585495 L75.8300018,162.8444977 C75.1929932,162.0384979 74.5690002,161.3235016 73.9579926,160.6864929 L73.9579926,159.9844971 L75.7129974,159.9844971 L75.7129974,159.0874939 L73.9579926,159.0874939 L73.9579926,156.539505 L73.0350037,156.539505 L73.0350037,159.0874939 L71.1369934,159.0874939 L71.1369934,159.9844971 L72.9830017,159.9844971 C72.5670013,161.6224976 71.8649902,163.0914917 70.8769989,164.365509 L71.2799988,165.3795013 C72.0079956,164.3005066 72.5930023,163.1044922 73.0350037,161.7785034 L73.0350037,168.4215088 L73.9579926,168.4215088 L73.9579926,161.661499 Z M81.875,156.5914917 C80.276001,157.1894989 78.4819946,157.5144958 76.4799957,157.5664978 L76.4799957,161.739502 C76.4019928,164.2615051 75.8170013,166.2375031 74.7509918,167.6674957 L75.4140015,168.3565063 C76.6360016,166.7185059 77.298996,164.5084991 77.3899994,161.739502 L77.3899994,161.5964966 L79.7949982,161.5964966 L79.7949982,168.434494 L80.7310028,168.434494 L80.7310028,161.5964966 L82.6679993,161.5964966 L82.6679993,160.6994934 L77.3899994,160.6994934 L77.3899994,158.3594971 C79.2099915,158.2684937 80.8609924,157.9564972 82.3430023,157.4234924 L81.875,156.5914917 Z M86.8540039,156.8125 C86.2689972,158.5545044 85.397995,159.9454956 84.2279968,160.9855042 L85.0209961,161.6744995 C85.5800018,161.1544952 86.0869904,160.5045013 86.5549927,159.7375031 L89.6620026,159.7375031 L89.6620026,160.5825043 C89.6360016,161.2064972 89.5839996,161.7915039 89.4799957,162.3374939 L84.4489899,162.3374939 L84.4489899,163.2344971 L89.2850037,163.2344971 C89.0899963,163.8974915 88.8170013,164.4954987 88.4790039,165.0155029 C87.6729889,166.0944977 86.2429962,166.9654999 84.2149963,167.6414948 L84.7220001,168.434494 C86.776001,167.7714996 88.2449951,166.8484955 89.1419983,165.6654968 C89.5970001,165.0415039 89.947998,164.3005066 90.1949921,163.4425049 C90.8970032,165.5484924 92.6649933,167.1994934 95.4989929,168.4215088 L96.0189972,167.6025085 C93.302002,166.5625 91.625,165.1065063 90.9879913,163.2344971 L95.8239899,163.2344971 L95.8239899,162.3374939 L90.4550018,162.3374939 C90.54599,161.7915039 90.5979919,161.2064972 90.6239929,160.5825043 L90.6239929,159.7375031 L94.9790039,159.7375031 L94.9790039,158.8274994 L90.6239929,158.8274994 L90.6239929,156.5525055 L89.6620026,156.5525055 L89.6620026,158.8274994 L87.0359955,158.8274994 C87.2829895,158.3074951 87.5169983,157.7485046 87.7249908,157.1504974 L86.8540039,156.8125 Z M105.0930023,159.4515076 L107.4459991,159.4515076 C107.3939972,161.3625031 107.0169983,163.013504 106.3410034,164.3914948 C105.6129913,163.1174927 105.144989,161.6094971 104.9499969,159.8674927 C105.0019989,159.7375031 105.0410004,159.5944977 105.0930023,159.4515076 Z M104.3649902,161.2584991 C104.651001,162.7794952 105.144989,164.1184998 105.8470001,165.2884979 C105.2229919,166.2245026 104.4169922,167.0175018 103.4290009,167.6414948 L103.9359894,168.460495 C104.9109955,167.8105011 105.7299957,167.0305023 106.3799896,166.0944977 C107.0559998,167.0175018 107.8880005,167.8105011 108.8759918,168.4734955 L109.3829956,167.5895081 C108.394989,166.9394989 107.5759888,166.1595001 106.8999939,165.2494965 C107.7839966,163.6634979 108.2519989,161.739502 108.3170013,159.4515076 L109.1490021,159.4515076 L109.1490021,158.5545044 L105.3399963,158.5545044 C105.4830017,157.9564972 105.6129913,157.3065033 105.7169952,156.6044922 L104.7939911,156.4875031 C104.5339966,158.7754974 103.9229889,160.5565033 102.973999,161.8175049 L103.519989,162.5195007 C103.8320007,162.1685028 104.1049957,161.7525024 104.3649902,161.2584991 Z M102.7529907,157.059494 L97.9559937,157.059494 L97.9559937,165.1974945 L98.8139954,165.1974945 L98.8139954,157.9304962 L101.894989,157.9304962 L101.894989,165.1974945 L102.7529907,165.1974945 L102.7529907,157.059494 Z M101.2579956,165.5744934 L100.6470032,166.1725006 C101.4140015,166.9654999 102.0119934,167.7064972 102.4409943,168.4085083 L103.1299896,167.7324982 C102.6230011,167.0175018 101.9989929,166.3024902 101.2579956,165.5744934 Z M99.9579926,158.9055023 L99.9579926,162.8704987 C99.9319916,164.0924988 99.75,165.0935059 99.4120026,165.8605042 C99.0479889,166.588501 98.397995,167.1864929 97.4879913,167.6284943 L97.9949951,168.434494 C98.9570007,167.9664917 99.6589966,167.3164978 100.1009979,166.4714966 C100.5299988,165.5744934 100.7509918,164.3784943 100.7769928,162.8704987 L100.7769928,158.9055023 L99.9579926,158.9055023 Z M109.8899994,167.1604919" style="fill:rgb(255,3,3);stroke:none" clip-path="url(#clip25)" />
<clipPath id="clip26"><path d="M40,79 L128,79 L128,116 L40,116 L40,79 Z" /></clipPath>
<path d="M47,81 C44.2385712,81 42,83.2385712 42,86 L42,108 C42,110.7614288 44.2385712,113 47,113 L120,113 C122.7614288,113 125,110.7614288 125,108 L125,86 C125,83.2385712 122.7614288,81 120,81 Z M47,81" style="fill:rgb(220,230,242);stroke:none" clip-path="url(#clip26)" />
<clipPath id="clip27"><path d="M40,79 L128,79 L128,116 L40,116 L40,79 Z" /></clipPath>
<path d="M47,81 C44.2385712,81 42,83.2385712 42,86 L42,108 C42,110.7614288 44.2385712,113 47,113 L120,113 C122.7614288,113 125,110.7614288 125,108 L125,86 C125,83.2385712 122.7614288,81 120,81 Z M47,81" style="fill:none;stroke:rgb(85,142,213);stroke-width:2" clip-path="url(#clip27)" />
<clipPath id="clip28"><path d="M54,88 L114,88 L114,107 L54,107 L54,88 Z" /></clipPath>
<path d="M65.0724945,91.5590057 L65.0724945,92.4039993 L61.9264984,92.4039993 L61.9264984,93.1710052 L65.0724945,93.1710052 L65.0724945,94.0419998 L62.4465027,94.0419998 L62.4465027,94.7960052 L65.0724945,94.7960052 L65.0724945,95.6800003 L61.5625,95.6800003 L61.5625,96.4599991 L69.5184937,96.4599991 L69.5184937,95.6800003 L65.9694977,95.6800003 L65.9694977,94.7960052 L68.7254944,94.7960052 L68.7254944,94.0419998 L65.9694977,94.0419998 L65.9694977,93.1710052 L69.1934967,93.1710052 L69.1934967,92.4039993 L65.9694977,92.4039993 L65.9694977,91.5590057 L65.0724945,91.5590057 Z M63.4474945,99.7360001 L67.6464996,99.7360001 L67.6464996,100.6849976 L63.4474945,100.6849976 L63.4474945,99.7360001 Z M67.6464996,99.0079956 L63.4474945,99.0079956 L63.4474945,98.0459976 L67.6464996,98.0459976 L67.6464996,99.0079956 Z M63.4474945,101.413002 L67.6464996,101.413002 L67.6464996,102.1539993 C67.6464996,102.4530029 67.4774933,102.6090012 67.1654968,102.6090012 L66.1255035,102.5699997 L66.3464966,103.4020004 L67.4385071,103.4020004 C68.1665039,103.4020004 68.5435028,103.0510025 68.5435028,102.348999 L68.5435028,97.2789993 L62.5505066,97.2789993 L62.5505066,103.4799957 L63.4474945,103.4799957 L63.4474945,101.413002 Z M59.2095032,91.7019958 L58.5464935,92.3390045 C59.4824982,93.0410004 60.2234955,93.7039948 60.7695007,94.3280029 L61.4064941,93.6780014 C60.8085022,93.0149994 60.0805054,92.352005 59.2095032,91.7019958 Z M57.6365051,95.5370026 L57.6365051,96.4340057 L59.4954987,96.4340057 L59.4954987,101.5950012 C59.4954987,101.8160019 59.3914948,102.0110016 59.1965027,102.1930008 L59.5605011,103.0250015 C60.3665009,102.4400024 61.1464996,101.7639999 61.8744965,101.0100021 L61.6275024,100.0220032 C61.1855011,100.477005 60.7825012,100.8800049 60.3925018,101.2440033 L60.3925018,95.5370026 L57.6365051,95.5370026 Z M71.286499,93.951004 L71.286499,94.8479996 L76.460495,94.8479996 L76.460495,97.2789993 C74.9264984,99.177002 73.158493,100.6589966 71.1564941,101.7509995 L71.6634979,102.5960007 C73.4965057,101.4779968 75.0955048,100.0739975 76.460495,98.4100037 L76.460495,101.9589996 C76.460495,102.3619995 76.2785034,102.5699997 75.9275055,102.5699997 C75.4075012,102.5699997 74.8744965,102.5439987 74.3025055,102.5050049 L74.4974976,103.4020004 L76.2525024,103.4020004 C77.0325012,103.4020004 77.4225006,102.9990005 77.4225006,102.1930008 L77.4225006,97.1360016 C78.4884949,99.2290039 80.0614929,100.9970016 82.1674957,102.4530029 L82.8175049,101.6860046 C81.3874969,100.776001 80.1784973,99.7099991 79.2035065,98.5009995 C80.2044983,97.8119965 81.0625,97.0059967 81.7774963,96.0830002 L81.088501,95.4720001 C80.4255066,96.3560028 79.6325073,97.1490021 78.7095032,97.8509979 C78.2024994,97.1490021 77.7734985,96.3950043 77.4225006,95.602005 L77.4225006,94.8479996 L82.388504,94.8479996 L82.388504,93.951004 L80.4125061,93.951004 L81.0234985,93.3399963 C80.5034943,92.7680054 79.8535004,92.1829987 79.0735016,91.6110001 L78.4624939,92.1829987 C79.2424927,92.8069992 79.8795013,93.3919983 80.3605042,93.951004 L77.4225006,93.951004 L77.4225006,91.5200043 L76.460495,91.5200043 L76.460495,93.951004 L71.286499,93.951004 Z M72.5475006,95.7449951 L71.8975067,96.3560028 C72.8464966,97.201004 73.5874939,97.9940033 74.1204987,98.7350006 L74.7704926,98.0979996 C74.1725006,97.3180008 73.4315033,96.5250015 72.5475006,95.7449951 Z M86.8345032,91.8320007 C86.2494965,93.5740051 85.3784943,94.9649963 84.2084961,96.0050049 L85.0014954,96.6940002 C85.5605011,96.173996 86.0675049,95.5240021 86.5355072,94.7570038 L89.6425018,94.7570038 L89.6425018,95.602005 C89.6165009,96.2259979 89.5644989,96.8110046 89.460495,97.3569946 L84.4295044,97.3569946 L84.4295044,98.2539978 L89.2655029,98.2539978 C89.0704956,98.9169998 88.7975006,99.5149994 88.4595032,100.0350037 C87.6535034,101.1139984 86.2234955,101.9850006 84.1954956,102.6610031 L84.7024994,103.4540024 C86.7565002,102.7910004 88.2254944,101.8679962 89.1224976,100.6849976 C89.5774994,100.0610046 89.9284973,99.3199997 90.1755066,98.461998 C90.8775024,100.5680008 92.6454926,102.2190018 95.4795074,103.4410019 L95.9994965,102.6220016 C93.2825012,101.5820007 91.6054993,100.1259995 90.9685059,98.2539978 L95.8045044,98.2539978 L95.8045044,97.3569946 L90.4355011,97.3569946 C90.5265045,96.8110046 90.5785065,96.2259979 90.6045074,95.602005 L90.6045074,94.7570038 L94.9595032,94.7570038 L94.9595032,93.8470001 L90.6045074,93.8470001 L90.6045074,91.5719986 L89.6425018,91.5719986 L89.6425018,93.8470001 L87.0164948,93.8470001 C87.263504,93.3269958 87.4974976,92.7680054 87.7055054,92.1699982 L86.8345032,91.8320007 Z M105.0735016,94.4710007 L107.4264984,94.4710007 C107.3744965,96.3820038 106.9974976,98.0330048 106.3215027,99.4110031 C105.5935059,98.137001 105.1255035,96.6289978 104.9304962,94.887001 C104.9824982,94.7570038 105.0214996,94.6139984 105.0735016,94.4710007 Z M104.3455048,96.2779999 C104.6315002,97.798996 105.1255035,99.1380005 105.8274994,100.3079987 C105.2035065,101.2440033 104.3975067,102.0370026 103.4095001,102.6610031 L103.9165039,103.4799957 C104.8914948,102.8300018 105.710495,102.0500031 106.3605042,101.1139984 C107.036499,102.0370026 107.8684998,102.8300018 108.8565063,103.4929962 L109.3634949,102.6090012 C108.3755035,101.9589996 107.5565033,101.1790009 106.8804932,100.2689972 C107.7644958,98.6829987 108.2324982,96.7590027 108.2975006,94.4710007 L109.1295013,94.4710007 L109.1295013,93.5740051 L105.3204956,93.5740051 C105.463501,92.9759979 105.5935059,92.326004 105.6974945,91.6240005 L104.7745056,91.5070038 C104.5144958,93.7949982 103.9035034,95.576004 102.9544983,96.8370056 L103.5005035,97.5390015 C103.8125,97.1880035 104.085495,96.7720032 104.3455048,96.2779999 Z M102.7335052,92.0789948 L97.9364929,92.0789948 L97.9364929,100.2170029 L98.7944946,100.2170029 L98.7944946,92.9499969 L101.8755035,92.9499969 L101.8755035,100.2170029 L102.7335052,100.2170029 L102.7335052,92.0789948 Z M101.2384949,100.5940018 L100.6275024,101.1920013 C101.3945007,101.9850006 101.9924927,102.7259979 102.4214935,103.4280014 L103.1105042,102.7519989 C102.6035004,102.0370026 101.9795074,101.3219986 101.2384949,100.5940018 Z M99.9385071,93.9250031 L99.9385071,97.8899994 C99.9125061,99.1119995 99.7304993,100.112999 99.3925018,100.8800049 C99.0285034,101.6080017 98.3784943,102.2060013 97.4685059,102.6480026 L97.9754944,103.4540024 C98.9375,102.9860001 99.6394958,102.3359985 100.0814972,101.4909973 C100.510498,100.5940018 100.7315063,99.3980026 100.7575073,97.8899994 L100.7575073,93.9250031 L99.9385071,93.9250031 Z M109.8704987,102.1800003" style="fill:rgb(255,3,3);stroke:none" clip-path="url(#clip28)" />
<clipPath id="clip29"><path d="M98,14 L186,14 L186,51 L98,51 L98,14 Z" /></clipPath>
<path d="M105,16 C102.2385712,16 100,18.2385712 100,21 L100,43 C100,45.7614288 102.2385712,48 105,48 L178,48 C180.7614288,48 183,45.7614288 183,43 L183,21 C183,18.2385712 180.7614288,16 178,16 Z M105,16" style="fill:rgb(220,230,242);stroke:none" clip-path="url(#clip29)" />
<clipPath id="clip30"><path d="M98,14 L186,14 L186,51 L98,51 L98,14 Z" /></clipPath>
<path d="M105,16 C102.2385712,16 100,18.2385712 100,21 L100,43 C100,45.7614288 102.2385712,48 105,48 L178,48 C180.7614288,48 183,45.7614288 183,43 L183,21 C183,18.2385712 180.7614288,16 178,16 Z M105,16" style="fill:none;stroke:rgb(85,142,213);stroke-width:2" clip-path="url(#clip30)" />
<clipPath id="clip31"><path d="M112,23 L172,23 L172,42 L112,42 L112,23 Z" /></clipPath>
<path d="M123.3064957,26.5329971 L123.3064957,27.3779984 L120.1604919,27.3779984 L120.1604919,28.1449966 L123.3064957,28.1449966 L123.3064957,29.0159988 L120.6804962,29.0159988 L120.6804962,29.7699966 L123.3064957,29.7699966 L123.3064957,30.6539993 L119.7964935,30.6539993 L119.7964935,31.4339981 L127.7524948,31.4339981 L127.7524948,30.6539993 L124.2034912,30.6539993 L124.2034912,29.7699966 L126.9594955,29.7699966 L126.9594955,29.0159988 L124.2034912,29.0159988 L124.2034912,28.1449966 L127.4274902,28.1449966 L127.4274902,27.3779984 L124.2034912,27.3779984 L124.2034912,26.5329971 L123.3064957,26.5329971 Z M121.6814957,34.7099991 L125.8804932,34.7099991 L125.8804932,35.6589966 L121.6814957,35.6589966 L121.6814957,34.7099991 Z M125.8804932,33.9820023 L121.6814957,33.9820023 L121.6814957,33.0199966 L125.8804932,33.0199966 L125.8804932,33.9820023 Z M121.6814957,36.387001 L125.8804932,36.387001 L125.8804932,37.1279984 C125.8804932,37.427002 125.7114944,37.5830002 125.3994904,37.5830002 L124.3594971,37.5439987 L124.5804901,38.3759995 L125.672493,38.3759995 C126.4004898,38.3759995 126.7774963,38.0250015 126.7774963,37.322998 L126.7774963,32.2529984 L120.7844925,32.2529984 L120.7844925,38.4540024 L121.6814957,38.4540024 L121.6814957,36.387001 Z M117.4434967,26.6760025 L116.7804871,27.3129959 C117.7164917,28.0149994 118.457489,28.6780014 119.0034943,29.302002 L119.6404953,28.6520004 C119.0424957,27.9889984 118.3144989,27.3259964 117.4434967,26.6760025 Z M115.8704987,30.5110016 L115.8704987,31.4079971 L117.7294922,31.4079971 L117.7294922,36.5690002 C117.7294922,36.7900009 117.6254883,36.9850006 117.4304962,37.1669998 L117.7944946,37.9990005 C118.6004944,37.4140015 119.3804932,36.737999 120.10849,35.9840012 L119.861496,34.9960022 C119.4194946,35.4509964 119.0164948,35.8539963 118.6264954,36.2180023 L118.6264954,30.5110016 L115.8704987,30.5110016 Z M129.5204926,28.9250031 L129.5204926,29.8219986 L134.6944885,29.8219986 L134.6944885,32.2529984 C133.1604919,34.151001 131.3924866,35.6329956 129.3905029,36.7249985 L129.8974915,37.5699997 C131.7304993,36.4519958 133.3294983,35.0479965 134.6944885,33.3840027 L134.6944885,36.9329987 C134.6944885,37.3359985 134.5124969,37.5439987 134.161499,37.5439987 C133.6414948,37.5439987 133.10849,37.5179977 132.536499,37.4789963 L132.7314911,38.3759995 L134.486496,38.3759995 C135.2664948,38.3759995 135.6564941,37.9729996 135.6564941,37.1669998 L135.6564941,32.1100006 C136.7225037,34.2030029 138.2955017,35.9710007 140.4014893,37.427002 L141.0514832,36.659996 C139.6214905,35.75 138.4124908,34.6839981 137.4375,33.4749985 C138.4384918,32.7860031 139.2964935,31.9799957 140.0114899,31.0569992 L139.3224945,30.4459991 C138.6594849,31.3300018 137.8664856,32.1230011 136.9434967,32.8249969 C136.4364929,32.1230011 136.0074921,31.3689957 135.6564941,30.5759964 L135.6564941,29.8219986 L140.6224976,29.8219986 L140.6224976,28.9250031 L138.6464844,28.9250031 L139.2574921,28.314003 C138.7374878,27.7419968 138.0874939,27.1569977 137.3074951,26.5849991 L136.6965027,27.1569977 C137.4765015,27.7809982 138.1134949,28.3659973 138.5944824,28.9250031 L135.6564941,28.9250031 L135.6564941,26.4939957 L134.6944885,26.4939957 L134.6944885,28.9250031 L129.5204926,28.9250031 Z M130.7814941,30.7190018 L130.1315002,31.3300018 C131.0804901,32.1750031 131.8215027,32.9680023 132.3544922,33.7089996 L133.0044861,33.0719986 C132.4064941,32.2919998 131.6654968,31.4990005 130.7814941,30.7190018 Z M151.5164948,26.4939957 L150.9184875,27.0660019 C151.5814972,27.572998 152.1015015,28.0540009 152.4914856,28.5219955 L150.0604858,28.5219955 C150.0344849,27.8980026 150.0214844,27.2350006 150.0214844,26.5069962 L149.059494,26.5069962 C149.059494,27.2089996 149.0724945,27.8720016 149.0984955,28.5219955 L143.7294922,28.5219955 L143.7294922,32.8509979 C143.6904907,34.9700012 143.2614899,36.6210022 142.4295044,37.8170013 L143.1445007,38.4540024 C144.1064911,37.0500031 144.6264954,35.1780014 144.6784973,32.8509979 L144.6784973,32.4609985 L146.9274902,32.4609985 C146.9014893,33.8909988 146.8624878,34.8269958 146.7844849,35.2689972 C146.7064972,35.6329956 146.5244904,35.8280029 146.2384949,35.8409958 C145.8874969,35.8409958 145.4584961,35.8280029 144.9514923,35.802002 L145.2374878,36.6469955 C145.6535034,36.6729965 146.0304871,36.6989975 146.3424988,36.6989975 C146.9924927,36.6729965 147.3954926,36.387001 147.5644836,35.8280029 C147.73349,35.1910019 147.8374939,33.7740021 147.8634949,31.5769958 L144.6784973,31.5769958 L144.6784973,29.4189987 L149.1374969,29.4189987 C149.2414856,31.0439987 149.4234924,32.4089966 149.7095032,33.5009995 C149.8524933,34.0599976 150.0214844,34.5800018 150.2034912,35.060997 C149.306488,36.1920013 148.2014923,37.0500031 146.9014893,37.6350021 L147.4214935,38.4150009 C148.6434937,37.8689957 149.7095032,37.0759964 150.6194916,36.0100021 C150.8144836,36.413002 151.0354919,36.7770004 151.2695007,37.0889969 C151.8934937,37.8689957 152.4784851,38.2590027 153.0244904,38.2590027 C153.6094971,38.2590027 154.0514832,37.3880005 154.3634949,35.6589966 L153.5184937,35.1910019 C153.3234863,36.5299988 153.1024933,37.2060013 152.8684998,37.2190018 C152.60849,37.2190018 152.2574921,36.9069977 151.8284912,36.2829971 C151.6204834,35.9840012 151.4254913,35.6200027 151.2434998,35.2040024 C152.0755005,34.0339966 152.7514954,32.5780029 153.2714844,30.8619995 L152.4264832,30.4980011 C152.0234985,31.8889999 151.5034943,33.1110001 150.8534851,34.151001 C150.7624969,33.8649979 150.6714935,33.5660019 150.5934906,33.2409973 C150.3594971,32.3050003 150.1904907,31.0309982 150.0994873,29.4189987 L154.1034851,29.4189987 L154.1034851,28.5219955 L152.5174866,28.5219955 L153.1154938,27.923996 C152.6734924,27.4430008 152.1405029,26.961998 151.5164948,26.4939957 Z M157.6524963,28.8860016 L157.6524963,35.112999 C156.989502,35.2689972 156.3134918,35.4120026 155.6374969,35.5289993 L155.8714905,36.4649963 C157.5614929,36.1009979 159.1474915,35.6589966 160.6294861,35.112999 L160.6294861,34.177002 C159.9664917,34.4369965 159.2904968,34.6579971 158.6015015,34.8529968 L158.6015015,28.8860016 L160.4734955,28.8860016 L160.4734955,27.9889984 L155.7804871,27.9889984 L155.7804871,28.8860016 L157.6524963,28.8860016 Z M162.8654938,26.5719986 L162.8654938,29.197998 L160.7984924,29.197998 L160.7984924,30.1080017 L162.8654938,30.1080017 C162.8134918,33.6439972 161.8515015,36.2310028 159.9534912,37.8430023 L160.7204895,38.5059967 C162.7225037,36.7249985 163.7624969,33.9300003 163.8274841,30.1080017 L166.2064972,30.1080017 C166.1804962,33.5790024 166.1284943,35.6589966 166.0504913,36.3349991 C165.9205017,37.0759964 165.4264832,37.4530029 164.5814972,37.4530029 C164.2174988,37.4530029 163.8014832,37.4400024 163.3204956,37.4140015 L163.5415039,38.284996 C164.1004944,38.310997 164.4904938,38.336998 164.7244873,38.336998 C166.0374908,38.336998 166.7785034,37.7910004 166.934494,36.7249985 C167.0644836,35.7630005 167.1294861,33.2539978 167.1294861,29.197998 L163.8274841,29.197998 L163.8274841,26.5719986 L162.8654938,26.5719986 Z M168.1044922,37.1539993" style="fill:rgb(3,128,3);stroke:none" clip-path="url(#clip31)" />
</svg>
